<?xml version="1.0" encoding="UTF-8"?>
<svg id="Layer_1" data-name="Layer 1" xmlns="http://www.w3.org/2000/svg" version="1.1" viewBox="0 0 113 113">
  <defs>
    <style>
      .cls-1 {
        fill: #5dcbf4;
        stroke: #2b5daa;
        stroke-linecap: round;
        stroke-linejoin: round;
      }
    </style>
  </defs>
  <path class="cls-1" d="M62.58,7.69l6.85-5.15c6.15-4.63,15.01-.96,16.09,6.66l1.2,8.48c.63,4.46,4.14,7.97,8.6,8.6l8.48,1.2c7.62,1.08,11.29,9.94,6.66,16.09l-5.15,6.85c-2.71,3.6-2.71,8.56,0,12.16l5.15,6.85c4.63,6.15.96,15.01-6.66,16.09l-8.48,1.2c-4.46.63-7.97,4.14-8.6,8.6l-1.2,8.48c-1.08,7.62-9.94,11.29-16.09,6.66l-6.85-5.15c-3.6-2.71-8.56-2.71-12.16,0l-6.85,5.15c-6.15,4.63-15.01.96-16.09-6.66l-1.2-8.48c-.63-4.46-4.14-7.97-8.6-8.6l-8.48-1.2c-7.62-1.08-11.29-9.94-6.66-16.09l5.15-6.85c2.71-3.6,2.71-8.56,0-12.16l-5.15-6.85c-4.63-6.15-.96-15.01,6.66-16.09l8.48-1.2c4.46-.63,7.97-4.14,8.6-8.6l1.2-8.48c1.08-7.62,9.94-11.29,16.09-6.66l6.85,5.15c3.6,2.71,8.56,2.71,12.16,0Z"/>
</svg>