<svg width="1061" height="276" viewBox="0 0 1061 276" fill="none" xmlns="http://www.w3.org/2000/svg">
<g clip-path="url(#clip0_189_100)">
<g clip-path="url(#clip1_189_100)">
<path d="M539.464 120.617L549.544 113.036C558.6 106.214 571.651 111.623 573.249 122.85L575.011 135.348C575.933 141.925 581.096 147.088 587.673 148.01L600.171 149.772C611.398 151.349 616.807 164.4 609.985 173.477L602.404 183.557C598.409 188.863 598.409 196.157 602.404 201.464L609.985 211.544C616.807 220.6 611.398 233.651 600.171 235.249L587.673 237.011C581.096 237.933 575.933 243.096 575.011 249.673L573.249 262.17C571.672 273.398 558.621 278.807 549.544 271.984L539.464 264.404C534.158 260.408 526.864 260.408 521.557 264.404L511.477 271.984C502.421 278.807 489.37 273.398 487.772 262.17L486.01 249.673C485.088 243.096 479.925 237.933 473.348 237.011L460.851 235.249C449.623 233.671 444.214 220.62 451.037 211.544L458.617 201.464C462.613 196.157 462.613 188.863 458.617 183.557L451.037 173.477C444.214 164.421 449.623 151.37 460.851 149.772L473.348 148.01C479.925 147.088 485.088 141.925 486.01 135.348L487.772 122.85C489.35 111.623 502.401 106.214 511.477 113.036L521.557 120.617C526.864 124.612 534.158 124.612 539.464 120.617Z" fill="#5ECBF5" stroke="#2C5DAA" stroke-linecap="round" stroke-linejoin="round"/>
<path d="M478.117 174.9C481.717 174.9 483.567 176.6 483.567 179.925V184.525C483.567 186.125 483.692 187.15 483.917 188H480.767C480.642 187.475 480.592 186.925 480.592 186.3H480.542C479.592 187.65 478.167 188.3 476.417 188.3C473.717 188.3 472.092 186.65 472.092 184.45C472.092 182.375 473.342 180.975 477.017 180.4C477.967 180.25 479.392 180.1 480.192 180.05V179.6C480.192 178 479.342 177.35 478.117 177.35C476.817 177.35 476.067 178.075 476.017 179.275H472.617C472.742 176.85 474.492 174.9 478.117 174.9ZM480.192 182.65V182.175C479.442 182.225 478.392 182.325 477.642 182.45C476.192 182.7 475.592 183.175 475.592 184.2C475.592 185.15 476.242 185.8 477.467 185.8C478.192 185.8 478.967 185.575 479.467 185.075C480.067 184.475 480.192 183.8 480.192 182.65ZM501.514 175C504.239 175 505.964 176.75 505.964 180.2V188H502.464V180.55C502.464 178.625 501.689 177.75 500.464 177.75C498.964 177.75 498.139 179.075 498.139 181.475V188H494.639V180.325C494.639 178.7 493.939 177.75 492.639 177.75C491.114 177.75 490.314 179.1 490.314 181.475V188H486.814V175.3H490.114V176.75H490.164C491.089 175.55 492.164 175 493.689 175C495.464 175 496.764 175.75 497.464 177.175C498.414 175.825 499.564 175 501.514 175ZM523.951 175C526.676 175 528.401 176.75 528.401 180.2V188H524.901V180.55C524.901 178.625 524.126 177.75 522.901 177.75C521.401 177.75 520.576 179.075 520.576 181.475V188H517.076V180.325C517.076 178.7 516.376 177.75 515.076 177.75C513.551 177.75 512.751 179.1 512.751 181.475V188H509.251V175.3H512.551V176.75H512.601C513.526 175.55 514.601 175 516.126 175C517.901 175 519.201 175.75 519.901 177.175C520.851 175.825 522.001 175 523.951 175ZM537.362 174.9C541.337 174.9 543.862 177.525 543.862 181.65C543.862 185.775 541.337 188.4 537.362 188.4C533.387 188.4 530.862 185.775 530.862 181.65C530.862 177.525 533.387 174.9 537.362 174.9ZM537.362 177.6C535.637 177.6 534.537 179.175 534.537 181.65C534.537 184.125 535.637 185.7 537.362 185.7C539.087 185.7 540.187 184.125 540.187 181.65C540.187 179.175 539.087 177.6 537.362 177.6ZM553.483 175C556.333 175 558.158 176.75 558.158 180.2V188H554.658V180.55C554.658 178.625 553.808 177.75 552.433 177.75C550.983 177.75 549.933 178.9 549.933 181.2V188H546.433V175.3H549.708V176.9H549.758C550.583 175.775 551.858 175 553.483 175ZM564.924 173.2H561.424V170.2H564.924V173.2ZM564.924 188H561.424V175.3H564.924V188ZM574.033 185.375C574.358 185.375 574.708 185.325 574.933 185.25V187.925C574.458 188.075 573.683 188.175 573.083 188.175C570.158 188.175 568.883 187 568.883 184.05V177.9H566.833V175.3H568.883V172H572.383V175.3H574.808V177.9H572.383V183.425C572.383 184.825 572.833 185.375 574.033 185.375ZM582.427 185.925C583.827 185.925 584.752 185.175 584.927 184.15H588.502C588.002 186.475 585.802 188.4 582.427 188.4C578.427 188.4 576.102 185.6 576.102 181.55C576.102 177.8 578.427 174.9 582.402 174.9C585.327 174.9 587.477 176.55 588.277 179.125C588.552 180 588.677 180.975 588.677 182.375H579.552C579.652 185 580.927 185.925 582.427 185.925ZM582.402 177.375C580.977 177.375 579.902 178.25 579.627 180.175H585.177C584.952 178.25 583.802 177.375 582.402 177.375ZM489.423 204.9C492.848 204.9 495.148 207.05 495.423 210.025H491.773C491.648 208.525 490.748 207.6 489.398 207.6C487.698 207.6 486.673 209.15 486.673 211.65C486.673 214.15 487.698 215.7 489.398 215.7C490.748 215.7 491.648 214.675 491.748 213.025H495.423C495.148 216.25 492.848 218.4 489.423 218.4C485.548 218.4 483.023 215.75 483.023 211.65C483.023 207.55 485.548 204.9 489.423 204.9ZM501.386 206.7H501.436C502.336 205.55 503.586 205 504.936 205C507.786 205 509.611 206.75 509.611 210.2V218H506.111V210.55C506.111 208.625 505.261 207.75 503.886 207.75C502.436 207.75 501.386 208.875 501.386 211.2V218H497.886V200.2H501.386V206.7ZM516.376 218H512.876V200.2H516.376V218ZM525.46 204.9C529.435 204.9 531.96 207.525 531.96 211.65C531.96 215.775 529.435 218.4 525.46 218.4C521.485 218.4 518.96 215.775 518.96 211.65C518.96 207.525 521.485 204.9 525.46 204.9ZM525.46 207.6C523.735 207.6 522.635 209.175 522.635 211.65C522.635 214.125 523.735 215.7 525.46 215.7C527.185 215.7 528.285 214.125 528.285 211.65C528.285 209.175 527.185 207.6 525.46 207.6ZM541.282 205.1C541.632 205.1 542.082 205.15 542.432 205.25V208.275C542.032 208.2 541.682 208.15 541.332 208.15C539.182 208.15 538.032 209.5 538.032 212V218H534.532V205.3H537.757V207.1H537.807C538.657 205.725 539.782 205.1 541.282 205.1ZM547.822 203.2H544.322V200.2H547.822V203.2ZM547.822 218H544.322V205.3H547.822V218ZM558.281 205C561.131 205 562.956 206.75 562.956 210.2V218H559.456V210.55C559.456 208.625 558.606 207.75 557.231 207.75C555.781 207.75 554.731 208.9 554.731 211.2V218H551.231V205.3H554.506V206.9H554.556C555.381 205.775 556.656 205 558.281 205ZM571.721 215.925C573.121 215.925 574.046 215.175 574.221 214.15H577.796C577.296 216.475 575.096 218.4 571.721 218.4C567.721 218.4 565.396 215.6 565.396 211.55C565.396 207.8 567.721 204.9 571.696 204.9C574.621 204.9 576.771 206.55 577.571 209.125C577.846 210 577.971 210.975 577.971 212.375H568.846C568.946 215 570.221 215.925 571.721 215.925ZM571.696 207.375C570.271 207.375 569.196 208.25 568.921 210.175H574.471C574.246 208.25 573.096 207.375 571.696 207.375Z" fill="black"/>
</g>
<g clip-path="url(#clip2_189_100)">
<path d="M241.464 120.617L251.544 113.036C260.6 106.214 273.651 111.623 275.249 122.85L277.011 135.348C277.933 141.925 283.096 147.088 289.673 148.01L302.171 149.772C313.398 151.349 318.807 164.4 311.985 173.477L304.404 183.557C300.409 188.863 300.409 196.157 304.404 201.464L311.985 211.544C318.807 220.6 313.398 233.651 302.171 235.249L289.673 237.011C283.096 237.933 277.933 243.096 277.011 249.673L275.249 262.17C273.672 273.398 260.621 278.807 251.544 271.984L241.464 264.404C236.158 260.408 228.864 260.408 223.557 264.404L213.477 271.984C204.421 278.807 191.37 273.398 189.772 262.17L188.01 249.673C187.088 243.096 181.925 237.933 175.348 237.011L162.851 235.249C151.623 233.671 146.214 220.62 153.037 211.544L160.617 201.464C164.613 196.157 164.613 188.863 160.617 183.557L153.037 173.477C146.214 164.421 151.623 151.37 162.851 149.772L175.348 148.01C181.925 147.088 187.088 141.925 188.01 135.348L189.772 122.85C191.35 111.623 204.401 106.214 213.477 113.036L223.557 120.617C228.864 124.612 236.158 124.612 241.464 120.617Z" fill="#5ECBF5" stroke="#2C5DAA" stroke-linecap="round" stroke-linejoin="round"/>
<path d="M182.877 174.975C186.077 174.975 188.152 177.6 188.152 181.65C188.152 185.7 186.102 188.325 182.927 188.325C181.477 188.325 180.102 187.675 179.327 186.475H179.277V192.625H175.777V175.3H179.177V176.975H179.227C180.002 175.675 181.402 174.975 182.877 174.975ZM181.752 177.65C180.177 177.65 179.102 179.125 179.102 181.65C179.102 184.175 180.177 185.65 181.752 185.65C183.427 185.65 184.502 184.075 184.502 181.65C184.502 179.225 183.427 177.65 181.752 177.65ZM197.469 175.1C197.819 175.1 198.269 175.15 198.619 175.25V178.275C198.219 178.2 197.869 178.15 197.519 178.15C195.369 178.15 194.219 179.5 194.219 182V188H190.719V175.3H193.944V177.1H193.994C194.844 175.725 195.969 175.1 197.469 175.1ZM205.891 174.9C209.866 174.9 212.391 177.525 212.391 181.65C212.391 185.775 209.866 188.4 205.891 188.4C201.916 188.4 199.391 185.775 199.391 181.65C199.391 177.525 201.916 174.9 205.891 174.9ZM205.891 177.6C204.166 177.6 203.066 179.175 203.066 181.65C203.066 184.125 204.166 185.7 205.891 185.7C207.616 185.7 208.716 184.125 208.716 181.65C208.716 179.175 207.616 177.6 205.891 177.6ZM222.062 174.975C225.262 174.975 227.337 177.6 227.337 181.65C227.337 185.7 225.287 188.325 222.112 188.325C220.662 188.325 219.287 187.675 218.512 186.475H218.462V192.625H214.962V175.3H218.362V176.975H218.412C219.187 175.675 220.587 174.975 222.062 174.975ZM220.937 177.65C219.362 177.65 218.287 179.125 218.287 181.65C218.287 184.175 219.362 185.65 220.937 185.65C222.612 185.65 223.687 184.075 223.687 181.65C223.687 179.225 222.612 177.65 220.937 177.65ZM240.539 175.3L235.989 188.075C234.714 191.65 233.114 192.775 229.939 192.775C229.314 192.775 228.639 192.7 228.114 192.575V189.775C228.464 189.9 228.939 189.975 229.464 189.975C230.864 189.975 231.789 189.175 231.789 187.925C231.789 187.45 231.689 187.05 231.189 185.625L227.589 175.3H231.339L232.639 179.55C233.164 181.3 233.639 183.1 234.039 184.875H234.089C234.514 183.1 234.989 181.3 235.564 179.55L236.939 175.3H240.539ZM245.561 188H242.061V170.2H245.561V188ZM254.471 185.925C255.871 185.925 256.796 185.175 256.971 184.15H260.546C260.046 186.475 257.846 188.4 254.471 188.4C250.471 188.4 248.146 185.6 248.146 181.55C248.146 177.8 250.471 174.9 254.446 174.9C257.371 174.9 259.521 176.55 260.321 179.125C260.596 180 260.721 180.975 260.721 182.375H251.596C251.696 185 252.971 185.925 254.471 185.925ZM254.446 177.375C253.021 177.375 251.946 178.25 251.671 180.175H257.221C256.996 178.25 255.846 177.375 254.446 177.375ZM270.352 175C273.202 175 275.027 176.75 275.027 180.2V188H271.527V180.55C271.527 178.625 270.677 177.75 269.302 177.75C267.852 177.75 266.802 178.9 266.802 181.2V188H263.302V175.3H266.577V176.9H266.627C267.452 175.775 268.727 175 270.352 175ZM283.792 185.925C285.192 185.925 286.117 185.175 286.292 184.15H289.867C289.367 186.475 287.167 188.4 283.792 188.4C279.792 188.4 277.467 185.6 277.467 181.55C277.467 177.8 279.792 174.9 283.767 174.9C286.692 174.9 288.842 176.55 289.642 179.125C289.917 180 290.042 180.975 290.042 182.375H280.917C281.017 185 282.292 185.925 283.792 185.925ZM283.767 177.375C282.342 177.375 281.267 178.25 280.992 180.175H286.542C286.317 178.25 285.167 177.375 283.767 177.375ZM203.64 204.95C205.19 204.95 206.265 205.55 207.24 207H207.29V205.3H210.59V217.2C210.59 221.05 208.215 222.85 204.565 222.85C201.065 222.85 199.14 221.3 198.94 218.8H202.44C202.515 219.775 203.315 220.35 204.64 220.35C206.215 220.35 207.19 219.55 207.19 217.075V215.95H207.14C206.19 217.275 205.115 217.85 203.59 217.85C200.415 217.85 198.39 215.35 198.39 211.4C198.39 207.45 200.44 204.95 203.64 204.95ZM204.59 207.825C203.04 207.825 202.04 209.2 202.04 211.4C202.04 213.6 203.04 214.975 204.59 214.975C206.24 214.975 207.29 213.55 207.29 211.4C207.29 209.25 206.24 207.825 204.59 207.825ZM217.485 218H213.985V200.2H217.485V218ZM231.969 205.3L227.419 218.075C226.144 221.65 224.544 222.775 221.369 222.775C220.744 222.775 220.069 222.7 219.544 222.575V219.775C219.894 219.9 220.369 219.975 220.894 219.975C222.294 219.975 223.219 219.175 223.219 217.925C223.219 217.45 223.119 217.05 222.619 215.625L219.019 205.3H222.769L224.069 209.55C224.594 211.3 225.069 213.1 225.469 214.875H225.519C225.944 213.1 226.419 211.3 226.994 209.55L228.369 205.3H231.969ZM238.921 204.9C242.346 204.9 244.646 207.05 244.921 210.025H241.271C241.146 208.525 240.246 207.6 238.896 207.6C237.196 207.6 236.171 209.15 236.171 211.65C236.171 214.15 237.196 215.7 238.896 215.7C240.246 215.7 241.146 214.675 241.246 213.025H244.921C244.646 216.25 242.346 218.4 238.921 218.4C235.046 218.4 232.521 215.75 232.521 211.65C232.521 207.55 235.046 204.9 238.921 204.9ZM253.205 204.9C257.18 204.9 259.705 207.525 259.705 211.65C259.705 215.775 257.18 218.4 253.205 218.4C249.23 218.4 246.705 215.775 246.705 211.65C246.705 207.525 249.23 204.9 253.205 204.9ZM253.205 207.6C251.48 207.6 250.38 209.175 250.38 211.65C250.38 214.125 251.48 215.7 253.205 215.7C254.93 215.7 256.03 214.125 256.03 211.65C256.03 209.175 254.93 207.6 253.205 207.6ZM265.776 218H262.276V200.2H265.776V218Z" fill="black"/>
</g>
<g clip-path="url(#clip3_189_100)">
<path d="M837.464 120.617L847.544 113.036C856.6 106.214 869.651 111.623 871.249 122.85L873.011 135.348C873.933 141.925 879.096 147.088 885.673 148.01L898.171 149.772C909.398 151.349 914.807 164.4 907.985 173.477L900.404 183.557C896.409 188.863 896.409 196.157 900.404 201.464L907.985 211.544C914.807 220.6 909.398 233.651 898.171 235.249L885.673 237.011C879.096 237.933 873.933 243.096 873.011 249.673L871.249 262.17C869.672 273.398 856.621 278.807 847.544 271.984L837.464 264.404C832.158 260.408 824.864 260.408 819.557 264.404L809.477 271.984C800.421 278.807 787.37 273.398 785.772 262.17L784.01 249.673C783.088 243.096 777.925 237.933 771.348 237.011L758.851 235.249C747.623 233.671 742.214 220.62 749.037 211.544L756.617 201.464C760.613 196.157 760.613 188.863 756.617 183.557L749.037 173.477C742.214 164.421 747.623 151.37 758.851 149.772L771.348 148.01C777.925 147.088 783.088 141.925 784.01 135.348L785.772 122.85C787.35 111.623 800.401 106.214 809.477 113.036L819.557 120.617C824.864 124.612 832.158 124.612 837.464 120.617Z" fill="#5ECBF5" stroke="#2C5DAA" stroke-linecap="round" stroke-linejoin="round"/>
<path d="M775.29 174.9C778.715 174.9 781.015 177.05 781.29 180.025H777.64C777.515 178.525 776.615 177.6 775.265 177.6C773.565 177.6 772.54 179.15 772.54 181.65C772.54 184.15 773.565 185.7 775.265 185.7C776.615 185.7 777.515 184.675 777.615 183.025H781.29C781.015 186.25 778.715 188.4 775.29 188.4C771.415 188.4 768.89 185.75 768.89 181.65C768.89 177.55 771.415 174.9 775.29 174.9ZM789.574 174.9C793.549 174.9 796.074 177.525 796.074 181.65C796.074 185.775 793.549 188.4 789.574 188.4C785.599 188.4 783.074 185.775 783.074 181.65C783.074 177.525 785.599 174.9 789.574 174.9ZM789.574 177.6C787.849 177.6 786.749 179.175 786.749 181.65C786.749 184.125 787.849 185.7 789.574 185.7C791.299 185.7 792.399 184.125 792.399 181.65C792.399 179.175 791.299 177.6 789.574 177.6ZM804.389 185.925C805.789 185.925 806.714 185.175 806.889 184.15H810.464C809.964 186.475 807.764 188.4 804.389 188.4C800.389 188.4 798.064 185.6 798.064 181.55C798.064 177.8 800.389 174.9 804.364 174.9C807.289 174.9 809.439 176.55 810.239 179.125C810.514 180 810.639 180.975 810.639 182.375H801.514C801.614 185 802.889 185.925 804.389 185.925ZM804.364 177.375C802.939 177.375 801.864 178.25 801.589 180.175H807.139C806.914 178.25 805.764 177.375 804.364 177.375ZM820.271 175C823.121 175 824.946 176.75 824.946 180.2V188H821.446V180.55C821.446 178.625 820.596 177.75 819.221 177.75C817.771 177.75 816.721 178.9 816.721 181.2V188H813.221V175.3H816.496V176.9H816.546C817.371 175.775 818.646 175 820.271 175ZM837.661 178.15L831.436 185.2V185.25H837.911V188H827.211V185.15L833.436 178.1V178.05H827.461V175.3H837.661V178.15ZM851.395 175.3L846.845 188.075C845.57 191.65 843.97 192.775 840.795 192.775C840.17 192.775 839.495 192.7 838.97 192.575V189.775C839.32 189.9 839.795 189.975 840.32 189.975C841.72 189.975 842.645 189.175 842.645 187.925C842.645 187.45 842.545 187.05 842.045 185.625L838.445 175.3H842.195L843.495 179.55C844.02 181.3 844.495 183.1 844.895 184.875H844.945C845.37 183.1 845.845 181.3 846.42 179.55L847.795 175.3H851.395ZM867.618 175C870.343 175 872.068 176.75 872.068 180.2V188H868.568V180.55C868.568 178.625 867.793 177.75 866.568 177.75C865.068 177.75 864.243 179.075 864.243 181.475V188H860.743V180.325C860.743 178.7 860.043 177.75 858.743 177.75C857.218 177.75 856.418 179.1 856.418 181.475V188H852.918V175.3H856.218V176.75H856.268C857.193 175.55 858.268 175 859.793 175C861.568 175 862.868 175.75 863.568 177.175C864.518 175.825 865.668 175 867.618 175ZM880.854 185.925C882.254 185.925 883.179 185.175 883.354 184.15H886.929C886.429 186.475 884.229 188.4 880.854 188.4C876.854 188.4 874.529 185.6 874.529 181.55C874.529 177.8 876.854 174.9 880.829 174.9C883.754 174.9 885.904 176.55 886.704 179.125C886.979 180 887.104 180.975 887.104 182.375H877.979C878.079 185 879.354 185.925 880.854 185.925ZM880.829 177.375C879.404 177.375 878.329 178.25 878.054 180.175H883.604C883.379 178.25 882.229 177.375 880.829 177.375ZM808.808 204.975C810.283 204.975 811.683 205.675 812.458 206.975H812.508V205.3H815.908V222.625H812.408V216.475H812.358C811.583 217.675 810.208 218.325 808.758 218.325C805.583 218.325 803.533 215.7 803.533 211.65C803.533 207.6 805.608 204.975 808.808 204.975ZM809.933 207.65C808.258 207.65 807.183 209.225 807.183 211.65C807.183 214.075 808.258 215.65 809.933 215.65C811.508 215.65 812.583 214.175 812.583 211.65C812.583 209.125 811.508 207.65 809.933 207.65ZM833.436 218H829.836V206.575H825.761V204.025C828.586 204.025 829.861 203.175 830.161 201.15H833.436V218ZM845.852 200.75C850.177 200.75 852.577 203.95 852.577 209.575C852.577 215.225 850.177 218.4 845.852 218.4C841.527 218.4 839.127 215.225 839.127 209.575C839.127 203.95 841.527 200.75 845.852 200.75ZM845.852 203.775C843.927 203.775 842.877 205.875 842.877 209.575C842.877 213.325 843.927 215.425 845.852 215.425C847.777 215.425 848.827 213.325 848.827 209.575C848.827 205.875 847.777 203.775 845.852 203.775Z" fill="black"/>
</g>
<g clip-path="url(#clip4_189_100)">
<path d="M986.464 11.6169L996.544 4.03621C1005.6 -2.78639 1018.65 2.62252 1020.25 13.8501L1022.01 26.348C1022.93 32.9247 1028.1 38.0877 1034.67 39.0097L1047.17 40.7717C1058.4 42.3493 1063.81 55.4003 1056.98 64.4766L1049.4 74.5569C1045.41 79.8633 1045.41 87.1572 1049.4 92.4636L1056.98 102.544C1063.81 111.6 1058.4 124.651 1047.17 126.249L1034.67 128.011C1028.1 128.933 1022.93 134.096 1022.01 140.673L1020.25 153.17C1018.67 164.398 1005.62 169.807 996.544 162.984L986.464 155.404C981.158 151.408 973.864 151.408 968.557 155.404L958.477 162.984C949.421 169.807 936.37 164.398 934.772 153.17L933.01 140.673C932.088 134.096 926.925 128.933 920.348 128.011L907.851 126.249C896.623 124.671 891.214 111.62 898.037 102.544L905.617 92.4636C909.613 87.1572 909.613 79.8633 905.617 74.5569L898.037 64.4766C891.214 55.4208 896.623 42.3698 907.851 40.7717L920.348 39.0097C926.925 38.0877 932.088 32.9247 933.01 26.348L934.772 13.8501C936.35 2.62252 949.401 -2.78639 958.477 4.03621L968.557 11.6169C973.864 15.6121 981.158 15.6121 986.464 11.6169Z" fill="#5ECBF5" stroke="#2C5DAA" stroke-linecap="round" stroke-linejoin="round"/>
<path d="M936.8 79.975C940 79.975 942.075 82.6 942.075 86.65C942.075 90.7 940.025 93.325 936.85 93.325C935.4 93.325 934.025 92.675 933.25 91.475H933.2V97.625H929.7V80.3H933.1V81.975H933.15C933.925 80.675 935.325 79.975 936.8 79.975ZM935.675 82.65C934.1 82.65 933.025 84.125 933.025 86.65C933.025 89.175 934.1 90.65 935.675 90.65C937.35 90.65 938.425 89.075 938.425 86.65C938.425 84.225 937.35 82.65 935.675 82.65ZM950.386 90.925C951.786 90.925 952.711 90.175 952.886 89.15H956.461C955.961 91.475 953.761 93.4 950.386 93.4C946.386 93.4 944.061 90.6 944.061 86.55C944.061 82.8 946.386 79.9 950.361 79.9C953.286 79.9 955.436 81.55 956.236 84.125C956.511 85 956.636 85.975 956.636 87.375H947.511C947.611 90 948.886 90.925 950.386 90.925ZM950.361 82.375C948.936 82.375 947.861 83.25 947.586 85.175H953.136C952.911 83.25 951.761 82.375 950.361 82.375ZM965.967 80.1C966.317 80.1 966.767 80.15 967.117 80.25V83.275C966.717 83.2 966.367 83.15 966.017 83.15C963.867 83.15 962.717 84.5 962.717 87V93H959.217V80.3H962.442V82.1H962.492C963.342 80.725 964.467 80.1 965.967 80.1ZM975.201 77.6C973.976 77.6 973.351 78.125 973.351 79.575V80.3H975.751V82.9H973.351V93H969.901V82.9H967.801V80.3H969.901V79.15C969.901 76.375 971.376 75 974.101 75C974.701 75 975.401 75.1 975.826 75.2V77.675C975.676 77.625 975.426 77.6 975.201 77.6ZM982.321 93.3C979.471 93.3 977.646 91.55 977.646 88.1V80.3H981.146V87.75C981.146 89.675 981.996 90.55 983.371 90.55C984.821 90.55 985.871 89.4 985.871 87.1V80.3H989.371V93H986.096V91.4H986.046C985.221 92.525 983.946 93.3 982.321 93.3ZM1007.46 80C1010.19 80 1011.91 81.75 1011.91 85.2V93H1008.41V85.55C1008.41 83.625 1007.64 82.75 1006.41 82.75C1004.91 82.75 1004.09 84.075 1004.09 86.475V93H1000.59V85.325C1000.59 83.7 999.887 82.75 998.587 82.75C997.062 82.75 996.262 84.1 996.262 86.475V93H992.762V80.3H996.062V81.75H996.112C997.037 80.55 998.112 80 999.637 80C1001.41 80 1002.71 80.75 1003.41 82.175C1004.36 80.825 1005.51 80 1007.46 80ZM1020.7 90.925C1022.1 90.925 1023.02 90.175 1023.2 89.15H1026.77C1026.27 91.475 1024.07 93.4 1020.7 93.4C1016.7 93.4 1014.37 90.6 1014.37 86.55C1014.37 82.8 1016.7 79.9 1020.67 79.9C1023.6 79.9 1025.75 81.55 1026.55 84.125C1026.82 85 1026.95 85.975 1026.95 87.375H1017.82C1017.92 90 1019.2 90.925 1020.7 90.925ZM1020.67 82.375C1019.25 82.375 1018.17 83.25 1017.9 85.175H1023.45C1023.22 83.25 1022.07 82.375 1020.67 82.375Z" fill="black"/>
</g>
<g clip-path="url(#clip5_189_100)">
<path d="M92.4641 11.6169L102.544 4.03621C111.6 -2.78639 124.651 2.62252 126.249 13.8501L128.011 26.348C128.933 32.9247 134.096 38.0877 140.673 39.0097L153.171 40.7717C164.398 42.3493 169.807 55.4003 162.985 64.4766L155.404 74.5569C151.409 79.8633 151.409 87.1572 155.404 92.4636L162.985 102.544C169.807 111.6 164.398 124.651 153.171 126.249L140.673 128.011C134.096 128.933 128.933 134.096 128.011 140.673L126.249 153.17C124.672 164.398 111.621 169.807 102.544 162.984L92.4641 155.404C87.1576 151.408 79.8638 151.408 74.5573 155.404L64.4771 162.984C55.4213 169.807 42.3702 164.398 40.7721 153.17L39.0101 140.673C38.0882 134.096 32.9251 128.933 26.3484 128.011L13.8505 126.249C2.62295 124.671 -2.78596 111.62 4.03664 102.544L11.6173 92.4636C15.6125 87.1572 15.6125 79.8633 11.6173 74.5569L4.03664 64.4766C-2.78596 55.4208 2.62295 42.3698 13.8505 40.7717L26.3484 39.0097C32.9251 38.0877 38.0882 32.9247 39.0101 26.348L40.7721 13.8501C42.3497 2.62252 55.4008 -2.78639 64.4771 4.03621L74.5573 11.6169C79.8638 15.6121 87.1576 15.6121 92.4641 11.6169Z" fill="#5ECBF5" stroke="#2C5DAA" stroke-linecap="round" stroke-linejoin="round"/>
</g>
<g clip-path="url(#clip6_189_100)">
<path d="M390.464 11.6169L400.544 4.03621C409.6 -2.78639 422.651 2.62252 424.249 13.8501L426.011 26.348C426.933 32.9247 432.096 38.0877 438.673 39.0097L451.171 40.7717C462.398 42.3493 467.807 55.4003 460.985 64.4766L453.404 74.5569C449.409 79.8633 449.409 87.1572 453.404 92.4636L460.985 102.544C467.807 111.6 462.398 124.651 451.171 126.249L438.673 128.011C432.096 128.933 426.933 134.096 426.011 140.673L424.249 153.17C422.672 164.398 409.621 169.807 400.544 162.984L390.464 155.404C385.158 151.408 377.864 151.408 372.557 155.404L362.477 162.984C353.421 169.807 340.37 164.398 338.772 153.17L337.01 140.673C336.088 134.096 330.925 128.933 324.348 128.011L311.851 126.249C300.623 124.671 295.214 111.62 302.037 102.544L309.617 92.4636C313.613 87.1572 313.613 79.8633 309.617 74.5569L302.037 64.4766C295.214 55.4208 300.623 42.3698 311.851 40.7717L324.348 39.0097C330.925 38.0877 336.088 32.9247 337.01 26.348L338.772 13.8501C340.35 2.62252 353.401 -2.78639 362.477 4.03621L372.557 11.6169C377.864 15.6121 385.158 15.6121 390.464 11.6169Z" fill="#5ECBF5" stroke="#2C5DAA" stroke-linecap="round" stroke-linejoin="round"/>
<path d="M353.425 79.9C356.75 79.9 358.75 81.375 358.75 84.2H355.4C355.4 82.9 354.65 82.35 353.4 82.35C352.275 82.35 351.675 82.8 351.675 83.525C351.675 84.425 352.475 84.65 354.4 85.15C356.675 85.75 359.175 86.325 359.175 89.425C359.175 91.8 357.025 93.4 353.575 93.4C350.05 93.4 347.875 91.95 347.875 88.875H351.425C351.425 90.15 352.2 90.875 353.65 90.875C354.875 90.875 355.5 90.4 355.5 89.65C355.5 88.55 354.55 88.325 352.575 87.8C350.45 87.25 348.175 86.75 348.175 83.8C348.175 81.525 350.275 79.9 353.425 79.9ZM366.36 93.3C363.51 93.3 361.685 91.55 361.685 88.1V80.3H365.185V87.75C365.185 89.675 366.035 90.55 367.41 90.55C368.86 90.55 369.91 89.4 369.91 87.1V80.3H373.41V93H370.135V91.4H370.085C369.26 92.525 367.985 93.3 366.36 93.3ZM380.301 93H376.801V75.2H380.301V93ZM389.66 77.6C388.435 77.6 387.81 78.125 387.81 79.575V80.3H390.21V82.9H387.81V93H384.36V82.9H382.26V80.3H384.36V79.15C384.36 76.375 385.835 75 388.56 75C389.16 75 389.86 75.1 390.285 75.2V77.675C390.135 77.625 389.885 77.6 389.66 77.6ZM396.78 93.3C393.93 93.3 392.105 91.55 392.105 88.1V80.3H395.605V87.75C395.605 89.675 396.455 90.55 397.83 90.55C399.28 90.55 400.33 89.4 400.33 87.1V80.3H403.83V93H400.555V91.4H400.505C399.68 92.525 398.405 93.3 396.78 93.3ZM413.971 80.1C414.321 80.1 414.771 80.15 415.121 80.25V83.275C414.721 83.2 414.371 83.15 414.021 83.15C411.871 83.15 410.721 84.5 410.721 87V93H407.221V80.3H410.446V82.1H410.496C411.346 80.725 412.471 80.1 413.971 80.1Z" fill="black"/>
</g>
<g clip-path="url(#clip7_189_100)">
<path d="M688.464 11.6169L698.544 4.03621C707.6 -2.78639 720.651 2.62252 722.249 13.8501L724.011 26.348C724.933 32.9247 730.096 38.0877 736.673 39.0097L749.171 40.7717C760.398 42.3493 765.807 55.4003 758.985 64.4766L751.404 74.5569C747.409 79.8633 747.409 87.1572 751.404 92.4636L758.985 102.544C765.807 111.6 760.398 124.651 749.171 126.249L736.673 128.011C730.096 128.933 724.933 134.096 724.011 140.673L722.249 153.17C720.672 164.398 707.621 169.807 698.544 162.984L688.464 155.404C683.158 151.408 675.864 151.408 670.557 155.404L660.477 162.984C651.421 169.807 638.37 164.398 636.772 153.17L635.01 140.673C634.088 134.096 628.925 128.933 622.348 128.011L609.851 126.249C598.623 124.671 593.214 111.62 600.037 102.544L607.617 92.4636C611.613 87.1572 611.613 79.8633 607.617 74.5569L600.037 64.4766C593.214 55.4208 598.623 42.3698 609.851 40.7717L622.348 39.0097C628.925 38.0877 634.088 32.9247 635.01 26.348L636.772 13.8501C638.35 2.62252 651.401 -2.78639 660.477 4.03621L670.557 11.6169C675.864 15.6121 683.158 15.6121 688.464 11.6169Z" fill="#5ECBF5" stroke="#2C5DAA" stroke-linecap="round" stroke-linejoin="round"/>
<path d="M654.601 65.9C657.926 65.9 659.926 67.375 659.926 70.2H656.576C656.576 68.9 655.826 68.35 654.576 68.35C653.451 68.35 652.851 68.8 652.851 69.525C652.851 70.425 653.651 70.65 655.576 71.15C657.851 71.75 660.351 72.325 660.351 75.425C660.351 77.8 658.201 79.4 654.751 79.4C651.226 79.4 649.051 77.95 649.051 74.875H652.601C652.601 76.15 653.376 76.875 654.826 76.875C656.051 76.875 656.676 76.4 656.676 75.65C656.676 74.55 655.726 74.325 653.751 73.8C651.626 73.25 649.351 72.75 649.351 69.8C649.351 67.525 651.451 65.9 654.601 65.9ZM666.487 64.2H662.987V61.2H666.487V64.2ZM666.487 79H662.987V66.3H666.487V79ZM673.396 79H669.896V61.2H673.396V79ZM683.755 79H679.205L674.93 66.3H678.58L680.055 71.3C680.58 73.1 681.055 74.95 681.455 76.8H681.505C681.905 74.95 682.38 73.1 682.905 71.3L684.38 66.3H688.03L683.755 79ZM694.903 76.925C696.303 76.925 697.228 76.175 697.403 75.15H700.978C700.478 77.475 698.278 79.4 694.903 79.4C690.903 79.4 688.578 76.6 688.578 72.55C688.578 68.8 690.903 65.9 694.878 65.9C697.803 65.9 699.953 67.55 700.753 70.125C701.028 71 701.153 71.975 701.153 73.375H692.028C692.128 76 693.403 76.925 694.903 76.925ZM694.878 68.375C693.453 68.375 692.378 69.25 692.103 71.175H697.653C697.428 69.25 696.278 68.375 694.878 68.375ZM710.484 66.1C710.834 66.1 711.284 66.15 711.634 66.25V69.275C711.234 69.2 710.884 69.15 710.534 69.15C708.384 69.15 707.234 70.5 707.234 73V79H703.734V66.3H706.959V68.1H707.009C707.859 66.725 708.984 66.1 710.484 66.1ZM642.986 95.9C646.586 95.9 648.436 97.6 648.436 100.925V105.525C648.436 107.125 648.561 108.15 648.786 109H645.636C645.511 108.475 645.461 107.925 645.461 107.3H645.411C644.461 108.65 643.036 109.3 641.286 109.3C638.586 109.3 636.961 107.65 636.961 105.45C636.961 103.375 638.211 101.975 641.886 101.4C642.836 101.25 644.261 101.1 645.061 101.05V100.6C645.061 99 644.211 98.35 642.986 98.35C641.686 98.35 640.936 99.075 640.886 100.275H637.486C637.611 97.85 639.361 95.9 642.986 95.9ZM645.061 103.65V103.175C644.311 103.225 643.261 103.325 642.511 103.45C641.061 103.7 640.461 104.175 640.461 105.2C640.461 106.15 641.111 106.8 642.336 106.8C643.061 106.8 643.836 106.575 644.336 106.075C644.936 105.475 645.061 104.8 645.061 103.65ZM657.258 95.9C660.683 95.9 662.983 98.05 663.258 101.025H659.608C659.483 99.525 658.583 98.6 657.233 98.6C655.533 98.6 654.508 100.15 654.508 102.65C654.508 105.15 655.533 106.7 657.233 106.7C658.583 106.7 659.483 105.675 659.583 104.025H663.258C662.983 107.25 660.683 109.4 657.258 109.4C653.383 109.4 650.858 106.75 650.858 102.65C650.858 98.55 653.383 95.9 657.258 95.9ZM671.367 106.925C672.767 106.925 673.692 106.175 673.867 105.15H677.442C676.942 107.475 674.742 109.4 671.367 109.4C667.367 109.4 665.042 106.6 665.042 102.55C665.042 98.8 667.367 95.9 671.342 95.9C674.267 95.9 676.417 97.55 677.217 100.125C677.492 101 677.617 101.975 677.617 103.375H668.492C668.592 106 669.867 106.925 671.367 106.925ZM671.342 98.375C669.917 98.375 668.842 99.25 668.567 101.175H674.117C673.892 99.25 672.742 98.375 671.342 98.375ZM685.801 106.375C686.126 106.375 686.476 106.325 686.701 106.25V108.925C686.226 109.075 685.451 109.175 684.851 109.175C681.926 109.175 680.651 108 680.651 105.05V98.9H678.601V96.3H680.651V93H684.151V96.3H686.576V98.9H684.151V104.425C684.151 105.825 684.601 106.375 685.801 106.375ZM694.011 95.9C697.611 95.9 699.461 97.6 699.461 100.925V105.525C699.461 107.125 699.586 108.15 699.811 109H696.661C696.536 108.475 696.486 107.925 696.486 107.3H696.436C695.486 108.65 694.061 109.3 692.311 109.3C689.611 109.3 687.986 107.65 687.986 105.45C687.986 103.375 689.236 101.975 692.911 101.4C693.861 101.25 695.286 101.1 696.086 101.05V100.6C696.086 99 695.236 98.35 694.011 98.35C692.711 98.35 691.961 99.075 691.911 100.275H688.511C688.636 97.85 690.386 95.9 694.011 95.9ZM696.086 103.65V103.175C695.336 103.225 694.286 103.325 693.536 103.45C692.086 103.7 691.486 104.175 691.486 105.2C691.486 106.15 692.136 106.8 693.361 106.8C694.086 106.8 694.861 106.575 695.361 106.075C695.961 105.475 696.086 104.8 696.086 103.65ZM708.164 106.375C708.489 106.375 708.839 106.325 709.064 106.25V108.925C708.589 109.075 707.814 109.175 707.214 109.175C704.289 109.175 703.014 108 703.014 105.05V98.9H700.964V96.3H703.014V93H706.514V96.3H708.939V98.9H706.514V104.425C706.514 105.825 706.964 106.375 708.164 106.375ZM716.558 106.925C717.958 106.925 718.883 106.175 719.058 105.15H722.633C722.133 107.475 719.933 109.4 716.558 109.4C712.558 109.4 710.233 106.6 710.233 102.55C710.233 98.8 712.558 95.9 716.533 95.9C719.458 95.9 721.608 97.55 722.408 100.125C722.683 101 722.808 101.975 722.808 103.375H713.683C713.783 106 715.058 106.925 716.558 106.925ZM716.533 98.375C715.108 98.375 714.033 99.25 713.758 101.175H719.308C719.083 99.25 717.933 98.375 716.533 98.375Z" fill="black"/>
</g>
<path d="M59.7746 78.9C63.3746 78.9 65.2246 80.6 65.2246 83.925V88.525C65.2246 90.125 65.3496 91.15 65.5746 92H62.4246C62.2996 91.475 62.2496 90.925 62.2496 90.3H62.1996C61.2496 91.65 59.8246 92.3 58.0746 92.3C55.3746 92.3 53.7496 90.65 53.7496 88.45C53.7496 86.375 54.9996 84.975 58.6746 84.4C59.6246 84.25 61.0496 84.1 61.8496 84.05V83.6C61.8496 82 60.9996 81.35 59.7746 81.35C58.4746 81.35 57.7246 82.075 57.6746 83.275H54.2746C54.3996 80.85 56.1496 78.9 59.7746 78.9ZM61.8496 86.65V86.175C61.0996 86.225 60.0496 86.325 59.2996 86.45C57.8496 86.7 57.2496 87.175 57.2496 88.2C57.2496 89.15 57.8996 89.8 59.1246 89.8C59.8496 89.8 60.6246 89.575 61.1246 89.075C61.7246 88.475 61.8496 87.8 61.8496 86.65ZM72.9215 78.975C74.3965 78.975 75.7965 79.675 76.5715 80.975H76.6215V79.3H80.0215V96.625H76.5215V90.475H76.4715C75.6965 91.675 74.3215 92.325 72.8715 92.325C69.6965 92.325 67.6465 89.7 67.6465 85.65C67.6465 81.6 69.7215 78.975 72.9215 78.975ZM74.0465 81.65C72.3715 81.65 71.2965 83.225 71.2965 85.65C71.2965 88.075 72.3715 89.65 74.0465 89.65C75.6215 89.65 76.6965 88.175 76.6965 85.65C76.6965 83.125 75.6215 81.65 74.0465 81.65ZM87.9629 92.3C85.1129 92.3 83.2879 90.55 83.2879 87.1V79.3H86.7879V86.75C86.7879 88.675 87.6379 89.55 89.0129 89.55C90.4629 89.55 91.5129 88.4 91.5129 86.1V79.3H95.0129V92H91.7379V90.4H91.6879C90.8629 91.525 89.5879 92.3 87.9629 92.3ZM103.378 78.9C106.978 78.9 108.828 80.6 108.828 83.925V88.525C108.828 90.125 108.953 91.15 109.178 92H106.028C105.903 91.475 105.853 90.925 105.853 90.3H105.803C104.853 91.65 103.428 92.3 101.678 92.3C98.9781 92.3 97.3531 90.65 97.3531 88.45C97.3531 86.375 98.6031 84.975 102.278 84.4C103.228 84.25 104.653 84.1 105.453 84.05V83.6C105.453 82 104.603 81.35 103.378 81.35C102.078 81.35 101.328 82.075 101.278 83.275H97.8781C98.0031 80.85 99.7531 78.9 103.378 78.9ZM105.453 86.65V86.175C104.703 86.225 103.653 86.325 102.903 86.45C101.453 86.7 100.853 87.175 100.853 88.2C100.853 89.15 101.503 89.8 102.728 89.8C103.453 89.8 104.228 89.575 104.728 89.075C105.328 88.475 105.453 87.8 105.453 86.65Z" fill="black"/>
</g>
<defs>
<clipPath id="clip0_189_100">
<rect width="1061" height="276" fill="white"/>
</clipPath>
<clipPath id="clip1_189_100">
<rect width="167" height="167" fill="white" transform="translate(447 109)"/>
</clipPath>
<clipPath id="clip2_189_100">
<rect width="167" height="167" fill="white" transform="translate(149 109)"/>
</clipPath>
<clipPath id="clip3_189_100">
<rect width="167" height="167" fill="white" transform="translate(745 109)"/>
</clipPath>
<clipPath id="clip4_189_100">
<rect width="167" height="167" fill="white" transform="translate(894)"/>
</clipPath>
<clipPath id="clip5_189_100">
<rect width="167" height="167" fill="white"/>
</clipPath>
<clipPath id="clip6_189_100">
<rect width="167" height="167" fill="white" transform="translate(298)"/>
</clipPath>
<clipPath id="clip7_189_100">
<rect width="167" height="167" fill="white" transform="translate(596)"/>
</clipPath>
</defs>
</svg>
