<svg width="244" height="517" viewBox="0 0 244 517" fill="none" xmlns="http://www.w3.org/2000/svg">
<g clip-path="url(#clip0_188_26)">
<path d="M194.012 73.7909L200.772 68.7069C206.845 64.1313 215.598 67.7588 216.67 75.2887L217.852 83.6705C218.47 88.0812 221.933 91.5439 226.343 92.1622L234.725 93.3439C242.255 94.4019 245.883 103.155 241.307 109.242L236.223 116.002C233.543 119.561 233.543 124.453 236.223 128.012L241.307 134.772C245.883 140.845 242.255 149.598 234.725 150.67L226.343 151.852C221.933 152.47 218.47 155.933 217.852 160.343L216.67 168.725C215.612 176.255 206.859 179.882 200.772 175.307L194.012 170.223C190.453 167.543 185.561 167.543 182.002 170.223L175.242 175.307C169.169 179.882 160.416 176.255 159.344 168.725L158.162 160.343C157.544 155.933 154.081 152.47 149.671 151.852L141.289 150.67C133.759 149.612 130.131 140.859 134.707 134.772L139.791 128.012C142.47 124.453 142.47 119.561 139.791 116.002L134.707 109.242C130.131 103.168 133.759 94.4156 141.289 93.3439L149.671 92.1622C154.081 91.5439 157.544 88.0812 158.162 83.6705L159.344 75.2887C160.402 67.7588 169.155 64.1313 175.242 68.7069L182.002 73.7909C185.561 76.4704 190.453 76.4704 194.012 73.7909Z" fill="#5ECBF5" stroke="#2C5DAA" stroke-linecap="round" stroke-linejoin="round"/>
<path d="M158.726 111.185C160.646 111.185 161.891 112.76 161.891 115.19C161.891 117.62 160.661 119.195 158.756 119.195C157.886 119.195 157.061 118.805 156.596 118.085H156.566V121.775H154.466V111.38H156.506V112.385H156.536C157.001 111.605 157.841 111.185 158.726 111.185ZM158.051 112.79C157.106 112.79 156.461 113.675 156.461 115.19C156.461 116.705 157.106 117.59 158.051 117.59C159.056 117.59 159.701 116.645 159.701 115.19C159.701 113.735 159.056 112.79 158.051 112.79ZM167.481 111.26C167.691 111.26 167.961 111.29 168.171 111.35V113.165C167.931 113.12 167.721 113.09 167.511 113.09C166.221 113.09 165.531 113.9 165.531 115.4V119H163.431V111.38H165.366V112.46H165.396C165.906 111.635 166.581 111.26 167.481 111.26ZM172.534 111.14C174.919 111.14 176.434 112.715 176.434 115.19C176.434 117.665 174.919 119.24 172.534 119.24C170.149 119.24 168.634 117.665 168.634 115.19C168.634 112.715 170.149 111.14 172.534 111.14ZM172.534 112.76C171.499 112.76 170.839 113.705 170.839 115.19C170.839 116.675 171.499 117.62 172.534 117.62C173.569 117.62 174.229 116.675 174.229 115.19C174.229 113.705 173.569 112.76 172.534 112.76ZM182.237 111.185C184.157 111.185 185.402 112.76 185.402 115.19C185.402 117.62 184.172 119.195 182.267 119.195C181.397 119.195 180.572 118.805 180.107 118.085H180.077V121.775H177.977V111.38H180.017V112.385H180.047C180.512 111.605 181.352 111.185 182.237 111.185ZM181.562 112.79C180.617 112.79 179.972 113.675 179.972 115.19C179.972 116.705 180.617 117.59 181.562 117.59C182.567 117.59 183.212 116.645 183.212 115.19C183.212 113.735 182.567 112.79 181.562 112.79ZM193.323 111.38L190.593 119.045C189.828 121.19 188.868 121.865 186.963 121.865C186.588 121.865 186.183 121.82 185.868 121.745V120.065C186.078 120.14 186.363 120.185 186.678 120.185C187.518 120.185 188.073 119.705 188.073 118.955C188.073 118.67 188.013 118.43 187.713 117.575L185.553 111.38H187.803L188.583 113.93C188.898 114.98 189.183 116.06 189.423 117.125H189.453C189.708 116.06 189.993 114.98 190.338 113.93L191.163 111.38H193.323ZM196.337 119H194.237V108.32H196.337V119ZM201.682 117.755C202.522 117.755 203.077 117.305 203.182 116.69H205.327C205.027 118.085 203.707 119.24 201.682 119.24C199.282 119.24 197.887 117.56 197.887 115.13C197.887 112.88 199.282 111.14 201.667 111.14C203.422 111.14 204.712 112.13 205.192 113.675C205.357 114.2 205.432 114.785 205.432 115.625H199.957C200.017 117.2 200.782 117.755 201.682 117.755ZM201.667 112.625C200.812 112.625 200.167 113.15 200.002 114.305H203.332C203.197 113.15 202.507 112.625 201.667 112.625ZM211.211 111.2C212.921 111.2 214.016 112.25 214.016 114.32V119H211.916V114.53C211.916 113.375 211.406 112.85 210.581 112.85C209.711 112.85 209.081 113.54 209.081 114.92V119H206.981V111.38H208.946V112.34H208.976C209.471 111.665 210.236 111.2 211.211 111.2ZM219.275 117.755C220.115 117.755 220.67 117.305 220.775 116.69H222.92C222.62 118.085 221.3 119.24 219.275 119.24C216.875 119.24 215.48 117.56 215.48 115.13C215.48 112.88 216.875 111.14 219.26 111.14C221.015 111.14 222.305 112.13 222.785 113.675C222.95 114.2 223.025 114.785 223.025 115.625H217.55C217.61 117.2 218.375 117.755 219.275 117.755ZM219.26 112.625C218.405 112.625 217.76 113.15 217.595 114.305H220.925C220.79 113.15 220.1 112.625 219.26 112.625ZM171.184 129.17C172.114 129.17 172.759 129.53 173.344 130.4H173.374V129.38H175.354V136.52C175.354 138.83 173.929 139.91 171.739 139.91C169.639 139.91 168.484 138.98 168.364 137.48H170.464C170.509 138.065 170.989 138.41 171.784 138.41C172.729 138.41 173.314 137.93 173.314 136.445V135.77H173.284C172.714 136.565 172.069 136.91 171.154 136.91C169.249 136.91 168.034 135.41 168.034 133.04C168.034 130.67 169.264 129.17 171.184 129.17ZM171.754 130.895C170.824 130.895 170.224 131.72 170.224 133.04C170.224 134.36 170.824 135.185 171.754 135.185C172.744 135.185 173.374 134.33 173.374 133.04C173.374 131.75 172.744 130.895 171.754 130.895ZM179.491 137H177.391V126.32H179.491V137ZM188.182 129.38L185.452 137.045C184.687 139.19 183.727 139.865 181.822 139.865C181.447 139.865 181.042 139.82 180.727 139.745V138.065C180.937 138.14 181.222 138.185 181.537 138.185C182.377 138.185 182.932 137.705 182.932 136.955C182.932 136.67 182.872 136.43 182.572 135.575L180.412 129.38H182.662L183.442 131.93C183.757 132.98 184.042 134.06 184.282 135.125H184.312C184.567 134.06 184.852 132.98 185.197 131.93L186.022 129.38H188.182ZM192.352 129.14C194.407 129.14 195.787 130.43 195.952 132.215H193.762C193.687 131.315 193.147 130.76 192.337 130.76C191.317 130.76 190.702 131.69 190.702 133.19C190.702 134.69 191.317 135.62 192.337 135.62C193.147 135.62 193.687 135.005 193.747 134.015H195.952C195.787 135.95 194.407 137.24 192.352 137.24C190.027 137.24 188.512 135.65 188.512 133.19C188.512 130.73 190.027 129.14 192.352 129.14ZM200.923 129.14C203.308 129.14 204.823 130.715 204.823 133.19C204.823 135.665 203.308 137.24 200.923 137.24C198.538 137.24 197.023 135.665 197.023 133.19C197.023 130.715 198.538 129.14 200.923 129.14ZM200.923 130.76C199.888 130.76 199.228 131.705 199.228 133.19C199.228 134.675 199.888 135.62 200.923 135.62C201.958 135.62 202.618 134.675 202.618 133.19C202.618 131.705 201.958 130.76 200.923 130.76ZM208.466 137H206.366V126.32H208.466V137Z" fill="black"/>
</g>
<g clip-path="url(#clip1_188_26)">
<path d="M194.012 341.791L200.772 336.707C206.845 332.131 215.598 335.759 216.67 343.289L217.852 351.67C218.47 356.081 221.933 359.544 226.343 360.162L234.725 361.344C242.255 362.402 245.883 371.155 241.307 377.242L236.223 384.002C233.543 387.561 233.543 392.453 236.223 396.012L241.307 402.772C245.883 408.845 242.255 417.598 234.725 418.67L226.343 419.852C221.933 420.47 218.47 423.933 217.852 428.343L216.67 436.725C215.612 444.255 206.859 447.882 200.772 443.307L194.012 438.223C190.453 435.543 185.561 435.543 182.002 438.223L175.242 443.307C169.169 447.882 160.416 444.255 159.344 436.725L158.162 428.343C157.544 423.933 154.081 420.47 149.671 419.852L141.289 418.67C133.759 417.612 130.131 408.859 134.707 402.772L139.791 396.012C142.47 392.453 142.47 387.561 139.791 384.002L134.707 377.242C130.131 371.168 133.759 362.416 141.289 361.344L149.671 360.162C154.081 359.544 157.544 356.081 158.162 351.67L159.344 343.289C160.402 335.759 169.155 332.131 175.242 336.707L182.002 341.791C185.561 344.47 190.453 344.47 194.012 341.791Z" fill="#5ECBF5" stroke="#2C5DAA" stroke-linecap="round" stroke-linejoin="round"/>
<path d="M156.374 379.14C158.429 379.14 159.809 380.43 159.974 382.215H157.784C157.709 381.315 157.169 380.76 156.359 380.76C155.339 380.76 154.724 381.69 154.724 383.19C154.724 384.69 155.339 385.62 156.359 385.62C157.169 385.62 157.709 385.005 157.769 384.015H159.974C159.809 385.95 158.429 387.24 156.374 387.24C154.049 387.24 152.534 385.65 152.534 383.19C152.534 380.73 154.049 379.14 156.374 379.14ZM164.945 379.14C167.33 379.14 168.845 380.715 168.845 383.19C168.845 385.665 167.33 387.24 164.945 387.24C162.56 387.24 161.045 385.665 161.045 383.19C161.045 380.715 162.56 379.14 164.945 379.14ZM164.945 380.76C163.91 380.76 163.25 381.705 163.25 383.19C163.25 384.675 163.91 385.62 164.945 385.62C165.98 385.62 166.64 384.675 166.64 383.19C166.64 381.705 165.98 380.76 164.945 380.76ZM173.834 385.755C174.674 385.755 175.229 385.305 175.334 384.69H177.479C177.179 386.085 175.859 387.24 173.834 387.24C171.434 387.24 170.039 385.56 170.039 383.13C170.039 380.88 171.434 379.14 173.819 379.14C175.574 379.14 176.864 380.13 177.344 381.675C177.509 382.2 177.584 382.785 177.584 383.625H172.109C172.169 385.2 172.934 385.755 173.834 385.755ZM173.819 380.625C172.964 380.625 172.319 381.15 172.154 382.305H175.484C175.349 381.15 174.659 380.625 173.819 380.625ZM183.362 379.2C185.072 379.2 186.167 380.25 186.167 382.32V387H184.067V382.53C184.067 381.375 183.557 380.85 182.732 380.85C181.862 380.85 181.232 381.54 181.232 382.92V387H179.132V379.38H181.097V380.34H181.127C181.622 379.665 182.387 379.2 183.362 379.2ZM193.796 381.09L190.061 385.32V385.35H193.946V387H187.526V385.29L191.261 381.06V381.03H187.676V379.38H193.796V381.09ZM202.037 379.38L199.307 387.045C198.542 389.19 197.582 389.865 195.677 389.865C195.302 389.865 194.897 389.82 194.582 389.745V388.065C194.792 388.14 195.077 388.185 195.392 388.185C196.232 388.185 196.787 387.705 196.787 386.955C196.787 386.67 196.727 386.43 196.427 385.575L194.267 379.38H196.517L197.297 381.93C197.612 382.98 197.897 384.06 198.137 385.125H198.167C198.422 384.06 198.707 382.98 199.052 381.93L199.877 379.38H202.037ZM211.771 379.2C213.406 379.2 214.441 380.25 214.441 382.32V387H212.341V382.53C212.341 381.375 211.876 380.85 211.141 380.85C210.241 380.85 209.746 381.645 209.746 383.085V387H207.646V382.395C207.646 381.42 207.226 380.85 206.446 380.85C205.531 380.85 205.051 381.66 205.051 383.085V387H202.951V379.38H204.931V380.25H204.961C205.516 379.53 206.161 379.2 207.076 379.2C208.141 379.2 208.921 379.65 209.341 380.505C209.911 379.695 210.601 379.2 211.771 379.2ZM219.713 385.755C220.553 385.755 221.108 385.305 221.213 384.69H223.358C223.058 386.085 221.738 387.24 219.713 387.24C217.313 387.24 215.918 385.56 215.918 383.13C215.918 380.88 217.313 379.14 219.698 379.14C221.453 379.14 222.743 380.13 223.223 381.675C223.388 382.2 223.463 382.785 223.463 383.625H217.988C218.048 385.2 218.813 385.755 219.713 385.755ZM219.698 380.625C218.843 380.625 218.198 381.15 218.033 382.305H221.363C221.228 381.15 220.538 380.625 219.698 380.625ZM176.485 397.185C177.37 397.185 178.21 397.605 178.675 398.385H178.705V397.38H180.745V407.775H178.645V404.085H178.615C178.15 404.805 177.325 405.195 176.455 405.195C174.55 405.195 173.32 403.62 173.32 401.19C173.32 398.76 174.565 397.185 176.485 397.185ZM177.16 398.79C176.155 398.79 175.51 399.735 175.51 401.19C175.51 402.645 176.155 403.59 177.16 403.59C178.105 403.59 178.75 402.705 178.75 401.19C178.75 399.675 178.105 398.79 177.16 398.79ZM191.262 405H189.102V398.145H186.657V396.615C188.352 396.615 189.117 396.105 189.297 394.89H191.262V405ZM198.711 394.65C201.306 394.65 202.746 396.57 202.746 399.945C202.746 403.335 201.306 405.24 198.711 405.24C196.116 405.24 194.676 403.335 194.676 399.945C194.676 396.57 196.116 394.65 198.711 394.65ZM198.711 396.465C197.556 396.465 196.926 397.725 196.926 399.945C196.926 402.195 197.556 403.455 198.711 403.455C199.866 403.455 200.496 402.195 200.496 399.945C200.496 397.725 199.866 396.465 198.711 396.465Z" fill="black"/>
</g>
<g clip-path="url(#clip2_188_26)">
<path d="M194.012 207.791L200.772 202.707C206.845 198.131 215.598 201.759 216.67 209.289L217.852 217.67C218.47 222.081 221.933 225.544 226.343 226.162L234.725 227.344C242.255 228.402 245.883 237.155 241.307 243.242L236.223 250.002C233.543 253.561 233.543 258.453 236.223 262.012L241.307 268.772C245.883 274.845 242.255 283.598 234.725 284.67L226.343 285.852C221.933 286.47 218.47 289.933 217.852 294.343L216.67 302.725C215.612 310.255 206.859 313.882 200.772 309.307L194.012 304.223C190.453 301.543 185.561 301.543 182.002 304.223L175.242 309.307C169.169 313.882 160.416 310.255 159.344 302.725L158.162 294.343C157.544 289.933 154.081 286.47 149.671 285.852L141.289 284.67C133.759 283.612 130.131 274.859 134.707 268.772L139.791 262.012C142.47 258.453 142.47 253.561 139.791 250.002L134.707 243.242C130.131 237.168 133.759 228.416 141.289 227.344L149.671 226.162C154.081 225.544 157.544 222.081 158.162 217.67L159.344 209.289C160.402 201.759 169.155 198.131 175.242 202.707L182.002 207.791C185.561 210.47 190.453 210.47 194.012 207.791Z" fill="#5ECBF5" stroke="#2C5DAA" stroke-linecap="round" stroke-linejoin="round"/>
<path d="M157.07 245.14C159.23 245.14 160.34 246.16 160.34 248.155V250.915C160.34 251.875 160.415 252.49 160.55 253H158.66C158.585 252.685 158.555 252.355 158.555 251.98H158.525C157.955 252.79 157.1 253.18 156.05 253.18C154.43 253.18 153.455 252.19 153.455 250.87C153.455 249.625 154.205 248.785 156.41 248.44C156.98 248.35 157.835 248.26 158.315 248.23V247.96C158.315 247 157.805 246.61 157.07 246.61C156.29 246.61 155.84 247.045 155.81 247.765H153.77C153.845 246.31 154.895 245.14 157.07 245.14ZM158.315 249.79V249.505C157.865 249.535 157.235 249.595 156.785 249.67C155.915 249.82 155.555 250.105 155.555 250.72C155.555 251.29 155.945 251.68 156.68 251.68C157.115 251.68 157.58 251.545 157.88 251.245C158.24 250.885 158.315 250.48 158.315 249.79ZM171.109 245.2C172.744 245.2 173.779 246.25 173.779 248.32V253H171.679V248.53C171.679 247.375 171.214 246.85 170.479 246.85C169.579 246.85 169.084 247.645 169.084 249.085V253H166.984V248.395C166.984 247.42 166.564 246.85 165.784 246.85C164.869 246.85 164.389 247.66 164.389 249.085V253H162.289V245.38H164.269V246.25H164.299C164.854 245.53 165.499 245.2 166.414 245.2C167.479 245.2 168.259 245.65 168.679 246.505C169.249 245.695 169.939 245.2 171.109 245.2ZM184.57 245.2C186.205 245.2 187.24 246.25 187.24 248.32V253H185.14V248.53C185.14 247.375 184.675 246.85 183.94 246.85C183.04 246.85 182.545 247.645 182.545 249.085V253H180.445V248.395C180.445 247.42 180.025 246.85 179.245 246.85C178.33 246.85 177.85 247.66 177.85 249.085V253H175.75V245.38H177.73V246.25H177.76C178.315 245.53 178.96 245.2 179.875 245.2C180.94 245.2 181.72 245.65 182.14 246.505C182.71 245.695 183.4 245.2 184.57 245.2ZM192.617 245.14C195.002 245.14 196.517 246.715 196.517 249.19C196.517 251.665 195.002 253.24 192.617 253.24C190.232 253.24 188.717 251.665 188.717 249.19C188.717 246.715 190.232 245.14 192.617 245.14ZM192.617 246.76C191.582 246.76 190.922 247.705 190.922 249.19C190.922 250.675 191.582 251.62 192.617 251.62C193.652 251.62 194.312 250.675 194.312 249.19C194.312 247.705 193.652 246.76 192.617 246.76ZM202.29 245.2C204 245.2 205.095 246.25 205.095 248.32V253H202.995V248.53C202.995 247.375 202.485 246.85 201.66 246.85C200.79 246.85 200.16 247.54 200.16 248.92V253H198.06V245.38H200.025V246.34H200.055C200.55 245.665 201.315 245.2 202.29 245.2ZM209.154 244.12H207.054V242.32H209.154V244.12ZM209.154 253H207.054V245.38H209.154V253ZM214.62 251.425C214.815 251.425 215.025 251.395 215.16 251.35V252.955C214.875 253.045 214.41 253.105 214.05 253.105C212.295 253.105 211.53 252.4 211.53 250.63V246.94H210.3V245.38H211.53V243.4H213.63V245.38H215.085V246.94H213.63V250.255C213.63 251.095 213.9 251.425 214.62 251.425ZM219.656 251.755C220.496 251.755 221.051 251.305 221.156 250.69H223.301C223.001 252.085 221.681 253.24 219.656 253.24C217.256 253.24 215.861 251.56 215.861 249.13C215.861 246.88 217.256 245.14 219.641 245.14C221.396 245.14 222.686 246.13 223.166 247.675C223.331 248.2 223.406 248.785 223.406 249.625H217.931C217.991 251.2 218.756 251.755 219.656 251.755ZM219.641 246.625C218.786 246.625 218.141 247.15 217.976 248.305H221.306C221.171 247.15 220.481 246.625 219.641 246.625ZM163.854 263.14C165.909 263.14 167.289 264.43 167.454 266.215H165.264C165.189 265.315 164.649 264.76 163.839 264.76C162.819 264.76 162.204 265.69 162.204 267.19C162.204 268.69 162.819 269.62 163.839 269.62C164.649 269.62 165.189 269.005 165.249 268.015H167.454C167.289 269.95 165.909 271.24 163.854 271.24C161.529 271.24 160.014 269.65 160.014 267.19C160.014 264.73 161.529 263.14 163.854 263.14ZM171.032 264.22H171.062C171.602 263.53 172.352 263.2 173.162 263.2C174.872 263.2 175.967 264.25 175.967 266.32V271H173.867V266.53C173.867 265.375 173.357 264.85 172.532 264.85C171.662 264.85 171.032 265.525 171.032 266.92V271H168.932V260.32H171.032V264.22ZM180.026 271H177.926V260.32H180.026V271ZM185.476 263.14C187.861 263.14 189.376 264.715 189.376 267.19C189.376 269.665 187.861 271.24 185.476 271.24C183.091 271.24 181.576 269.665 181.576 267.19C181.576 264.715 183.091 263.14 185.476 263.14ZM185.476 264.76C184.441 264.76 183.781 265.705 183.781 267.19C183.781 268.675 184.441 269.62 185.476 269.62C186.511 269.62 187.171 268.675 187.171 267.19C187.171 265.705 186.511 264.76 185.476 264.76ZM194.969 263.26C195.179 263.26 195.449 263.29 195.659 263.35V265.165C195.419 265.12 195.209 265.09 194.999 265.09C193.709 265.09 193.019 265.9 193.019 267.4V271H190.919V263.38H192.854V264.46H192.884C193.394 263.635 194.069 263.26 194.969 263.26ZM198.893 262.12H196.793V260.32H198.893V262.12ZM198.893 271H196.793V263.38H198.893V271ZM205.168 263.2C206.878 263.2 207.973 264.25 207.973 266.32V271H205.873V266.53C205.873 265.375 205.363 264.85 204.538 264.85C203.668 264.85 203.038 265.54 203.038 266.92V271H200.938V263.38H202.903V264.34H202.933C203.428 263.665 204.193 263.2 205.168 263.2ZM213.233 269.755C214.073 269.755 214.628 269.305 214.733 268.69H216.878C216.578 270.085 215.258 271.24 213.233 271.24C210.833 271.24 209.438 269.56 209.438 267.13C209.438 264.88 210.833 263.14 213.218 263.14C214.973 263.14 216.263 264.13 216.743 265.675C216.908 266.2 216.983 266.785 216.983 267.625H211.508C211.568 269.2 212.333 269.755 213.233 269.755ZM213.218 264.625C212.363 264.625 211.718 265.15 211.553 266.305H214.883C214.748 265.15 214.058 264.625 213.218 264.625Z" fill="black"/>
</g>
<g clip-path="url(#clip3_188_26)">
<path d="M64.0116 142.791L70.772 137.707C76.8454 133.131 85.5982 136.759 86.67 144.289L87.8517 152.67C88.47 157.081 91.9326 160.544 96.3434 161.162L104.725 162.344C112.255 163.402 115.883 172.155 111.307 178.242L106.223 185.002C103.543 188.561 103.543 193.453 106.223 197.012L111.307 203.772C115.883 209.845 112.255 218.598 104.725 219.67L96.3434 220.852C91.9326 221.47 88.47 224.933 87.8517 229.343L86.67 237.725C85.6119 245.255 76.8591 248.882 70.772 244.307L64.0116 239.223C60.4528 236.543 55.5611 236.543 52.0023 239.223L45.2419 244.307C39.1686 248.882 30.4158 245.255 29.344 237.725L28.1623 229.343C27.544 224.933 24.0813 221.47 19.6706 220.852L11.2888 219.67C3.75892 218.612 0.131385 209.859 4.70702 203.772L9.79106 197.012C12.4705 193.453 12.4705 188.561 9.79106 185.002L4.70702 178.242C0.131385 172.168 3.75892 163.416 11.2888 162.344L19.6706 161.162C24.0813 160.544 27.544 157.081 28.1623 152.67L29.344 144.289C30.402 136.759 39.1548 133.131 45.2419 137.707L52.0023 142.791C55.5611 145.47 60.4528 145.47 64.0116 142.791Z" fill="#5ECBF5" stroke="#2C5DAA" stroke-linecap="round" stroke-linejoin="round"/>
<path d="M41.8618 189.14C43.8568 189.14 45.0568 190.025 45.0568 191.72H43.0468C43.0468 190.94 42.5968 190.61 41.8468 190.61C41.1718 190.61 40.8118 190.88 40.8118 191.315C40.8118 191.855 41.2918 191.99 42.4468 192.29C43.8118 192.65 45.3118 192.995 45.3118 194.855C45.3118 196.28 44.0218 197.24 41.9518 197.24C39.8368 197.24 38.5318 196.37 38.5318 194.525H40.6618C40.6618 195.29 41.1268 195.725 41.9968 195.725C42.7318 195.725 43.1068 195.44 43.1068 194.99C43.1068 194.33 42.5368 194.195 41.3518 193.88C40.0768 193.55 38.7118 193.25 38.7118 191.48C38.7118 190.115 39.9718 189.14 41.8618 189.14ZM49.623 197.18C47.913 197.18 46.818 196.13 46.818 194.06V189.38H48.918V193.85C48.918 195.005 49.428 195.53 50.253 195.53C51.123 195.53 51.753 194.84 51.753 193.46V189.38H53.853V197H51.888V196.04H51.858C51.363 196.715 50.598 197.18 49.623 197.18ZM57.9872 197H55.8872V186.32H57.9872V197ZM63.6027 187.76C62.8677 187.76 62.4927 188.075 62.4927 188.945V189.38H63.9327V190.94H62.4927V197H60.4227V190.94H59.1627V189.38H60.4227V188.69C60.4227 187.025 61.3077 186.2 62.9427 186.2C63.3027 186.2 63.7227 186.26 63.9777 186.32V187.805C63.8877 187.775 63.7377 187.76 63.6027 187.76ZM67.875 197.18C66.165 197.18 65.07 196.13 65.07 194.06V189.38H67.17V193.85C67.17 195.005 67.68 195.53 68.505 195.53C69.375 195.53 70.005 194.84 70.005 193.46V189.38H72.105V197H70.14V196.04H70.11C69.615 196.715 68.85 197.18 67.875 197.18ZM78.1891 189.26C78.3991 189.26 78.6691 189.29 78.8791 189.35V191.165C78.6391 191.12 78.4291 191.09 78.2191 191.09C76.9291 191.09 76.2391 191.9 76.2391 193.4V197H74.1391V189.38H76.0741V190.46H76.1041C76.6141 189.635 77.2891 189.26 78.1891 189.26Z" fill="black"/>
</g>
<g clip-path="url(#clip4_188_26)">
<path d="M63.0116 7.79094L69.772 2.7069C75.8454 -1.86874 84.5982 1.75879 85.67 9.28867L86.8517 17.6705C87.47 22.0812 90.9326 25.5439 95.3434 26.1622L103.725 27.3439C111.255 28.4019 114.883 37.1547 110.307 43.2418L105.223 50.0022C102.543 53.561 102.543 58.4527 105.223 62.0115L110.307 68.7719C114.883 74.8453 111.255 83.5981 103.725 84.6698L95.3434 85.8515C90.9326 86.4699 87.47 89.9325 86.8517 94.3433L85.67 102.725C84.6119 110.255 75.8591 113.882 69.772 109.307L63.0116 104.223C59.4528 101.543 54.5611 101.543 51.0023 104.223L44.2419 109.307C38.1686 113.882 29.4158 110.255 28.344 102.725L27.1623 94.3433C26.544 89.9325 23.0813 86.4699 18.6706 85.8515L10.2888 84.6698C2.75892 83.6118 -0.868615 74.859 3.70702 68.7719L8.79106 62.0115C11.4705 58.4527 11.4705 53.561 8.79106 50.0022L3.70702 43.2418C-0.868615 37.1684 2.75892 28.4156 10.2888 27.3439L18.6706 26.1622C23.0813 25.5439 26.544 22.0812 27.1623 17.6705L28.344 9.28867C29.402 1.75879 38.1548 -1.86874 44.2419 2.7069L51.0023 7.79094C54.5611 10.4704 59.4528 10.4704 63.0116 7.79094Z" fill="#5ECBF5" stroke="#2C5DAA" stroke-linecap="round" stroke-linejoin="round"/>
<path d="M44.3224 54.14C46.4824 54.14 47.5924 55.16 47.5924 57.155V59.915C47.5924 60.875 47.6674 61.49 47.8024 62H45.9124C45.8374 61.685 45.8074 61.355 45.8074 60.98H45.7774C45.2074 61.79 44.3524 62.18 43.3024 62.18C41.6824 62.18 40.7074 61.19 40.7074 59.87C40.7074 58.625 41.4574 57.785 43.6624 57.44C44.2324 57.35 45.0874 57.26 45.5674 57.23V56.96C45.5674 56 45.0574 55.61 44.3224 55.61C43.5424 55.61 43.0924 56.045 43.0624 56.765H41.0224C41.0974 55.31 42.1474 54.14 44.3224 54.14ZM45.5674 58.79V58.505C45.1174 58.535 44.4874 58.595 44.0374 58.67C43.1674 58.82 42.8074 59.105 42.8074 59.72C42.8074 60.29 43.1974 60.68 43.9324 60.68C44.3674 60.68 44.8324 60.545 45.1324 60.245C45.4924 59.885 45.5674 59.48 45.5674 58.79ZM52.2105 54.185C53.0955 54.185 53.9355 54.605 54.4005 55.385H54.4305V54.38H56.4705V64.775H54.3705V61.085H54.3405C53.8755 61.805 53.0505 62.195 52.1805 62.195C50.2755 62.195 49.0455 60.62 49.0455 58.19C49.0455 55.76 50.2905 54.185 52.2105 54.185ZM52.8855 55.79C51.8805 55.79 51.2355 56.735 51.2355 58.19C51.2355 59.645 51.8805 60.59 52.8855 60.59C53.8305 60.59 54.4755 59.705 54.4755 58.19C54.4755 56.675 53.8305 55.79 52.8855 55.79ZM61.2354 62.18C59.5254 62.18 58.4304 61.13 58.4304 59.06V54.38H60.5304V58.85C60.5304 60.005 61.0404 60.53 61.8654 60.53C62.7354 60.53 63.3654 59.84 63.3654 58.46V54.38H65.4654V62H63.5004V61.04H63.4704C62.9754 61.715 62.2104 62.18 61.2354 62.18ZM70.4845 54.14C72.6445 54.14 73.7545 55.16 73.7545 57.155V59.915C73.7545 60.875 73.8295 61.49 73.9645 62H72.0745C71.9995 61.685 71.9695 61.355 71.9695 60.98H71.9395C71.3695 61.79 70.5145 62.18 69.4645 62.18C67.8445 62.18 66.8695 61.19 66.8695 59.87C66.8695 58.625 67.6195 57.785 69.8245 57.44C70.3945 57.35 71.2495 57.26 71.7295 57.23V56.96C71.7295 56 71.2195 55.61 70.4845 55.61C69.7045 55.61 69.2545 56.045 69.2245 56.765H67.1845C67.2595 55.31 68.3095 54.14 70.4845 54.14ZM71.7295 58.79V58.505C71.2795 58.535 70.6495 58.595 70.1995 58.67C69.3295 58.82 68.9695 59.105 68.9695 59.72C68.9695 60.29 69.3595 60.68 70.0945 60.68C70.5295 60.68 70.9945 60.545 71.2945 60.245C71.6545 59.885 71.7295 59.48 71.7295 58.79Z" fill="black"/>
</g>
<g clip-path="url(#clip5_188_26)">
<path d="M63.0116 277.791L69.772 272.707C75.8454 268.131 84.5982 271.759 85.67 279.289L86.8517 287.67C87.47 292.081 90.9326 295.544 95.3434 296.162L103.725 297.344C111.255 298.402 114.883 307.155 110.307 313.242L105.223 320.002C102.543 323.561 102.543 328.453 105.223 332.012L110.307 338.772C114.883 344.845 111.255 353.598 103.725 354.67L95.3434 355.852C90.9326 356.47 87.47 359.933 86.8517 364.343L85.67 372.725C84.6119 380.255 75.8591 383.882 69.772 379.307L63.0116 374.223C59.4528 371.543 54.5611 371.543 51.0023 374.223L44.2419 379.307C38.1686 383.882 29.4158 380.255 28.344 372.725L27.1623 364.343C26.544 359.933 23.0813 356.47 18.6706 355.852L10.2888 354.67C2.75892 353.612 -0.868615 344.859 3.70702 338.772L8.79106 332.012C11.4705 328.453 11.4705 323.561 8.79106 320.002L3.70702 313.242C-0.868615 307.168 2.75892 298.416 10.2888 297.344L18.6706 296.162C23.0813 295.544 26.544 292.081 27.1623 287.67L28.344 279.289C29.402 271.759 38.1548 268.131 44.2419 272.707L51.0023 277.791C54.5611 280.47 59.4528 280.47 63.0116 277.791Z" fill="#5ECBF5" stroke="#2C5DAA" stroke-linecap="round" stroke-linejoin="round"/>
<path d="M42.2608 315.14C44.2558 315.14 45.4558 316.025 45.4558 317.72H43.4458C43.4458 316.94 42.9958 316.61 42.2458 316.61C41.5708 316.61 41.2108 316.88 41.2108 317.315C41.2108 317.855 41.6908 317.99 42.8458 318.29C44.2108 318.65 45.7108 318.995 45.7108 320.855C45.7108 322.28 44.4208 323.24 42.3508 323.24C40.2358 323.24 38.9308 322.37 38.9308 320.525H41.0608C41.0608 321.29 41.5258 321.725 42.3958 321.725C43.1308 321.725 43.5058 321.44 43.5058 320.99C43.5058 320.33 42.9358 320.195 41.7508 319.88C40.4758 319.55 39.1108 319.25 39.1108 317.48C39.1108 316.115 40.3708 315.14 42.2608 315.14ZM49.392 314.12H47.292V312.32H49.392V314.12ZM49.392 323H47.292V315.38H49.392V323ZM53.5375 323H51.4375V312.32H53.5375V323ZM59.753 323H57.023L54.458 315.38H56.648L57.533 318.38C57.848 319.46 58.133 320.57 58.373 321.68H58.403C58.643 320.57 58.928 319.46 59.243 318.38L60.128 315.38H62.318L59.753 323ZM66.4416 321.755C67.2816 321.755 67.8366 321.305 67.9416 320.69H70.0866C69.7866 322.085 68.4666 323.24 66.4416 323.24C64.0416 323.24 62.6466 321.56 62.6466 319.13C62.6466 316.88 64.0416 315.14 66.4266 315.14C68.1816 315.14 69.4716 316.13 69.9516 317.675C70.1166 318.2 70.1916 318.785 70.1916 319.625H64.7166C64.7766 321.2 65.5416 321.755 66.4416 321.755ZM66.4266 316.625C65.5716 316.625 64.9266 317.15 64.7616 318.305H68.0916C67.9566 317.15 67.2666 316.625 66.4266 316.625ZM75.7902 315.26C76.0002 315.26 76.2702 315.29 76.4802 315.35V317.165C76.2402 317.12 76.0302 317.09 75.8202 317.09C74.5302 317.09 73.8402 317.9 73.8402 319.4V323H71.7402V315.38H73.6752V316.46H73.7052C74.2152 315.635 74.8902 315.26 75.7902 315.26ZM35.2916 333.14C37.4516 333.14 38.5616 334.16 38.5616 336.155V338.915C38.5616 339.875 38.6366 340.49 38.7716 341H36.8816C36.8066 340.685 36.7766 340.355 36.7766 339.98H36.7466C36.1766 340.79 35.3216 341.18 34.2716 341.18C32.6516 341.18 31.6766 340.19 31.6766 338.87C31.6766 337.625 32.4266 336.785 34.6316 336.44C35.2016 336.35 36.0566 336.26 36.5366 336.23V335.96C36.5366 335 36.0266 334.61 35.2916 334.61C34.5116 334.61 34.0616 335.045 34.0316 335.765H31.9916C32.0666 334.31 33.1166 333.14 35.2916 333.14ZM36.5366 337.79V337.505C36.0866 337.535 35.4566 337.595 35.0066 337.67C34.1366 337.82 33.7766 338.105 33.7766 338.72C33.7766 339.29 34.1666 339.68 34.9016 339.68C35.3366 339.68 35.8016 339.545 36.1016 339.245C36.4616 338.885 36.5366 338.48 36.5366 337.79ZM43.8547 333.14C45.9097 333.14 47.2897 334.43 47.4547 336.215H45.2647C45.1897 335.315 44.6497 334.76 43.8397 334.76C42.8197 334.76 42.2047 335.69 42.2047 337.19C42.2047 338.69 42.8197 339.62 43.8397 339.62C44.6497 339.62 45.1897 339.005 45.2497 338.015H47.4547C47.2897 339.95 45.9097 341.24 43.8547 341.24C41.5297 341.24 40.0147 339.65 40.0147 337.19C40.0147 334.73 41.5297 333.14 43.8547 333.14ZM52.3205 339.755C53.1605 339.755 53.7155 339.305 53.8205 338.69H55.9655C55.6655 340.085 54.3455 341.24 52.3205 341.24C49.9205 341.24 48.5255 339.56 48.5255 337.13C48.5255 334.88 49.9205 333.14 52.3055 333.14C54.0605 333.14 55.3505 334.13 55.8305 335.675C55.9955 336.2 56.0705 336.785 56.0705 337.625H50.5955C50.6555 339.2 51.4205 339.755 52.3205 339.755ZM52.3055 334.625C51.4505 334.625 50.8055 335.15 50.6405 336.305H53.9705C53.8355 335.15 53.1455 334.625 52.3055 334.625ZM60.9805 339.425C61.1755 339.425 61.3855 339.395 61.5205 339.35V340.955C61.2355 341.045 60.7705 341.105 60.4105 341.105C58.6555 341.105 57.8905 340.4 57.8905 338.63V334.94H56.6605V333.38H57.8905V331.4H59.9905V333.38H61.4455V334.94H59.9905V338.255C59.9905 339.095 60.2605 339.425 60.9805 339.425ZM65.9069 333.14C68.0669 333.14 69.1769 334.16 69.1769 336.155V338.915C69.1769 339.875 69.2519 340.49 69.3869 341H67.4969C67.4219 340.685 67.3919 340.355 67.3919 339.98H67.3619C66.7919 340.79 65.9369 341.18 64.8869 341.18C63.2669 341.18 62.2919 340.19 62.2919 338.87C62.2919 337.625 63.0419 336.785 65.2469 336.44C65.8169 336.35 66.6719 336.26 67.1519 336.23V335.96C67.1519 335 66.6419 334.61 65.9069 334.61C65.1269 334.61 64.6769 335.045 64.6469 335.765H62.6069C62.6819 334.31 63.7319 333.14 65.9069 333.14ZM67.1519 337.79V337.505C66.7019 337.535 66.0719 337.595 65.6219 337.67C64.7519 337.82 64.3919 338.105 64.3919 338.72C64.3919 339.29 64.7819 339.68 65.5169 339.68C65.9519 339.68 66.4169 339.545 66.7169 339.245C67.0769 338.885 67.1519 338.48 67.1519 337.79ZM74.3985 339.425C74.5935 339.425 74.8035 339.395 74.9385 339.35V340.955C74.6535 341.045 74.1885 341.105 73.8285 341.105C72.0735 341.105 71.3085 340.4 71.3085 338.63V334.94H70.0785V333.38H71.3085V331.4H73.4085V333.38H74.8635V334.94H73.4085V338.255C73.4085 339.095 73.6785 339.425 74.3985 339.425ZM79.4347 339.755C80.2747 339.755 80.8297 339.305 80.9347 338.69H83.0797C82.7797 340.085 81.4597 341.24 79.4347 341.24C77.0347 341.24 75.6397 339.56 75.6397 337.13C75.6397 334.88 77.0347 333.14 79.4197 333.14C81.1747 333.14 82.4647 334.13 82.9447 335.675C83.1097 336.2 83.1847 336.785 83.1847 337.625H77.7097C77.7697 339.2 78.5347 339.755 79.4347 339.755ZM79.4197 334.625C78.5647 334.625 77.9197 335.15 77.7547 336.305H81.0847C80.9497 335.15 80.2597 334.625 79.4197 334.625Z" fill="black"/>
</g>
<g clip-path="url(#clip6_188_26)">
<path d="M63.0116 412.791L69.772 407.707C75.8454 403.131 84.5982 406.759 85.67 414.289L86.8517 422.67C87.47 427.081 90.9326 430.544 95.3434 431.162L103.725 432.344C111.255 433.402 114.883 442.155 110.307 448.242L105.223 455.002C102.543 458.561 102.543 463.453 105.223 467.012L110.307 473.772C114.883 479.845 111.255 488.598 103.725 489.67L95.3434 490.852C90.9326 491.47 87.47 494.933 86.8517 499.343L85.67 507.725C84.6119 515.255 75.8591 518.882 69.772 514.307L63.0116 509.223C59.4528 506.543 54.5611 506.543 51.0023 509.223L44.2419 514.307C38.1686 518.882 29.4158 515.255 28.344 507.725L27.1623 499.343C26.544 494.933 23.0813 491.47 18.6706 490.852L10.2888 489.67C2.75892 488.612 -0.868615 479.859 3.70702 473.772L8.79106 467.012C11.4705 463.453 11.4705 458.561 8.79106 455.002L3.70702 448.242C-0.868615 442.168 2.75892 433.416 10.2888 432.344L18.6706 431.162C23.0813 430.544 26.544 427.081 27.1623 422.67L28.344 414.289C29.402 406.759 38.1548 403.131 44.2419 407.707L51.0023 412.791C54.5611 415.47 59.4528 415.47 63.0116 412.791Z" fill="#5ECBF5" stroke="#2C5DAA" stroke-linecap="round" stroke-linejoin="round"/>
<path d="M32.3313 459.185C34.2513 459.185 35.4963 460.76 35.4963 463.19C35.4963 465.62 34.2663 467.195 32.3613 467.195C31.4913 467.195 30.6663 466.805 30.2013 466.085H30.1713V469.775H28.0713V459.38H30.1113V460.385H30.1413C30.6063 459.605 31.4463 459.185 32.3313 459.185ZM31.6563 460.79C30.7113 460.79 30.0663 461.675 30.0663 463.19C30.0663 464.705 30.7113 465.59 31.6563 465.59C32.6613 465.59 33.3063 464.645 33.3063 463.19C33.3063 461.735 32.6613 460.79 31.6563 460.79ZM40.4826 465.755C41.3226 465.755 41.8776 465.305 41.9826 464.69H44.1276C43.8276 466.085 42.5076 467.24 40.4826 467.24C38.0826 467.24 36.6876 465.56 36.6876 463.13C36.6876 460.88 38.0826 459.14 40.4676 459.14C42.2226 459.14 43.5126 460.13 43.9926 461.675C44.1576 462.2 44.2326 462.785 44.2326 463.625H38.7576C38.8176 465.2 39.5826 465.755 40.4826 465.755ZM40.4676 460.625C39.6126 460.625 38.9676 461.15 38.8026 462.305H42.1326C41.9976 461.15 41.3076 460.625 40.4676 460.625ZM49.8312 459.26C50.0412 459.26 50.3112 459.29 50.5212 459.35V461.165C50.2812 461.12 50.0712 461.09 49.8612 461.09C48.5712 461.09 47.8812 461.9 47.8812 463.4V467H45.7812V459.38H47.7162V460.46H47.7462C48.2562 459.635 48.9312 459.26 49.8312 459.26ZM55.3717 457.76C54.6367 457.76 54.2617 458.075 54.2617 458.945V459.38H55.7017V460.94H54.2617V467H52.1917V460.94H50.9317V459.38H52.1917V458.69C52.1917 457.025 53.0767 456.2 54.7117 456.2C55.0717 456.2 55.4917 456.26 55.7467 456.32V457.805C55.6567 457.775 55.5067 457.76 55.3717 457.76ZM59.644 467.18C57.934 467.18 56.839 466.13 56.839 464.06V459.38H58.939V463.85C58.939 465.005 59.449 465.53 60.274 465.53C61.144 465.53 61.774 464.84 61.774 463.46V459.38H63.874V467H61.909V466.04H61.879C61.384 466.715 60.619 467.18 59.644 467.18ZM74.7282 459.2C76.3632 459.2 77.3982 460.25 77.3982 462.32V467H75.2982V462.53C75.2982 461.375 74.8332 460.85 74.0982 460.85C73.1982 460.85 72.7032 461.645 72.7032 463.085V467H70.6032V462.395C70.6032 461.42 70.1832 460.85 69.4032 460.85C68.4882 460.85 68.0082 461.66 68.0082 463.085V467H65.9082V459.38H67.8882V460.25H67.9182C68.4732 459.53 69.1182 459.2 70.0332 459.2C71.0982 459.2 71.8782 459.65 72.2982 460.505C72.8682 459.695 73.5582 459.2 74.7282 459.2ZM82.6701 465.755C83.5101 465.755 84.0651 465.305 84.1701 464.69H86.3151C86.0151 466.085 84.6951 467.24 82.6701 467.24C80.2701 467.24 78.8751 465.56 78.8751 463.13C78.8751 460.88 80.2701 459.14 82.6551 459.14C84.4101 459.14 85.7001 460.13 86.1801 461.675C86.3451 462.2 86.4201 462.785 86.4201 463.625H80.9451C81.0051 465.2 81.7701 465.755 82.6701 465.755ZM82.6551 460.625C81.8001 460.625 81.1551 461.15 80.9901 462.305H84.3201C84.1851 461.15 83.4951 460.625 82.6551 460.625Z" fill="black"/>
</g>
<defs>
<clipPath id="clip0_188_26">
<rect width="112" height="112" fill="white" transform="translate(132 66)"/>
</clipPath>
<clipPath id="clip1_188_26">
<rect width="112" height="112" fill="white" transform="translate(132 334)"/>
</clipPath>
<clipPath id="clip2_188_26">
<rect width="112" height="112" fill="white" transform="translate(132 200)"/>
</clipPath>
<clipPath id="clip3_188_26">
<rect width="112" height="112" fill="white" transform="translate(2 135)"/>
</clipPath>
<clipPath id="clip4_188_26">
<rect width="112" height="112" fill="white" transform="translate(1)"/>
</clipPath>
<clipPath id="clip5_188_26">
<rect width="112" height="112" fill="white" transform="translate(1 270)"/>
</clipPath>
<clipPath id="clip6_188_26">
<rect width="112" height="112" fill="white" transform="translate(1 405)"/>
</clipPath>
</defs>
</svg>
