<?xml version="1.0" encoding="UTF-8"?>
<svg id="Layer_1" data-name="Layer 1" xmlns="http://www.w3.org/2000/svg" version="1.1" viewBox="0 0 160 208.84">
  <defs>
    <style>
      .cls-1 {
        fill: #0071bb;
        stroke: #2c5daa;
        stroke-miterlimit: 10;
      }

      .cls-2 {
        fill: #33a1db;
        stroke: #2b5daa;
        stroke-linecap: round;
        stroke-linejoin: round;
      }
    </style>
  </defs>
  <path class="cls-2" d="M58.53,54.33L.5,40.51,6.49,1.2l58.77,4.74c-1.07,16.3-3.27,32.16-6.73,48.4Z"/>
  <path class="cls-2" d="M83.88,73.16c-.84,3.06-1.65,6.16-2.46,9.3-.99-.25-2.12-.68-2.24-1.43-.42-2.76.27-5.78,1.96-8.11.5-.68,1.64-.34,2.73.23Z"/>
  <path class="cls-2" d="M123.24,166.78c-.22,1.14-5.38,27.76-19.37,37.01-5.64,3.74-12,5.21-18.03,4.29-1.58-.24-3.14-.65-4.65-1.22-6.45-2.42-11.17-7.57-12.94-14.09-2.98-10.99,1.62-21.25,3.72-25.1.82.52,1.79.9,2.68.99-1.76,3.19-6.45,13.09-3.68,23.38,1.53,5.63,5.62,10.06,11.21,12.19,6.45,2.42,13.79,1.41,20.14-2.79,12.99-8.6,18.11-34.92,18.15-35.18l2.78.52Z"/>
  <path class="cls-1" d="M158.94,44.9c1.18-11.47,2.41-25.84-17.43-34.48C119.71.94,93.57-2.37,65.42,3.24c-.05.91-.1,1.81-.17,2.7-1.07,16.3-3.27,32.16-6.73,48.4-.18.87-.37,1.74-.56,2.61-.02.13,17.29,6.64,24.72,8.16,2.29.46,2.15,4.57,1.53,6.81-.12.41-.22.82-.34,1.23-.84,3.06-1.65,6.16-2.46,9.3-4.37,16.91-8.37,34.91-12.37,52.99-2.13,9.7-.86,20.73.96,29.77.19.93.97,1.8,1.96,2.44.82.52,1.79.9,2.68.99.38.06.72.05,1.06,0,8.74-1.51,16.31-8.02,21.17-16.52,5.37-9.38,8.46-20,10.87-30.54,3.02-13.29,4.35-40.67,4.35-40.67.55-5.11,5.63-10.25,9.25-10.3l15.41-.21c11.45-.17,20.58-10.1,22.17-25.52ZM99.22,137.14c-2.32,4.83-5.36,9.66-9.55,13.09-5.35,4.37-10.32,3.71-16.53,1.57-2.07-.72-.22-19.25,1.46-28.67,3.37-18.96,17.18-55.17,17.18-55.17l14.45,1.1c2.33,9.26,2.89,19,2.37,28.56-.72,13.35-3.59,27.39-9.39,39.53ZM109.06,45.71c-4.94-.75-8.72-2.71-8.47-4.4s4.45-2.42,9.39-1.67,8.74,2.72,8.48,4.39-4.47,2.43-9.41,1.68Z"/>
  <path class="cls-2" d="M108.61,97.61c.51-9.56-.04-19.29-2.37-28.56l-14.45-1.1s-13.81,36.21-17.18,55.17c-1.68,9.42-3.53,27.96-1.46,28.67,6.21,2.15,11.18,2.8,16.53-1.57,4.19-3.43,7.23-8.26,9.55-13.09,5.8-12.14,8.67-26.17,9.39-39.53ZM77.81,148.85c-1.48-.23-2.48-1.69-2.24-3.27s1.64-2.68,3.11-2.45,2.48,1.69,2.24,3.27-1.64,2.68-3.11,2.45ZM101.57,104.57c-.81,5.32-4.59,9.16-8.44,8.58-1.93-.29-3.5-1.65-4.49-3.58-.99-1.94-1.41-4.45-1-7.12l2.07-13.6c.81-5.33,4.58-9.17,8.43-8.58s6.32,5.37,5.51,10.7l-2.07,13.6Z"/>
  <path class="cls-2" d="M118.47,44.03c-.26,1.69-4.47,2.43-9.41,1.68s-8.72-2.71-8.47-4.4,4.45-2.42,9.39-1.67,8.74,2.72,8.48,4.39Z"/>
  <path class="cls-1" d="M103.64,90.97l-2.07,13.6c-.81,5.32-4.59,9.16-8.44,8.58-1.93-.29-3.5-1.65-4.49-3.58-.99-1.94-1.41-4.45-1-7.12l2.07-13.6c.81-5.33,4.58-9.17,8.43-8.58s6.32,5.37,5.51,10.7Z"/>
  <ellipse class="cls-1" cx="78.24" cy="145.99" rx="2.89" ry="2.71" transform="translate(-77.87 201.36) rotate(-81.34)"/>
</svg>