<?xml version="1.0" encoding="UTF-8"?>
<svg id="Layer_1" data-name="Layer 1" xmlns="http://www.w3.org/2000/svg" version="1.1" viewBox="0 0 68 200.78">
  <defs>
    <style>
      .cls-1 {
        fill: #0071bb;
        stroke: #2c5daa;
        stroke-miterlimit: 10;
      }

      .cls-2 {
        fill: #33a1db;
        stroke: #2b5daa;
        stroke-linecap: round;
        stroke-linejoin: round;
      }
    </style>
  </defs>
  <path class="cls-1" d="M48.97,157.52c4.45,14.03,6.48,31.87-8.29,40.48-4.98,2.9-11.23,4.06-12.96-2.91-5.55-22.37-8.6-45.29-11.85-68.11,4,18.62,7.61,34.25,11.58,43.76,2.7,6.47,5.08,12.01,8.58,12.12,5.09.15,8.33-7.27,8.95-11.43.99-6.62-2.54-13.6-5.87-19.06-5.56-9.1-11.52-19.58-11.72-30.71-.21-11.76,10.43-24.77,22.31-27.6-12.98,3.43-19.12,16.93-15.82,29.59,3.14,12.04,11.4,22.22,15.09,33.87Z"/>
  <path class="cls-2" d="M24.03,11.29c.16,1.06,1.12,1.76,2.13,1.6l29.03-4.47.42,2.71-29.03,4.47c-1.02.16-1.72,1.11-1.56,2.13s1.12,1.75,2.13,1.6l29.03-4.47.42,2.71-29.03,4.47c-1.02.16-1.72,1.11-1.56,2.13s1.12,1.76,2.13,1.6l29.03-4.47.42,2.71-29.03,4.47c-1.02.16-1.72,1.11-1.56,2.13s1.12,1.75,2.13,1.6l29.03-4.47.42,2.71-29.03,4.47c-1.02.16-1.72,1.11-1.56,2.13s1.12,1.75,2.13,1.6l29.03-4.47.42,2.71-29.03,4.47c-1.02.16-1.72,1.11-1.56,2.13s1.12,1.76,2.13,1.6l29.03-4.47.42,2.71-29.03,4.47c-1.02.16-1.72,1.11-1.56,2.13s1.12,1.75,2.13,1.6l29.03-4.47.42,2.71-29.03,4.47c-1.02.16-1.72,1.11-1.56,2.13s1.12,1.76,2.13,1.6l29.03-4.47.42,2.71-29.03,4.47c-1.02.16-1.72,1.11-1.56,2.13s1.12,1.75,2.13,1.6l29.03-4.47.42,2.71-29.03,4.47c-1.02.16-1.72,1.11-1.56,2.13s1.12,1.75,2.13,1.6l29.03-4.47.42,2.71-29.03,4.47c-1.02.16-1.72,1.11-1.56,2.13s1.12,1.76,2.13,1.6l29.03-4.47.42,2.71-29.03,4.47c-1.02.16-1.72,1.11-1.56,2.13s1.12,1.75,2.13,1.6l29.03-4.47.42,2.71-29.03,4.47c-1.02.16-1.72,1.11-1.56,2.13s1.12,1.76,2.13,1.6l29.03-4.47.42,2.71c-2.34,2.79-15.82,5.21-15.85,5.22-.67.12-1.32.26-1.96.43-11.88,2.83-22.52,15.84-22.31,27.6.2,11.13,6.16,21.61,11.72,30.71,3.33,5.45,6.86,12.43,5.87,19.06-.62,4.16-3.86,11.59-8.95,11.43-3.5-.11-5.89-5.65-8.58-12.12-3.97-9.51-7.58-25.14-11.58-43.76h0c-.68-4.83-1.38-9.65-2.11-14.46C9.42,83.98,5.1,55.42,1.71,26.74c-.68-5.76-2.94-16.38,1.3-21.39C9.77-2.63,54.14,1.64,54.14,1.64l.47,3.05-29.03,4.47c-1.02.16-1.72,1.11-1.56,2.13Z"/>
</svg>