<?xml version="1.0" encoding="UTF-8"?>
<svg id="Layer_1" data-name="Layer 1" xmlns="http://www.w3.org/2000/svg" version="1.1" viewBox="0 0 97 251.07">
  <defs>
    <style>
      .cls-1 {
        fill: #35a0da;
      }

      .cls-1, .cls-2, .cls-3 {
        stroke: #2b5daa;
      }

      .cls-1, .cls-2, .cls-3, .cls-4 {
        stroke-linecap: round;
        stroke-linejoin: round;
      }

      .cls-2 {
        fill: #0071bb;
      }

      .cls-3 {
        fill: #33a1db;
      }

      .cls-4 {
        fill: none;
        stroke: #000;
      }

      .cls-5 {
        fill: #fff;
        stroke-width: 0px;
      }
    </style>
  </defs>
  <rect class="cls-2" x="-23.24" y="144.32" width="120.73" height="60.87" transform="translate(-140.54 193.6) rotate(-84.06)"/>
  <g>
    <path class="cls-5" d="M64.12,145.32c.32.24.55.54.72.91.16.37.22.76.18,1.17s-.18.8-.41,1.13-.53.58-.89.75c-.36.17-.74.23-1.15.19s-.77-.18-1.09-.42c-.32-.24-.56-.54-.72-.91s-.22-.77-.17-1.19.18-.78.42-1.11c.23-.33.53-.57.89-.74.36-.17.74-.23,1.14-.19s.76.18,1.08.42ZM63.54,148.88c.29-.14.53-.34.72-.61s.3-.57.33-.92-.01-.65-.14-.95c-.13-.3-.32-.54-.58-.73-.26-.19-.55-.31-.88-.34s-.64.02-.93.15c-.29.14-.53.34-.71.6-.19.26-.3.56-.33.9s.01.67.14.97.32.55.58.74c.26.19.55.31.88.34s.64-.02.93-.15ZM63.44,147.15c-.06.09-.14.15-.23.18-.03.02-.05.04-.04.07l.22.77v.05c0,.06-.04.09-.1.08l-.15-.02c-.06,0-.1-.04-.11-.11l-.2-.78s-.02-.04-.04-.04l-.18-.02s-.05.01-.05.04l-.07.71c0,.08-.05.11-.12.11h-.12c-.07-.02-.11-.06-.1-.14l.19-1.86c0-.08.05-.11.12-.11l.6.06c.17.02.31.09.4.22.1.13.14.28.12.46-.01.13-.05.23-.11.32ZM62.63,146.48l-.05.53s0,.05.04.05l.27.03c.08,0,.15-.01.21-.07s.09-.12.1-.21c.01-.1,0-.18-.05-.24s-.11-.09-.19-.1l-.27-.03s-.05.01-.05.04Z"/>
    <path class="cls-5" d="M32.77,144.24l-2-.21c-.06,0-.09.02-.09.08l-.68,6.57c-.07.69,0,1.18.24,1.48.23.3.63.48,1.21.53l.36.04c.14.01.2.1.19.24l-.1.92c-.02.15-.09.21-.23.2l-.65-.05c-.91-.09-1.58-.36-2.02-.8-.44-.44-.6-1.18-.49-2.23l.73-7.05c0-.06-.02-.09-.07-.1l-1.05-.11c-.14-.01-.2-.09-.19-.24l.08-.79c.02-.15.09-.21.23-.2l1.05.11c.06,0,.09-.02.09-.08l.26-2.5c.02-.15.09-.21.23-.2l1.03.11c.14.01.2.1.19.24l-.26,2.5c0,.06.02.09.07.1l2,.21c.14.01.2.1.19.24l-.08.79c-.02.15-.09.21-.23.2Z"/>
    <path class="cls-5" d="M47.27,144.51l1.07.11c.14.01.2.1.19.24l-1.11,10.64c-.02.15-.09.21-.23.2l-1.07-.11c-.14-.01-.2-.09-.19-.24l.09-.85s0-.07-.02-.07-.05,0-.08.04c-.58.78-1.43,1.11-2.57,1-.95-.1-1.7-.47-2.24-1.12-.54-.65-.75-1.52-.64-2.63l.79-7.6c.02-.15.09-.21.23-.2l1.07.11c.14.01.2.1.19.24l-.75,7.21c-.08.77.04,1.4.36,1.86.32.47.81.74,1.47.81s1.25-.1,1.69-.52c.44-.42.7-1.01.78-1.79l.74-7.12c.02-.15.09-.21.23-.2Z"/>
    <path class="cls-5" d="M54.91,154.88c.41-.25.73-.6.95-1.06.06-.13.14-.17.27-.13l.95.3c.07.02.11.06.13.11.02.05.01.11,0,.17-.32.79-.82,1.39-1.5,1.79-.68.4-1.47.56-2.36.46-1.02-.11-1.83-.47-2.41-1.1-.59-.63-.91-1.43-.96-2.41-.02-.37,0-.81.03-1.3.04-.5.07-.91.11-1.24l.07-.69c.08-.74.17-1.35.27-1.81.21-.97.68-1.71,1.41-2.24.73-.53,1.6-.74,2.6-.64,1.08.11,1.92.52,2.53,1.24.61.71.9,1.6.87,2.66,0,.49-.08,1.37-.21,2.66-.02.15-.09.21-.23.2l-5.8-.6c-.06,0-.09.02-.09.08-.05.45-.09.96-.12,1.52,0,.63.19,1.17.57,1.6.37.43.88.68,1.53.75.53.06,1.01-.04,1.42-.28ZM52.73,146.86c-.44.35-.73.83-.86,1.45-.09.61-.16,1.12-.2,1.53,0,.06.02.09.07.1l4.43.46c.06,0,.09-.02.09-.08.04-.42.07-.93.07-1.52,0-.64-.19-1.17-.54-1.61-.36-.44-.85-.69-1.46-.75s-1.17.08-1.6.42Z"/>
    <path class="cls-5" d="M39.15,163.58c-.5-.71-1.24-1.11-2.22-1.22-1.13-.12-2.02.22-2.65,1.01-.03.03-.06.03-.08.01-.02-.02-.03-.04-.02-.07l1-9.56s0,0,0-.01l.63-6.01c.08-.77.35-1.41.81-1.91.46-.5,1-.72,1.62-.67h.25c.27.03.51.11.72.23.15.07.24.04.27-.1l.37-1.11c.04-.13.02-.22-.08-.27-.28-.21-.62-.33-1.04-.37-.55-.06-1.03.05-1.47.32-.43.27-.8.67-1.09,1.2-.02.03-.04.04-.06.04s-.03-.03-.02-.07l.15-1.42c.02-.15-.05-.23-.19-.24l-1.07-.11c-.14-.01-.22.05-.23.2l-1.11,10.64s0,0,0,.01l-1.96,18.86c-.02.15.05.23.19.24l1.07.11c.14.01.22-.05.23-.2l.74-7.12c.08-.77.34-1.37.79-1.79.45-.42,1-.59,1.66-.52s1.15.35,1.48.84.46,1.12.38,1.88l-.75,7.16c-.02.15.05.23.19.24l1.07.11c.14.01.22-.05.23-.2l.77-7.38c.12-1.12-.07-2.04-.57-2.75Z"/>
    <path class="cls-5" d="M48.44,164.55c.57.74.79,1.66.68,2.77l-.77,7.36c-.02.15-.09.21-.23.2l-1.07-.11c-.14-.01-.2-.09-.19-.24l.08-.79s0-.05-.02-.07c-.02-.02-.04-.01-.08.01-.35.38-.77.64-1.27.8s-1.04.2-1.63.14c-.88-.09-1.61-.42-2.18-.98-.57-.56-.8-1.4-.68-2.53.12-1.17.57-2.02,1.36-2.55.78-.53,1.8-.73,3.05-.6l1.95.2c.06,0,.09-.02.09-.08l.09-.83c.08-.74-.04-1.35-.35-1.82-.31-.47-.82-.74-1.52-.81-.55-.06-1.02.04-1.41.28-.39.25-.65.6-.77,1.06-.03.13-.11.19-.25.17l-1.15-.19c-.07,0-.12-.03-.15-.08-.03-.05-.04-.1-.02-.16.19-.84.64-1.48,1.36-1.93.72-.45,1.57-.62,2.55-.52,1.12.12,1.96.54,2.53,1.28ZM46.26,172.88c.55-.35.87-.88.94-1.6l.18-1.77c0-.06-.02-.09-.07-.1l-1.85-.19c-.8-.08-1.46.04-1.97.38-.52.34-.81.86-.89,1.58-.07.64.07,1.14.4,1.49s.79.56,1.38.62c.7.07,1.33-.06,1.88-.41Z"/>
    <path class="cls-5" d="M50.48,174.91l1.11-10.64c.02-.15.09-.21.23-.2l1.07.11c.14.01.2.1.19.24l-1.11,10.64c-.02.15-.09.21-.23.2l-1.07-.11c-.14-.01-.2-.09-.19-.24Z"/>
    <path class="cls-5" d="M60.23,165.09c.09.05.12.15.08.27l-.37,1.11c-.03.14-.12.18-.27.11-.21-.13-.45-.2-.72-.23h-.25c-.62-.05-1.16.17-1.62.67s-.73,1.13-.81,1.91l-.68,6.5c-.02.15-.09.21-.23.2l-1.07-.11c-.14-.01-.2-.09-.19-.24l1.11-10.64c.02-.15.09-.21.23-.2l1.07.11c.14.01.2.1.19.24l-.15,1.42s0,.07.02.07.04-.01.06-.04c.3-.53.66-.93,1.09-1.2.43-.27.92-.38,1.47-.32.42.04.77.17,1.04.37Z"/>
    <path class="cls-5" d="M51.59,162.05c-.19-.26-.27-.56-.23-.91s.18-.65.42-.85c.24-.2.54-.29.89-.25s.6.18.81.43c.2.25.28.56.24.92s-.18.63-.43.84c-.25.21-.54.3-.88.26s-.62-.18-.81-.44Z"/>
    <g>
      <path class="cls-5" d="M32.83,179.33s.04.04.02.08l-.16.49s-.04.05-.08.03c-.07-.04-.15-.06-.25-.07h-.09c-.2-.01-.38.04-.52.16-.15.12-.23.29-.25.51l-.2,1.96s-.03.07-.07.06l-.49-.05s-.06-.03-.06-.07l.34-3.28s.03-.06.07-.06l.49.05s.06.03.06.07l-.04.36s0,.02,0,.02c0,0,.01,0,.02,0,.23-.29.51-.42.84-.39.14.01.26.06.36.13Z"/>
      <path class="cls-5" d="M35.67,181.49s-.03.07-.07.06l-2.05-.21s-.03,0-.03.02c-.02.15-.02.27,0,.35.03.18.11.33.24.45s.31.18.53.21c.32.03.58-.08.78-.33.03-.04.05-.05.09-.01l.34.29s.03.06.01.09c-.14.19-.33.33-.56.42-.23.09-.49.12-.77.1-.31-.03-.57-.13-.77-.3s-.34-.39-.42-.66c-.08-.27-.09-.6-.05-.98.03-.33.08-.57.15-.74.11-.3.29-.53.54-.68.25-.15.54-.21.87-.18.43.05.75.19.94.44.19.25.29.59.29,1.04,0,.19-.02.39-.04.62ZM33.96,180.05c-.13.08-.22.2-.28.36-.04.1-.07.22-.1.37,0,.02,0,.03.02.03l1.47.15s.03,0,.03-.02c0-.15,0-.26,0-.33-.02-.18-.09-.33-.21-.45-.12-.12-.27-.19-.46-.21s-.34.01-.47.1Z"/>
      <path class="cls-5" d="M36.63,182.91c-.21-.2-.35-.45-.4-.75-.04-.21-.05-.49-.01-.82.03-.31.09-.58.18-.8.12-.28.3-.49.55-.63.25-.15.54-.2.86-.17s.59.15.82.34c.22.19.36.43.4.69.02.07.03.15.03.23,0,.04-.03.06-.06.06l-.49.02h-.01s-.05-.03-.06-.07v-.11c-.03-.16-.1-.29-.22-.41-.12-.12-.28-.18-.47-.2s-.35.02-.49.11c-.14.09-.24.22-.29.38-.06.16-.1.37-.12.63s-.03.47,0,.64c.02.18.09.33.21.45s.27.18.45.2.36-.01.5-.1.24-.21.3-.38c0,0,0,0,0-.02s0-.01,0-.02v-.03s.04-.05.08-.03l.47.13s.05.03.05.06v.03s-.02.09-.05.14c-.1.27-.28.47-.54.61-.26.14-.55.19-.87.16s-.6-.15-.81-.35Z"/>
      <path class="cls-5" d="M41.58,180.28c.19.12.32.27.41.45s.12.38.1.6l-.24,2.27s-.03.07-.07.06l-.49-.05s-.06-.03-.06-.07l.03-.24s0-.03-.03-.02c-.12.11-.27.19-.44.24-.17.05-.35.06-.55.04-.32-.03-.57-.14-.76-.33-.19-.19-.27-.45-.23-.79s.18-.61.44-.79c.25-.17.59-.24,1.01-.2l.72.07s.03,0,.03-.02l.02-.18c.02-.2-.02-.36-.12-.48s-.26-.19-.48-.22c-.18-.02-.33,0-.45.06s-.2.15-.24.28c-.02.04-.05.06-.08.05l-.51-.13s-.06-.03-.05-.06c.06-.26.22-.46.47-.61s.56-.2.91-.16c.26.03.49.1.67.22ZM41.05,182.89c.18-.11.28-.26.3-.45l.04-.4s0-.03-.02-.03l-.6-.06c-.25-.03-.46,0-.62.09s-.25.22-.27.41c-.02.17.03.3.13.39.1.1.25.15.43.17.23.02.43-.02.61-.13Z"/>
      <path class="cls-5" d="M42.53,183.67l.47-4.56s.03-.07.07-.06l.49.05s.06.03.06.07l-.47,4.56s-.03.07-.07.06l-.49-.05s-.06-.03-.06-.07Z"/>
      <path class="cls-5" d="M43.88,183.81l.47-4.56s.03-.07.07-.06l.49.05s.06.03.06.07l-.47,4.56s-.03.07-.07.06l-.49-.05s-.06-.03-.06-.07Z"/>
    </g>
    <g>
      <path class="cls-5" d="M46.65,185.44l.04-.4s.03-.06.07-.06h.01c.17.01.31,0,.41-.02.1-.03.19-.1.27-.2s.16-.26.24-.47c0,0,0-.02,0-.04l-.73-3.43v-.03s.02-.04.06-.04l.52.05s.06.02.07.06l.46,2.6s0,.01.02.02.02,0,.02-.01l.98-2.45s.04-.05.08-.05l.51.05s.06.03.04.08l-1.54,3.45c-.13.3-.25.52-.37.66-.11.14-.25.23-.42.28-.17.05-.39.05-.68.02h-.05s-.04-.03-.04-.08Z"/>
      <path class="cls-5" d="M50.21,184.33c-.22-.19-.36-.44-.42-.75-.05-.25-.06-.53-.03-.83s.1-.58.19-.79c.13-.29.31-.5.57-.64s.54-.2.87-.16c.31.03.57.14.78.34.21.19.35.44.42.74.05.24.06.51.03.82s-.1.58-.2.81c-.13.29-.31.51-.56.65-.25.14-.53.2-.84.17s-.59-.15-.8-.34ZM51.54,184.01c.14-.09.25-.22.32-.4.07-.16.11-.37.14-.62s.03-.46,0-.63c-.04-.19-.11-.34-.23-.45-.12-.11-.27-.18-.45-.2s-.33.02-.47.1c-.14.09-.25.22-.32.4-.06.15-.11.36-.14.62s-.03.47,0,.64c.03.19.11.34.23.45s.27.18.46.2c.17.02.33-.02.47-.1Z"/>
      <path class="cls-5" d="M55.46,181.63l.48.05s.06.03.06.07l-.34,3.28s-.03.07-.07.06l-.48-.05s-.06-.03-.06-.07l.03-.25s0-.02,0-.02c0,0-.01,0-.02,0-.2.23-.47.32-.83.29-.21-.02-.4-.08-.57-.19-.17-.1-.3-.24-.39-.42-.09-.18-.12-.38-.1-.62l.24-2.29s.03-.06.07-.06l.48.05s.06.03.06.07l-.22,2.09c-.02.23.02.42.12.57s.26.23.48.25.39-.03.54-.15c.14-.12.23-.3.25-.53l.22-2.09s.03-.06.07-.06Z"/>
      <path class="cls-5" d="M58.55,182s.04.04.02.08l-.16.49s-.04.05-.08.03c-.07-.04-.15-.06-.25-.07h-.09c-.2-.01-.38.04-.52.16-.15.12-.23.29-.25.51l-.2,1.96s-.03.07-.07.06l-.49-.05s-.06-.03-.06-.07l.34-3.28s.03-.06.07-.06l.49.05s.06.03.06.07l-.04.36s0,.02,0,.02c0,0,.01,0,.02,0,.23-.29.51-.42.84-.39.14.01.26.06.36.13Z"/>
    </g>
    <g>
      <path class="cls-5" d="M30.53,189.8c-.19-.1-.33-.23-.42-.38-.09-.15-.13-.31-.11-.48v-.07s.04-.07.08-.06l.46.05s.06.03.06.07v.03c-.02.13.04.24.16.35.12.11.28.17.48.19s.35,0,.48-.08c.13-.08.2-.18.21-.31s-.03-.23-.14-.31c-.1-.08-.28-.16-.52-.26-.24-.1-.43-.19-.59-.28-.16-.09-.29-.21-.39-.36s-.14-.33-.12-.54c.03-.3.17-.53.41-.68.24-.15.55-.21.93-.17.25.03.46.09.65.19s.32.23.4.39c.09.16.12.33.1.51v.02s-.03.07-.07.06l-.45-.05s-.06-.03-.06-.07v-.02c.02-.13-.03-.24-.15-.34s-.27-.16-.48-.18c-.19-.02-.35,0-.47.07-.13.06-.2.16-.21.29s.03.23.14.31c.11.08.28.17.53.27.24.1.44.19.6.28s.29.2.39.35c.1.15.14.33.12.55-.03.3-.17.53-.42.69-.25.15-.56.21-.94.17-.26-.03-.48-.09-.67-.19Z"/>
      <path class="cls-5" d="M35.46,187.04c.19.12.32.27.41.45s.12.38.1.6l-.24,2.27s-.03.07-.07.06l-.49-.05s-.06-.03-.06-.07l.03-.24s0-.03-.03-.02c-.12.11-.27.19-.44.24-.17.05-.35.06-.55.04-.32-.03-.57-.14-.76-.33-.19-.19-.27-.45-.23-.79s.18-.61.44-.79c.25-.17.59-.24,1.01-.2l.72.07s.03,0,.03-.02l.02-.18c.02-.2-.02-.36-.12-.48s-.26-.19-.48-.22c-.18-.02-.33,0-.45.06s-.2.15-.24.28c-.02.04-.05.06-.08.05l-.51-.13s-.06-.03-.05-.06c.06-.26.22-.46.47-.61s.56-.2.91-.16c.26.03.49.1.67.22ZM34.93,189.65c.18-.11.28-.26.3-.45l.04-.4s0-.03-.02-.03l-.6-.06c-.25-.03-.46,0-.62.09s-.25.22-.27.41c-.02.17.03.3.13.39.1.1.25.15.43.17.23.02.43-.02.61-.13Z"/>
      <path class="cls-5" d="M38.38,187.78l-.69-.07s-.03,0-.03.02l-.18,1.78c-.02.19,0,.33.08.42s.2.15.37.16l.19.02s.06.03.06.07l-.04.42s-.03.07-.07.06c-.14,0-.24-.01-.3-.02-.33-.03-.56-.12-.72-.26-.15-.14-.21-.38-.18-.71l.21-2.01s0-.03-.02-.03l-.39-.04s-.06-.03-.06-.07l.04-.4s.03-.06.07-.06l.39.04s.03,0,.03-.02l.08-.79s.03-.06.07-.06l.46.05s.06.03.06.07l-.08.79s0,.03.02.03l.69.07s.06.03.06.07l-.04.4s-.03.06-.07.06Z"/>
      <path class="cls-5" d="M41.25,187.55l.48.05s.06.03.06.07l-.34,3.28s-.03.07-.07.06l-.48-.05s-.06-.03-.06-.07l.03-.25s0-.02,0-.02c0,0-.01,0-.02,0-.2.23-.47.32-.83.29-.21-.02-.4-.08-.57-.19-.17-.1-.3-.24-.39-.42-.09-.18-.12-.38-.1-.62l.24-2.29s.03-.06.07-.06l.48.05s.06.03.06.07l-.22,2.09c-.02.23.02.42.12.57s.26.23.48.25.39-.03.54-.15c.14-.12.23-.3.25-.53l.22-2.09s.03-.06.07-.06Z"/>
      <path class="cls-5" d="M44.32,187.92s.04.04.02.08l-.16.49s-.04.05-.08.03c-.07-.04-.15-.06-.25-.07h-.09c-.2-.01-.38.04-.52.16-.15.12-.23.29-.25.51l-.2,1.96s-.03.07-.07.06l-.49-.05s-.06-.03-.06-.07l.34-3.28s.03-.06.07-.06l.49.05s.06.03.06.07l-.04.36s0,.02,0,.02c0,0,.01,0,.02,0,.23-.29.51-.42.84-.39.14.01.26.06.36.13Z"/>
      <path class="cls-5" d="M46.67,188.2c.19.12.32.27.41.45s.12.38.1.6l-.24,2.27s-.03.07-.07.06l-.49-.05s-.06-.03-.06-.07l.03-.24s0-.03-.03-.02c-.12.11-.27.19-.44.24-.17.05-.35.06-.55.04-.32-.03-.57-.14-.76-.33-.19-.19-.27-.45-.23-.79s.18-.61.44-.79c.25-.17.59-.24,1.01-.2l.72.07s.03,0,.03-.02l.02-.18c.02-.2-.02-.36-.12-.48s-.26-.19-.48-.22c-.18-.02-.33,0-.45.06s-.2.15-.24.28c-.02.04-.05.06-.08.05l-.51-.13s-.06-.03-.05-.06c.06-.26.22-.46.47-.61s.56-.2.91-.16c.26.03.49.1.67.22ZM46.14,190.82c.18-.11.28-.26.3-.45l.04-.4s0-.03-.02-.03l-.6-.06c-.25-.03-.46,0-.62.09s-.25.22-.27.41c-.02.17.03.3.13.39.1.1.25.15.43.17.23.02.43-.02.61-.13Z"/>
      <path class="cls-5" d="M49.59,188.95l-.69-.07s-.03,0-.03.02l-.18,1.78c-.02.19,0,.33.08.42s.2.15.37.16l.19.02s.06.03.06.07l-.04.42s-.03.07-.07.06c-.14,0-.24-.01-.3-.02-.33-.03-.56-.12-.72-.26-.15-.14-.21-.38-.18-.71l.21-2.01s0-.03-.02-.03l-.39-.04s-.06-.03-.06-.07l.04-.4s.03-.06.07-.06l.39.04s.03,0,.03-.02l.08-.79s.03-.06.07-.06l.46.05s.06.03.06.07l-.08.79s0,.03.02.03l.69.07s.06.03.06.07l-.04.4s-.03.06-.07.06Z"/>
      <path class="cls-5" d="M50.51,187.85c-.07-.09-.1-.2-.08-.32s.06-.22.15-.3c.09-.07.19-.1.31-.09s.21.06.28.15c.07.09.1.2.08.32s-.06.22-.15.3-.19.1-.31.09-.21-.06-.28-.15ZM50.07,191.84l.34-3.27s.03-.06.07-.06l.49.05s.06.03.06.07l-.34,3.27s-.03.07-.07.06l-.49-.05s-.06-.03-.06-.07Z"/>
      <path class="cls-5" d="M51.98,191.91c-.22-.19-.36-.44-.42-.75-.05-.25-.06-.53-.03-.83s.1-.58.19-.79c.13-.29.31-.5.57-.64s.54-.2.87-.16c.31.03.57.14.78.34.21.19.35.44.42.74.05.24.06.51.03.82s-.1.58-.2.81c-.13.29-.31.51-.56.65-.25.14-.53.2-.84.17s-.59-.15-.8-.34ZM53.31,191.59c.14-.09.25-.22.32-.4.07-.16.11-.37.14-.62s.03-.46,0-.63c-.04-.19-.11-.34-.23-.45-.12-.11-.27-.18-.45-.2s-.33.02-.47.1c-.14.09-.25.22-.32.4-.06.15-.11.36-.14.62s-.03.47,0,.64c.03.19.11.34.23.45s.27.18.46.2c.17.02.33-.02.47-.1Z"/>
      <path class="cls-5" d="M57.49,189.51c.18.23.26.53.22.89l-.23,2.21s-.03.07-.07.06l-.49-.05s-.06-.03-.06-.07l.22-2.09c.02-.22-.02-.41-.13-.56-.11-.15-.27-.24-.47-.26s-.37.03-.52.16c-.14.13-.23.3-.25.52l-.22,2.09s-.03.07-.07.06l-.49-.05s-.06-.03-.06-.07l.34-3.28s.03-.06.07-.06l.49.05s.06.03.06.07l-.03.24s0,.02,0,.02c0,0,.01,0,.02,0,.21-.23.49-.32.86-.28s.62.17.8.41Z"/>
    </g>
  </g>
  <path class="cls-3" d="M73.68,117.44l-.05.44-60.55-6.3.05-.44c.64-6.18,5.26-10.98,11.06-12.12.02,0,.04,0,.05-.01,5.29-1.14,7.5-5.92,8.29-8.33.01-.03.02-.05.02-.08,2.07.06,7.21.26,13.23.85,6.01.65,11.08,1.52,13.12,1.89,0,.02,0,.05,0,.08.28,2.52,1.45,7.66,6.39,9.86.02,0,.03.02.05.02,5.43,2.31,8.97,7.96,8.32,14.14Z"/>
  <path class="cls-3" d="M61.15,237.95l-.02.24c-.79,7.59-7.58,13.1-15.17,12.31l-33.07-3.44c-7.59-.79-13.1-7.58-12.31-15.17l.02-.24,60.55,6.3Z"/>
  <path class="cls-1" d="M61.72,91.44l-.06.62c-.09.89-.9,1.54-1.79,1.45,0,0-.34-.06-.96-.18-2.04-.37-7.11-1.23-13.12-1.89-6.02-.6-11.16-.79-13.23-.85-.63-.02-.97-.02-.97-.02-.89-.09-1.55-.89-1.45-1.79l.06-.62c.06.02.13.03.2.04l31.12,3.24c.07,0,.14,0,.21,0Z"/>
  <path class="cls-1" d="M64.9,73.3l-1.75,16.81c-.08.75-.7,1.31-1.44,1.34-.07,0-.14,0-.21,0l-31.12-3.24c-.07,0-.14-.02-.2-.04-.71-.17-1.21-.85-1.13-1.6l1.75-16.81c.09-.82.82-1.42,1.64-1.33l31.12,3.24c.82.09,1.42.82,1.33,1.64Z"/>
  <path class="cls-1" d="M33.17,68.49c1.98-2.72,2.07-13.09,2.07-13.09.61-.04,1.23-.07,1.85-.09,4.17-.15,8.48.1,12.4.5,3.92.42,8.19,1.06,12.24,2.06.6.15,1.2.31,1.79.47,0,0-2.04,10.17-.67,13.24l-29.68-3.09Z"/>
  <path class="cls-1" d="M61.73,57.87c-4.05-1-8.32-1.65-12.24-2.06-3.92-.4-8.23-.65-12.4-.5.44-1.33,1.07-3.63.89-5.36.29-.05.84-.14,1.63-.23,2.03-.22,5.65-.4,10.49.18,4.86.43,8.36,1.35,10.3,1.98.76.25,1.28.45,1.55.56-.53,1.65-.38,4.04-.23,5.43Z"/>
  <path class="cls-1" d="M62.15,35.21l-1.73,16.67c-1.94-.63-5.44-1.56-10.3-1.98-4.84-.58-8.46-.4-10.49-.18l1.73-16.67c.1-1.01,1.01-1.74,2.01-1.63l17.15,1.78c1,.1,1.74,1,1.63,2.01Z"/>
  <ellipse class="cls-1" cx="55.37" cy="41.16" rx="3.73" ry="3.14" transform="translate(8.7 91.97) rotate(-84.06)"/>
  <g>
    <line class="cls-4" x1="60.03" y1=".5" x2="51.56" y2="81.9"/>
    <line class="cls-4" x1="15.1" y1="36.97" x2="96.5" y2="45.44"/>
    <line class="cls-4" x1="39.11" y1="3.84" x2="72.48" y2="78.57"/>
    <line class="cls-4" x1="31.78" y1="74.33" x2="79.82" y2="8.07"/>
    <line class="cls-4" x1="88.93" y1="65.22" x2="22.67" y2="17.18"/>
    <line class="cls-4" x1="18.43" y1="57.89" x2="93.16" y2="24.52"/>
    <line class="cls-4" x1="49.35" y1=".79" x2="62.24" y2="81.61"/>
    <line class="cls-4" x1="15.39" y1="47.65" x2="96.21" y2="34.76"/>
    <line class="cls-4" x1="30.01" y1="9.43" x2="81.58" y2="72.98"/>
    <line class="cls-4" x1="41.17" y1="79.42" x2="70.42" y2="2.98"/>
    <line class="cls-4" x1="94.02" y1="55.83" x2="17.58" y2="26.58"/>
    <line class="cls-4" x1="24.02" y1="66.99" x2="87.57" y2="15.42"/>
  </g>
</svg>