<?xml version="1.0" encoding="UTF-8"?>
<svg id="Layer_1" data-name="Layer 1" xmlns="http://www.w3.org/2000/svg" version="1.1" viewBox="0 0 247 216.02">
  <defs>
    <style>
      .cls-1 {
        fill: #0071bb;
      }

      .cls-1, .cls-2, .cls-3, .cls-4 {
        stroke: #2b5daa;
        stroke-linecap: round;
        stroke-linejoin: round;
      }

      .cls-2 {
        fill: #33a1db;
      }

      .cls-3 {
        fill: none;
      }

      .cls-4 {
        fill: #fff;
      }
    </style>
  </defs>
  <path class="cls-1" d="M111.94,105.06c4.21,3.6,11.38,4.83,16.44,5.39,1,.11,2.1.16,2.89-.46.83-.65,1.03-1.81,1.14-2.86,1.02-9.57.13-19.35-2.59-28.58-2.47-8.39-6.46-16.45-7.15-25.16-.74-9.27,2.39-18.54,7.27-26.45,7.05-11.45,17.87-20.53,30.37-25.49,1.54-.61,3.2-1.17,4.82-.84s3.11,1.88,2.78,3.5c-.24,1.15-1.25,1.95-2.22,2.6-6.2,4.21-13.42,6.87-19.12,11.73-9.27,7.9-13.1,20.29-16.51,31.98-.45,1.56-.7,3.65.74,4.41.93.49,2.07.07,3.03-.35,2.58-1.12,5.15-2.23,7.73-3.35,1.25-.54,2.55-1.12,3.47-2.13,1.2-1.32,1.57-3.18,1.69-4.95.37-5.46-1.08-11.62,2.3-15.93,3.06-3.91,8.72-4.42,13.04-6.88,3.81-2.18,6.52-5.87,10.13-8.36,3.67-2.53,8.25-3.7,12.69-3.26,1.43.14,3.06.62,3.58,1.96.58,1.5-.68,3.15-2.16,3.8s-3.14.66-4.68,1.13c-4.43,1.32-7.01,5.96-11.06,8.19-4.53,2.5-10.65,1.87-14.33,5.51-4.97,4.92-1.97,13.87-5.62,19.83-3.26,5.33-10.88,6.75-14,12.17-.92,1.6-1.33,3.69-.33,5.24.37.58.91,1.02,1.41,1.49,6.21,5.79,7.66,15.25,6.3,23.64s-5.08,16.17-7.79,24.22c-.8,2.37-1.31,5.46.7,6.95,1.1.82,2.63.81,3.93.38,2.46-.82,4.37-3.09,4.75-5.66.21-1.42-.02-2.88.18-4.31.63-4.58,5.17-7.37,8.24-10.82,4.33-4.86,5.91-11.57,6.57-18.04.66-6.48.54-13.07,2.13-19.39,2.44-9.71,9.02-18.3,17.76-23.18,2.02-1.13,5.25-1.65,6.03.52.62,1.7-1.03,3.32-2.48,4.41-4.83,3.63-9.56,7.57-12.83,12.65-3.27,5.08-4.92,11.49-3.13,17.26.67,2.15,1.8,4.17,2.21,6.39,1.08,5.89-3.07,11.37-7.21,15.69-4.14,4.32-8.83,8.98-9.22,14.95-.09,1.4.09,2.88.88,4.04,1.7,2.5,5.29,2.57,8.3,2.37,3.79-.25,7.79-.57,10.9-2.74,3.64-2.54,5.27-7.04,8.05-10.5,7.02-8.73,20.16-9.69,28.68-16.98,5.92-5.07,10.34-13.5,18.13-13.8.78-.03,1.61.05,2.25.49.95.66,1.23,1.92,1.89,2.87,1.48,2.08,4.43,2.23,6.94,2.7s5.42,2.29,4.9,4.79c-.5,2.43-3.87,3.02-6.17,2.09s-4.19-2.77-6.59-3.4c-5.11-1.33-9.65,3.13-13.67,6.55-11,9.34-26.68,13.61-34.16,25.95-.56.92-1.07,2.04-.64,3.03.71,1.63,3.09,1.33,4.74.67,7.32-2.96,13.71-7.83,20.89-11.1,4.34-1.98,9.13-3.32,13.93-3.2,2.39.06,4.55.62,6.8,1.34.55.18,1.12.43,1.44.91,1.04,1.53-1.57,2.53-2.64,2.65-1.47.17-2.94-.21-4.41-.37-3.87-.4-7.89.89-10.81,3.47-1.38,1.22-2.57,3.19-1.69,4.81.87,1.6,3.1,1.7,4.92,1.57,6.59-.47,13.53-1.05,19.49,1.8,7.22,3.46,11.55,12.1,9.99,19.95-.33,1.64-.92,3.31-2.16,4.44s-3.23,1.55-4.61.6c-2.61-1.81-.86-5.82-.78-9,.11-4.47-3.81-8.17-8.06-9.55s-8.83-1.03-13.3-1.13-9.23-.79-12.5-2.36c-3.28-1.57-6.27-1.51-8.8-.16-2.53,1.34-4.4,4.4-3.43,7.09.48,1.33,1.55,2.37,2.65,3.25,8.08,6.52,19.43,8.02,27.21,14.9,4.25,3.76,7.4,9.1,12.7,11.13,2.34.9,4.94,1.06,7.22,2.11,1.2.55,4.43,2.87,3.82,4.51-.22.58-.92.86-1.54.81s-1.18-.36-1.74-.64c-8.49-4.25-18.6-1.3-26.84-6.04-5.86-3.36-9.54-10.26-16.03-12.1-5.25-1.49-11,.91-14.92,4.71-3.92,3.8-6.38,8.83-8.77,13.74-3.22,6.64-6.53,13.88-5.08,21.12.5,2.5,1.57,4.98,1.19,7.5s-3.15,4.9-5.37,3.65c-1.69-.95-1.92-3.24-1.96-5.17-.15-7.29-.21-14.93,3.14-21.39,1.89-3.64,4.8-6.75,6.19-10.62,1.38-3.87.51-9.1-3.3-10.64-3.44-1.39-7.32.98-9.57,3.93-2.25,2.95-3.61,6.56-6.17,9.24-2.77,2.89-6.97,4.81-8.01,8.68-.52,1.94-.1,4.01-.33,6.01-.24,2-1.58,4.19-3.59,4.17-2.48-.03-3.58-3.19-3.46-5.67.27-5.62,3.35-11.03,8.04-14.12,1.72-1.14,3.8-2.16,4.43-4.13.83-2.62-1.7-5.36-4.43-5.69-2.73-.33-5.36,1.04-7.61,2.61-5.84,4.07-10.48,9.83-13.23,16.4-1.61,3.85-2.65,8.08-5.4,11.21-5,5.7-13.94,5.97-19.86,10.72-4.85,3.89-7.46,9.97-13.63,12.16-.6.21-1.33.27-1.82-.13-1.17-.94-.71-3.53-.29-4.72.68-1.92,2.05-3.61,3.54-4.97,5.32-4.85,11.82-8.16,17.78-12.19s11.64-9.15,13.94-15.97c2.3-6.82.09-15.56-6.39-18.68-4.57-2.2-10.2-1.17-14.47,1.56-4.27,2.73-7.39,6.93-10.03,11.25-2.52,4.13-5,8.75-9.4,10.76-5.76,2.62-12.5-.23-18.78.51-10.57,1.24-17.18,11.96-20.83,21.95-1.79,4.9-3.35,10.07-6.77,14.01-.74.86-1.91,1.71-2.92,1.19-.9-.46-1.01-1.68-.98-2.69.67-19.5,13.04-38.15,30.75-46.35,7.57-3.5,15.84-5.17,23.72-7.92,7.88-2.75,15.71-6.88,20.32-13.83,1.73-2.61,2.52-6.91-.31-8.25-.79-.38-1.7-.4-2.58-.35-3.88.23-7.56,1.78-11.39,2.41-3.84.63-8.3.07-10.69-2.99-2.25-2.88-2.6-7.71-6.12-8.71-4.41-1.25-6.8,4.78-9.37,8.58-4.28,6.32-14.43,7.49-20.05,2.32-6.51-5.99-6.03-17.23-12.87-22.85-6.96-5.72-18.24-2.9-25.33-8.47C.63,101.31.31,92.03.55,84.01c.18-6.12.36-12.24.55-18.36.08-2.62.35-5.45,1.39-7.88.78-1.82,2.79-5.65,5.19-4.22,2.93,1.75.47,9.15.09,11.54-1.05,6.64-1.16,13.43-.33,20.1.42,3.33,1.08,6.69,2.65,9.66,1.57,2.97,4.14,5.54,7.36,6.47,4.37,1.26,9.07-.59,13.57.06,3.73.54,7.06,2.8,9.45,5.71s3.92,6.43,5.07,10.02c1,3.14,1.78,6.45,3.77,9.07,1.99,2.62,5.66,4.35,8.64,2.93,2.1-1,3.32-3.32,3.63-5.62s-.16-4.64-.62-6.92c-1.03-5.1-2.14-10.38-5.22-14.57-4.27-5.8-11.47-8.46-18.05-11.4-6.58-2.93-13.48-7.09-15.58-13.98-1.56-5.1-.13-10.71-1.54-15.85-.88-3.19-2.92-6.23-3.12-9.59-.15-2.68,1.85-6.85,4.8-3.65.85.93,1.22,2.19,1.5,3.42,1.13,4.96,1.31,10.1,2.43,15.06,1.12,4.96,3.41,9.96,7.65,12.78,4.96,3.29,11.39,2.92,17.21,4.18,7.7,1.66,14.66,6.48,18.94,13.09,4.54,7.02,5.97,15.56,9.3,23.22,1.1,2.53,2.47,5.04,4.67,6.7,4.77,3.61,11.52,2.07,17.25.34,2.05-.62,4.16-1.27,5.78-2.67s2.61-3.76,1.79-5.73c-.41-.99-1.22-1.76-2.02-2.47-7.1-6.27-15.82-10.5-22.76-16.94-6.95-6.43-12.06-16.38-8.84-25.28.52-1.45,1.26-2.84,1.48-4.36.57-3.87-2.24-7.69-1.51-11.53.28-1.5,1.09-2.87,1.39-4.37.58-2.95-1-6.04-3.41-7.84-2.4-1.8-5.49-2.48-8.49-2.56-3.62-.1-7.36.59-10.79-.54-3.44-1.13-6.34-5.14-4.61-8.32.71-1.31,2.14-2.56,1.65-3.96-.22-.63-.78-1.06-1.3-1.49-2.91-2.41-5.03-5.75-5.97-9.41-.68-2.66-.35-6.15,3.01-6.6,2.92-.39,5.02,2.48,4.67,5.18-.11.88-.45,1.73-.47,2.62-.03,1.23.54,2.4,1.1,3.5.99,1.96,1.99,3.93,2.98,5.89.99,1.97,2.1,4.05,4.04,5.1,2.4,1.29,5.32.63,8.04.58,6.2-.11,12.24,3.35,15.68,8.51,3.44,5.16,4.34,11.83,2.87,17.85-.49,2.02-1.24,4.09-.82,6.13.37,1.75,1.55,3.2,2.41,4.77,2.21,4.03,2.26,8.84,3.04,13.37s2.82,9.42,7.09,11.11c2.96,1.17,6.48.57,9.26,2.13,1.89,1.06,2.69,2.91,3.97,4.53.43.55.93,1.05,1.47,1.51Z"/>
  <path class="cls-2" d="M123.98,142.66c1.62,4.29,6.97,5.54,11.5,6.18,3.22.45,6.46.91,9.7.75,7.38-.36,14.48-3.84,21.84-3.27,4.07.32,8.53,1.79,11.97-.41,3.12-2,3.9-6.53,2.42-9.92-1.48-3.4-4.72-5.74-8.15-7.15-2.1-.86-4.36-1.44-6.62-1.29-3.76.25-7.12,2.43-10.82,3.12-3.5.65-7.2-.04-10.59,1.05-1.61.52-3.08,1.42-4.71,1.87-2.45.68-5.05.29-7.58.12s-5.27-.03-7.32,1.48-2.66,4.78-1.64,7.47Z"/>
  <g>
    <path class="cls-3" d="M115.19,143.09s-2.91-12.58,7.8-16.06"/>
    <path class="cls-3" d="M110.22,130.79s2.55-9.02,8.69-9.86"/>
    <path class="cls-3" d="M121.3,134.08s1.31-4.6,10.05-4.32"/>
    <path class="cls-3" d="M125.34,149.2s5.73,6.95,18.03,4.7"/>
    <path class="cls-3" d="M126.32,154.64s4.18,5.26,11.32,3.19"/>
    <path class="cls-3" d="M183.85,150.23s7.42-5.73,3.94-13.52"/>
    <path class="cls-3" d="M190.8,147.88s3.47-3.01,1.78-8.55"/>
  </g>
  <g>
    <path class="cls-4" d="M77.1,76.75c-.91,1.08.03,3.66,1.63,4.02.72.16,1.59-.11,2.05-.73.78-1.05.23-2.91-1.04-3.57-.85-.44-2.08-.39-2.64.28Z"/>
    <path class="cls-4" d="M95.66,100.66c-.64,1.33,1.31,3.82,3.41,4.93,1.67.88,4.52,1.45,5.46.13.86-1.19-.14-3.49-1.48-4.72-2.33-2.13-6.65-1.88-7.39-.34Z"/>
    <path class="cls-4" d="M113.79,115.72c.16,1.73,4.04,3.29,7.1,2.39,1.41-.42,3.41-1.59,3.37-2.93-.05-1.65-3.17-3.21-5.85-2.88-2.27.27-4.75,1.96-4.61,3.42Z"/>
    <path class="cls-4" d="M82.75,85.74c-1.09.88-.97,2.84-.22,4.08.8,1.32,2.69,2.41,4.08,1.64,1.38-.76,1.56-2.96.75-4.35-.94-1.62-3.36-2.39-4.61-1.37Z"/>
    <path class="cls-4" d="M80.84,68.8c-1.45.43-2.2,2.27-1.64,3.73.59,1.52,2.52,2.32,3.86,1.6,1.04-.56,1.44-1.88,1.24-2.93-.29-1.51-1.92-2.86-3.46-2.39Z"/>
    <path class="cls-4" d="M78.76,55.14c-1.06.62-1.48,2.46-.58,3.55.59.71,1.6.94,2.44.71,1.08-.29,1.88-1.33,1.82-2.31-.1-1.54-2.35-2.73-3.68-1.95Z"/>
    <path class="cls-4" d="M57.42,37.75c-.36,1,.2,2.41,1.37,2.93.88.39,1.99.24,2.71-.49.92-.94.84-2.49.09-3.28-1.11-1.17-3.63-.63-4.17.84Z"/>
    <path class="cls-4" d="M70.8,39.75c-.41.91.87,2.59,2.4,3.1,1.18.4,2.87.24,3.24-.62.38-.9-.8-2.32-2.04-2.88-1.31-.59-3.2-.46-3.59.4Z"/>
    <path class="cls-4" d="M20.21,50.75c-.99.72-.8,2.68.27,3.37.51.33,1.26.38,1.82.04.95-.58,1.17-2.23.31-3.1-.62-.64-1.73-.79-2.4-.31Z"/>
    <path class="cls-4" d="M23.5,71.94c-.59.74-.18,1.93.52,2.52.63.53,1.69.72,2.24.25.75-.65.48-2.47-.61-3.07-.64-.35-1.65-.31-2.15.31Z"/>
    <path class="cls-4" d="M40.37,87.55c-.06,1.06,1.84,1.95,3.16,2.21.64.13,2.27.45,2.89-.42.61-.85,0-2.44-1.01-3.19-1.25-.92-2.81-.34-3.19-.2-.29.11-1.8.67-1.85,1.59Z"/>
    <path class="cls-4" d="M47.84,135.08c.23,1.62,2.12,2.67,3.74,2.32,1.4-.3,2.57-1.65,2.45-2.96-.16-1.77-2.61-3.05-4.38-2.32-1.08.45-1.99,1.69-1.8,2.96Z"/>
    <path class="cls-4" d="M53.19,87.46c-.31.73.44,1.81,1.37,2.1.77.24,1.88,0,2.14-.74.25-.73-.45-1.57-1.14-1.88-.83-.38-2.06-.2-2.36.52Z"/>
    <path class="cls-4" d="M55.47,94.7c-.53,1.13.67,3.07,2.26,3.73.9.37,2.57.59,3.37-.44.79-1.03.26-2.67-.58-3.5-1.46-1.45-4.44-1.09-5.06.22Z"/>
    <path class="cls-4" d="M63.77,96.55c-.97.96-.61,2.84.49,3.73.9.73,2.49.95,3.37,0,.89-.96.53-2.52-.27-3.37-.92-.98-2.67-1.27-3.59-.35Z"/>
    <path class="cls-4" d="M60.53,105.5c-.5,1,.31,2.34,1.17,2.98,1.11.82,2.98.99,3.69.04.73-.98,0-2.88-1.31-3.61-1.17-.65-3-.48-3.54.6Z"/>
    <path class="cls-4" d="M70.42,117.37c-1.27.69-1.6,3.03-.49,4.04.72.65,1.84.57,2.57.27.87-.36,1.73-1.25,1.69-2.22-.07-1.53-2.39-2.84-3.77-2.08Z"/>
    <path class="cls-4" d="M62.94,126.95c-.45.47-.53,1.27-.21,1.89.36.68,1.16,1.05,1.89.86.97-.26,1.46-1.45,1.1-2.26-.44-.98-2.04-1.24-2.78-.48Z"/>
    <path class="cls-4" d="M29.79,106.5c-1.02,1.3-.35,3.7,1.15,4.88,1.41,1.1,3.86,1.35,4.97-.04.99-1.25.45-3.25-.53-4.35-1.45-1.62-4.44-1.95-5.59-.49Z"/>
    <path class="cls-4" d="M22.81,104.77c-.46.58-.82,1.57-.44,2.31.78,1.53,4.44,1.53,5.19.04.43-.85-.09-2.25-1.11-2.93-1.18-.78-2.81-.46-3.64.58Z"/>
    <path class="cls-4" d="M5.44,98.03c-.82.97-.47,2.45.27,3.24,1.08,1.17,3.3,1.17,4.08,0,.69-1.04.09-2.77-1.11-3.5-.9-.55-2.41-.71-3.24.27Z"/>
    <path class="cls-4" d="M4.6,59.31c-1.53.4-2.18,3.14-1.2,4.08.59.56,1.73.46,2.48,0,.96-.59,1.59-1.94,1.02-3.02-.44-.84-1.5-1.28-2.31-1.06Z"/>
    <path class="cls-4" d="M3.67,72.84c-.54.51-.83,1.53-.35,2.04.5.53,1.75.38,2.17-.4.43-.79-.16-1.91-.84-2.04-.47-.09-.88.3-.98.4Z"/>
    <path class="cls-4" d="M14.54,103.31c-.74.58-.97,1.83-.4,2.39.49.48,1.4.27,1.91,0,.75-.4,1.41-1.36,1.11-2.04-.33-.75-1.78-1.01-2.62-.35Z"/>
    <path class="cls-4" d="M84.69,129.49c-.92.48-1.25,1.77-.98,2.75.37,1.34,1.86,1.99,3.05,1.92,1.04-.06,2.39-.7,2.54-1.74.18-1.28-1.55-2.23-2.01-2.48-.64-.35-1.68-.93-2.6-.44Z"/>
    <path class="cls-4" d="M90.63,132.86c-.54.34-.97,1.09-.74,1.71.29.77,1.45,1.01,2.25.65.67-.31,1.21-1.11,1.01-1.74-.26-.81-1.65-1.16-2.51-.62Z"/>
    <path class="cls-4" d="M104.55,129.19c-1.45.34-2.65,1.88-2.34,3.19.36,1.5,2.61,2.19,4.17,1.6.91-.35,1.95-1.26,1.92-2.37-.04-1.5-2.03-2.83-3.76-2.42Z"/>
    <path class="cls-4" d="M108.87,110.74c-.76.82-.59,2.2.18,2.99.69.71,1.92.97,2.78.35.98-.7,1.07-2.21.33-3.13-.8-.99-2.44-1.12-3.28-.21Z"/>
    <path class="cls-4" d="M126.76,113.05c-.89.46-1.42,1.72-.89,2.57.5.8,1.68.85,2.45.5.74-.34,1.42-1.18,1.24-1.98-.22-1.01-1.74-1.64-2.81-1.09Z"/>
    <path class="cls-4" d="M136.64,92.94c-.64.7-1.2,1.96-.71,2.87.7,1.29,3.41,1.57,4.64.15.88-1.02.98-2.87-.06-3.76-1.12-.95-2.96-.26-3.87.74Z"/>
    <path class="cls-4" d="M138.29,80.26c-2.08.52-3.33,3.41-2.37,4.85.82,1.22,3.22,1.36,4.67.24.92-.71,1.83-2.22,1.21-3.61-.61-1.36-2.32-1.78-3.52-1.48Z"/>
    <path class="cls-4" d="M128.42,61.69c-1,1.19-1.13,3.24.21,4.38,1.31,1.12,3.31.74,4.29-.41,1.28-1.52.61-4.18-1.09-4.91-1.16-.49-2.6,0-3.4.95Z"/>
    <path class="cls-4" d="M125.07,45.46c-1.34,1.16-1.15,3.6.12,4.41.86.55,2.04.24,2.75-.24,1.15-.77,1.97-2.56,1.12-3.81-.84-1.24-2.87-1.32-3.99-.35Z"/>
    <path class="cls-4" d="M130.46,32.36c-.4.43-.57,1.24-.15,1.74.37.43,1.01.43,1.42.3.84-.28,1.41-1.37,1.06-1.98-.36-.64-1.7-.75-2.34-.06Z"/>
    <path class="cls-4" d="M139.21,19.73c-.8.83-.65,2.43.15,2.87.74.41,1.95-.24,2.4-1.15.26-.53.4-1.46-.15-1.98-.62-.6-1.8-.36-2.4.27Z"/>
    <path class="cls-4" d="M135.07,23.67c-.76.8-.74,2.32.12,2.87.68.43,1.71.13,2.25-.5.69-.81.64-2.25-.21-2.78-.67-.42-1.64-.14-2.16.41Z"/>
    <path class="cls-4" d="M149.68,10.24c-1.14.47-1.82,2.02-1.33,2.69.36.5,1.32.47,1.95.21,1.12-.46,1.85-1.94,1.39-2.63-.35-.52-1.34-.54-2.01-.27Z"/>
    <path class="cls-4" d="M152.66,7.31c-.57.66-.45,1.66,0,2.22.79.97,2.71.78,3.19-.18.36-.71-.07-1.83-.92-2.31-.65-.37-1.68-.42-2.28.27Z"/>
    <path class="cls-4" d="M159.05,4.59c-.31.58-.15,1.34.27,1.77.77.8,2.48.54,2.87-.38.27-.64-.12-1.53-.8-1.92-.77-.45-1.91-.25-2.34.53Z"/>
    <path class="cls-4" d="M177.03,12.55c-.7.83-.59,2.08.15,2.78.88.84,2.42.68,3.1-.33.57-.83.42-2.05-.41-2.72-.85-.69-2.13-.58-2.84.27Z"/>
    <path class="cls-4" d="M182.5,11.96c-.29.47-.29,1.13.03,1.57.62.85,2.4.71,2.84-.21.27-.57.02-1.42-.59-1.83-.74-.51-1.83-.26-2.28.47Z"/>
    <path class="cls-4" d="M170.28,18.08c-.79,1.08-.86,2.84.03,3.49.97.71,2.87-.09,3.58-1.42.51-.95.56-2.48-.33-3.1-.96-.68-2.54.03-3.28,1.03Z"/>
    <path class="cls-4" d="M161.35,23.72c-.47.57-.28,1.54.24,1.95.8.65,2.42-.03,2.54-.86.09-.62-.64-1.38-1.45-1.51-.1-.02-.89-.13-1.33.41Z"/>
    <path class="cls-4" d="M150.15,29.67c-.59.59-.59,1.6-.09,2.22.69.84,2.17.75,2.75-.09.37-.54.31-1.31-.06-1.83-.57-.79-1.88-1.02-2.6-.3Z"/>
    <path class="cls-4" d="M146.72,49.51c-.25.53-.16,1.34.38,1.63.55.29,1.27-.13,1.57-.65.31-.55.24-1.38-.27-1.69-.55-.33-1.39.08-1.69.71Z"/>
    <path class="cls-4" d="M148.43,124.67c-1.13.71-1.41,2.53-.44,3.46.91.88,2.61.67,3.34-.41.55-.8.52-2.02-.27-2.78-.74-.71-1.87-.74-2.63-.27Z"/>
    <path class="cls-4" d="M149.53,113.29c-1.04.74-.98,2.73.15,3.46.73.47,1.9.41,2.57-.38.67-.79.54-1.94-.09-2.66-.69-.78-1.9-.93-2.63-.41Z"/>
    <path class="cls-4" d="M152.69,107.22c-.53.55-.41,1.65.15,1.92.44.21,1.09-.11,1.39-.59.29-.47.33-1.23-.15-1.57-.43-.3-1.06-.11-1.39.24Z"/>
    <path class="cls-4" d="M163.57,87.77c-1.1.93-1.38,2.84-.33,3.84.99.94,2.74.7,3.67-.33.87-.96,1.03-2.63.03-3.58-.95-.89-2.48-.69-3.37.06Z"/>
    <path class="cls-4" d="M164.58,81.12c-.74.66-.84,1.91-.12,2.6.63.61,1.66.57,2.31.06.79-.62.97-1.93.24-2.66-.65-.64-1.76-.6-2.42,0Z"/>
    <path class="cls-4" d="M165.58,61.6c-.76.64-.8,1.96-.09,2.54.5.41,1.26.37,1.77.06.84-.52,1.15-1.87.47-2.57-.54-.55-1.55-.54-2.16-.03Z"/>
    <path class="cls-4" d="M176.01,48.92c-.41.64-.42,1.63.09,2.01.64.49,2.09-.02,2.34-1.01.17-.7-.27-1.63-1.01-1.77-.62-.12-1.17.39-1.42.77Z"/>
    <path class="cls-4" d="M179.57,44.66c-.79.61-.95,1.87-.33,2.57.72.81,2.28.64,2.87-.33.43-.72.29-1.8-.47-2.34-.65-.45-1.51-.35-2.07.09Z"/>
    <path class="cls-4" d="M164.19,67.16c-.84.84-.56,2.54.33,2.96.54.25,1.21,0,1.6-.33.84-.69,1.06-2.24.27-2.87-.6-.47-1.63-.32-2.19.24Z"/>
    <path class="cls-4" d="M171.05,122.6c-.54.65-.66,1.69-.09,2.37.67.79,2,.76,2.72.03.8-.82.65-2.33-.27-2.9-.74-.46-1.8-.18-2.37.5Z"/>
    <path class="cls-4" d="M177.17,119.2c-.77.74-.74,1.95-.15,2.69.78.97,2.44,1,3.19.03.6-.77.49-2.01-.3-2.72-.76-.68-1.98-.74-2.75,0Z"/>
    <path class="cls-4" d="M185.3,107.28c-1.03.89-.96,2.65.09,3.55,1.01.87,2.66.72,3.43-.33.64-.88.47-2.13-.21-2.9-.81-.92-2.35-1.16-3.31-.33Z"/>
    <path class="cls-4" d="M189.59,104.44c-.38.7-.08,1.54.44,1.98.69.58,1.83.52,2.34-.12.6-.76.17-2.17-.8-2.54-.66-.26-1.59-.05-1.98.68Z"/>
    <path class="cls-4" d="M211.74,93.53c-.45.19-1.84.8-1.77,1.42.07.69,1.98,1.49,3.08.71.72-.51,1.13-1.74.62-2.25-.36-.36-1.16-.34-1.92.12Z"/>
    <path class="cls-4" d="M220.93,83.04c-.44.79-.38,1.87.21,2.48,1.06,1.11,3.69.46,4.11-1.01.24-.82-.24-1.82-1.01-2.31-1.09-.7-2.68-.3-3.31.83Z"/>
    <path class="cls-4" d="M226.7,81.68c-.25.65.14,1.41.65,1.8.75.57,2.06.54,2.54-.27.42-.71.05-1.74-.65-2.19-.86-.55-2.21-.21-2.54.65Z"/>
    <path class="cls-4" d="M235.07,85.23c-.32.74.33,1.63,1.03,1.95.61.28,1.51.26,1.89-.27.48-.67,0-1.97-.95-2.34-.69-.27-1.68-.04-1.98.65Z"/>
    <path class="cls-4" d="M240.24,85.28c-.6.44-.92,1.39-.5,2.01.46.69,1.61.64,2.28.15.48-.36.88-1.07.65-1.66-.3-.78-1.63-1.08-2.42-.5Z"/>
    <path class="cls-4" d="M183.21,126.95c-.88.74-1.22,2.14-.67,2.93.76,1.06,3.11.92,3.95-.4.46-.73.51-1.91-.18-2.62-.81-.84-2.27-.62-3.1.09Z"/>
    <path class="cls-4" d="M176.15,150.94c-.88.72-.84,2.22.04,2.97.79.66,2.1.61,2.75-.22.57-.73.44-1.79-.13-2.44-.66-.75-1.89-.94-2.66-.31Z"/>
    <path class="cls-4" d="M176.6,158.7c-.64,1.13-.01,2.77,1.2,3.1,1.04.29,2.23-.47,2.53-1.55.24-.86-.08-1.92-.93-2.39-.99-.55-2.27-.08-2.79.84Z"/>
    <path class="cls-4" d="M182.14,153.02c-.46.8-.36,2.03.44,2.57.89.6,2.21.06,2.75-.84.45-.76.43-1.91-.27-2.48-.84-.69-2.35-.25-2.93.75Z"/>
    <path class="cls-4" d="M198.02,146.82c-.49.86-.53,2.18.31,2.97.93.88,2.47.66,3.33-.13,1.09-1.02,1.1-3.03-.04-3.86-1.1-.8-2.89-.2-3.59,1.02Z"/>
    <path class="cls-4" d="M206.84,149.83c-.81.98-.49,2.66.58,3.46.89.66,2.28.68,2.93,0,1-1.04.23-3.66-1.33-4.12-.74-.22-1.65.04-2.17.67Z"/>
    <path class="cls-4" d="M214.43,152.85c-.71.73-.63,1.98.09,2.62.86.76,2.41.42,2.88-.62.36-.79.03-1.85-.8-2.31-.71-.39-1.62-.26-2.17.31Z"/>
    <path class="cls-4" d="M227.48,163.46c-.56.7-.03,2.14.95,2.59.48.23,1.23.29,1.65-.12.63-.61.33-2.11-.61-2.66-.62-.36-1.57-.33-1.98.18Z"/>
    <path class="cls-4" d="M221.92,157.06c-.79.62-.96,1.76-.58,2.53.64,1.29,2.82,1.56,3.68.53.59-.7.51-1.97-.22-2.75-.72-.77-2.01-1-2.88-.31Z"/>
    <path class="cls-4" d="M167.37,194.8c-.64.7-.69,1.91.04,2.57.65.58,1.66.53,2.26.04.92-.73.85-2.43-.09-3.02-.66-.42-1.65-.22-2.22.4Z"/>
    <path class="cls-4" d="M167.17,184c-.63.73-.12,2.21.62,2.38.48.11,1.05-.34,1.29-.82.28-.55.3-1.43-.29-1.82-.52-.34-1.26-.15-1.62.26Z"/>
    <path class="cls-4" d="M154.33,158.75c-.5,1.03-.04,2.3.93,2.84.82.45,1.89.32,2.53-.31.92-.91.8-2.69-.35-3.42-1.02-.64-2.55-.27-3.1.89Z"/>
    <path class="cls-4" d="M157.84,150.27c-.63.82-.39,2.1.4,2.75.96.79,2.54.48,3.06-.44.59-1.05-.28-2.68-1.51-2.97-.66-.16-1.48.05-1.95.67Z"/>
    <path class="cls-4" d="M142.27,180.12c-.69,1.07-.11,2.54.89,3.15.67.41,1.67.53,2.31.04,1.09-.84.87-3.34-.53-3.99-.84-.39-2.09-.1-2.66.8Z"/>
    <path class="cls-4" d="M124.97,162.25c-1.02,1.11-.79,3.01.44,3.86.99.68,2.41.54,3.24-.31,1.07-1.11.85-3.1-.44-3.95-.99-.65-2.42-.49-3.24.4Z"/>
    <path class="cls-4" d="M118.67,182.52c-.98,1.05-.88,2.95,0,3.5.63.4,1.5,0,1.69-.09,1.48-.68,2.44-2.83,1.73-3.73-.59-.76-2.45-.73-3.41.31Z"/>
    <path class="cls-4" d="M114.88,186.22c-.32.47-.36,1.13-.06,1.56.56.81,2.25.69,2.66-.15.32-.64-.09-1.76-.98-2.02-.59-.17-1.26.08-1.62.61Z"/>
    <path class="cls-4" d="M89.45,204.43c-.63.65-.47,1.74.18,2.31.6.53,1.63.59,2.22-.04.58-.62.45-1.61-.09-2.17-.59-.62-1.68-.74-2.31-.09Z"/>
    <path class="cls-4" d="M95.92,199.24c-.43.45-.36,1.28.18,1.69.5.37,1.27.26,1.6-.22.39-.56.03-1.43-.58-1.69-.38-.16-.89-.1-1.2.22Z"/>
    <path class="cls-4" d="M108.12,191.34c-.33.72-.1,1.63.44,2,.98.66,2.98-.48,2.97-1.55,0-.59-.61-1.1-1.15-1.29-.79-.28-1.86-.01-2.26.84Z"/>
    <path class="cls-4" d="M125.09,170.42c-.33.62-.12,1.39.41,1.78.66.48,1.68.25,2.06-.48.4-.77-.06-1.76-.86-2-.6-.18-1.3.1-1.62.7Z"/>
    <path class="cls-4" d="M76.23,167.7c-1.17,1.08-1.71,3.23-.58,4.52,1.11,1.26,3.17.97,4.39.18,1.43-.94,2.32-2.99,1.55-4.35-.9-1.58-3.81-1.8-5.37-.35Z"/>
    <path class="cls-4" d="M83.81,163.8c-.93.95-.9,2.79.27,3.59.93.63,2.28.41,2.97-.4.98-1.14.42-3.19-.89-3.73-.79-.33-1.76-.07-2.35.53Z"/>
    <path class="cls-4" d="M113.97,147.04c-.68.92-.21,2.45.62,3.24,1.46,1.38,4.4.81,4.88-.44.36-.95-.69-2.35-1.82-2.97-1.06-.58-2.91-.88-3.68.18Z"/>
    <path class="cls-4" d="M109.54,148.18c-.49.7.1,2.05,1.07,2.4.51.18,1.26.14,1.64-.33.5-.63.16-1.75-.57-2.24-.68-.46-1.74-.39-2.14.17Z"/>
    <path class="cls-4" d="M109.67,143.4c-.39.99.16,2.06.98,2.53.96.55,2.3.27,2.84-.62.64-1.07-.05-2.68-1.29-3.06-.92-.28-2.12.13-2.53,1.15Z"/>
    <path class="cls-4" d="M128.87,124.11c-.58.57-.47,1.57-.04,2.13.74.97,2.61.83,3.06,0,.33-.61-.11-1.6-.8-2.08-.57-.4-1.6-.65-2.22-.04Z"/>
    <path class="cls-4" d="M142.98,126.19c-.58.66-.64,1.76.04,2.44.71.71,1.88.61,2.48,0,.82-.82.52-2.45-.49-2.93-.66-.32-1.53-.1-2.04.49Z"/>
    <path class="cls-4" d="M58.44,171.65c-.66.97-.29,2.3.44,2.97,1.19,1.09,3.52.62,4.04-.67.44-1.09-.47-2.7-1.82-3.1-.83-.25-2.04-.11-2.66.8Z"/>
    <path class="cls-4" d="M34.54,205.05c-.58.84-.26,2.12.67,2.62.78.42,1.83.18,2.31-.53.62-.92.09-2.32-.93-2.71-.7-.26-1.59-.03-2.04.62Z"/>
    <path class="cls-4" d="M37.86,192.41c-.71.91-.49,2.31.44,2.97,1.03.73,2.58.33,3.1-.8.47-1-.01-2.27-1.02-2.75-.85-.41-1.94-.18-2.53.58Z"/>
    <path class="cls-4" d="M36.22,197.78c-.73.94-.49,2.4.53,3.02.91.55,2.16.24,2.75-.67.57-.87.41-2.1-.44-2.75-.89-.68-2.18-.44-2.84.4Z"/>
    <path class="cls-4" d="M241.17,143.13c-1.05.85-1.2,2.76-.27,3.46.7.52,1.86.27,2.53-.35.94-.88,1.05-2.64.13-3.33-.68-.51-1.76-.3-2.4.22Z"/>
    <path class="cls-4" d="M240.91,136.08c-.56.83-.35,1.99.4,2.57.93.72,2.45.33,2.93-.75.43-.98-.13-2.23-1.15-2.57-.79-.26-1.7.05-2.17.75Z"/>
    <path class="cls-4" d="M232.79,127.21c-.55.64-.05,2.07.84,2.75,1.02.78,2.74.71,3.15-.04.41-.75-.49-2.1-1.55-2.66-.71-.37-1.93-.64-2.44-.04Z"/>
    <path class="cls-4" d="M223.3,124.6c-.67,1.01-.32,2.34.35,3.06,1.21,1.29,3.83.97,4.48-.35.59-1.2-.45-3.21-2.04-3.64-.88-.23-2.15-.05-2.79.93Z"/>
    <path class="cls-4" d="M204.54,121.36c-.43.45-.2,1.39.35,1.86.56.48,1.55.53,1.91.04.38-.51-.03-1.45-.67-1.86-.45-.29-1.21-.44-1.6-.04Z"/>
    <path class="cls-4" d="M208.97,124.28c-.71.79-.46,2.15.4,2.79.91.68,2.38.43,2.88-.53.45-.86-.03-1.98-.84-2.48-.73-.45-1.83-.46-2.44.22Z"/>
    <path class="cls-4" d="M205.87,116.74c-.53.96,0,2.23.93,2.75,1,.56,2.4.22,2.88-.71.55-1.08-.3-2.6-1.51-2.93-.8-.22-1.85.06-2.31.89Z"/>
    <path class="cls-4" d="M217.05,110.93c-.37.54-.41,1.37,0,1.77.63.62,2.25.23,2.57-.75.17-.52-.02-1.22-.53-1.55-.66-.43-1.61-.1-2.04.53Z"/>
    <path class="cls-4" d="M197.31,122.2c-.09.56,0,1.43.62,1.86.82.56,2.18.09,2.71-.84.62-1.1-.01-2.72-1.02-2.97-.98-.25-2.12.83-2.31,1.95Z"/>
  </g>
</svg>