<?xml version="1.0" encoding="UTF-8"?>
<svg id="Layer_1" data-name="Layer 1" xmlns="http://www.w3.org/2000/svg" version="1.1" viewBox="0 0 289 209.99">
  <defs>
    <style>
      .cls-1 {
        fill: #000;
      }

      .cls-1, .cls-2, .cls-3, .cls-4 {
        stroke: #2b5daa;
        stroke-linecap: round;
        stroke-linejoin: round;
      }

      .cls-2 {
        fill: #0071bb;
      }

      .cls-3 {
        fill: #33a1db;
      }

      .cls-4 {
        fill: none;
      }
    </style>
  </defs>
  <path class="cls-2" d="M112.2,120.03c2.36.39,4.58,1.18,6.37,2.74,3.36,2.92,3.52,9.51-.65,11.06-2.52.94-5.3-.31-7.99-.26-2.69.06-5.64,3.16-3.79,5.11,2.19-1.99,5.56,2.09,4.09,4.66s-4.9,3.11-7.86,3.17c-7.86.17-16.21-1.26-22.11-6.46-1.51-1.33-2.88-2.92-4.73-3.71s-4.42-.46-5.3,1.35c-1.09,2.24,1.04,4.69,3.11,6.09,5.31,3.6,11.63,5.69,18.05,5.97,1.74.08,3.51.22,5.2.65,1.48.38,3.09,1.04,3.95,2.38.33.51.48,1.15-.06,1.57-.22.17-.48.27-.73.37-1.02.4-2,.89-2.94,1.44s-1.73,1.19-2.61,1.78c-3.99,2.65-8.48,4.5-13.19,5.37-.62.11-1.25.21-1.87.29-1.96.25-3.94.33-5.92.22-2.32-.12-4.82-.44-6.8.77-1.98,1.2-2.53,4.73-.39,5.61.49.2,1.04.23,1.57.25,18.99.63,38.09-7.62,50.66-21.87,2.9-3.29,5.51-6.91,9.02-9.54,3.52-2.62,8.28-4.11,12.34-2.45-7.04,4.85-13.43,10.64-18.96,17.16-1,1.18-2.04,2.78-1.35,4.17,1.02,2.08,4.2,1.07,6-.38,5.02-4.06,8.78-9.46,13.54-13.82,4.76-4.36,11.2-7.74,17.5-6.35,6.96,1.53,11.64,8.7,12.11,15.81s-2.46,14.03-6.22,20.07c-3.77,6.04-8.41,11.52-11.94,17.71-1.21,2.12-2.32,4.45-2.21,6.9s1.85,4.97,4.29,5.17c2.45.2,4.53-1.97,5.29-4.3s.6-4.85.83-7.29c.53-5.59,3.27-10.94,7.5-14.62,4.27-3.72,10.17-6.07,12.46-11.24,4.75-10.74-9.92-21.33-8.79-33.02.13-1.38.58-2.87,1.74-3.62,2.23-1.45,5.06.7,6.6,2.87,5,7.05,6.93,15.75,9.94,23.85s7.79,16.36,15.81,19.58c1.8.73,4.66.54,4.76-1.4.04-.7-.37-1.34-.76-1.93-6.14-9.07-14.72-18.28-13.3-29.14.27-2.1.92-4.33.06-6.26-1.86-4.19-9.18-3.86-10.45-8.27-.79-2.77,1.75-5.62,4.57-6.19s5.71.46,8.36,1.61c12.76,5.51,24.19,13.76,36.95,19.27,12.76,5.51,27.91,8.03,40.31,1.75,3.24-1.64,6.4-6.02,3.66-8.4-1.73-1.5-4.36-.65-6.54.02-9,2.77-18.82,1.17-27.68-2.03-8.85-3.2-17.07-7.92-25.73-11.63-7.93-3.4-16.23-5.93-24.71-7.55-3.04-.58-6.86-1.84-7.01-4.93-.19-4.17,5.93-4.76,10.04-4.02,11.74,2.12,23.84,2.19,35.61.22,1.06-.18,2.25-.46,2.78-1.4.93-1.66-1.01-3.47-2.77-4.18-7.31-2.95-15.54-1.26-23.36-.24-3.88.51-7.84.88-11.75.44-2.06-.23-4.13-.66-6.07-1.43-.83-.33-5.31-2.33-4.05-3.66.79-.84,2.92-1.12,4.01-1.46,2.62-.81,5.27-1.4,7.93-2.07,4.23-1.02,8.49-1.86,12.74-2.76,8.51-1.79,17.08-3.68,25.09-7.15,2.71-1.17,5.3-2.55,7.82-4.08,6.5-4.07,12.23-9.82,14.8-17.04,2.58-7.22,1.48-16.01-3.92-21.45-3.36-3.39-8.19-5.26-12.95-5.01-1.86.1-3.98.72-4.67,2.44-1.39,3.43,3.68,5.47,6.5,7.87,3.08,2.63,3.75,7.32,2.57,11.2-1.18,3.88-3.87,7.1-6.66,10.04-2.86,3.01-6.18,5.98-10.28,6.6-2.36.36-4.82-.1-7.11.54-5.89,1.65-8.42,9.74-14.45,10.8-3.36.59-6.78-1.28-10.15-.78-4.44.67-7.18,5.05-10.73,7.81s-10.46,2.59-10.81-1.89c-.17-2.09,1.34-3.91,2.85-5.38,5.32-5.17,11.83-9.1,18.88-11.41,5.56-1.82,12.19-3.21,14.77-8.46,2.52-5.11-.2-11.43,1.49-16.88,2.54-8.15,13.24-10.52,18.1-17.53,5.21-7.51.89-19.6-7.9-22.11-2.84-.81-6.84.03-7.18,2.97-.41,3.61,4.93,5.05,6.3,8.42,1.29,3.17-1.5,6.58-4.52,8.19s-6.6,2.43-8.92,4.95c-3.28,3.57-2.83,9.05-2.6,13.89.23,4.84-.5,10.64-4.81,12.87-3.64,1.89-8.44.33-11.94,2.48-2.6,1.6-3.76,4.84-6.18,6.7-3.11,2.39-7.62,2.05-10.95,4.12-6.39,3.98-5.3,14.26-10.88,19.31-.86.78-2.05,1.43-3.15,1.06-1.21-.41-1.72-1.82-1.92-3.08-.86-5.41,1.38-11.2,5.64-14.63,2.27-1.82,5.38-3.65,5.14-6.54-.21-2.54-2.9-3.96-4.94-5.49-7.63-5.71-7.41-19.06.4-24.52-2.46-4.26-9.78-1.94-11.49,2.68-1.71,4.61.13,9.69,1.72,14.35,1.59,4.66,2.86,10.09.23,14.25-1.48,2.34-4,3.89-5.42,6.26-2.11,3.52-1.38,7.98-2.08,12.02s-4.62,8.37-8.31,6.58c-3.29-1.59-3.06-6.48-1.32-9.7s4.5-6.1,4.79-9.74c.34-4.28-2.83-7.92-5.56-11.22-3.36-4.06-6.43-8.56-7.57-13.71s.02-11.06,4-14.51c5.36-4.64,13.62-3.48,20.01-6.55,1.94-.93,3.79-3.58,2.13-4.94-.47-.38-1.1-.5-1.71-.58-10.31-1.4-21.22,3.86-26.55,12.8-5.33,8.94-4.77,21.04,1.37,29.44.75,1.03,1.62,2.12,1.59,3.4-.08,3.49-5.54,3.19-8.4,1.19-7.35-5.15-12.17-13.75-12.7-22.71-.41-6.83,1.49-13.95-.86-20.37-3.44-9.36-14.66-13.47-24.63-13.46-11.92.02-23.79,4.38-32.89,12.08-3.87,3.27-7.36,9.15-4.07,13,2.48,2.9,7.31,2.3,10.41.07,3.1-2.22,5.15-5.6,7.85-8.3s6.71-4.78,10.27-3.38c3.01,1.18,4.89,4.57,8.05,5.28,2.77.62,5.53-1.05,8.37-1.19,4.84-.25,9.15,4.9,8.06,9.62-1.44,6.21-10.09,10.54-8.03,16.57,1.92,5.65,11.06,4.9,14.3,9.91,3.43,5.31-1.94,13.51,2.18,18.3,3.6,4.18,11.12,1.72,15.31,5.31,1.93,1.66,2.71,4.26,3.4,6.71.84,3.02,1.69,6.04,2.53,9.05.31,1.12.62,2.33.18,3.41-.92,2.25-4.11,2.14-6.49,1.63-4.98-1.06-10.8-2.85-12.29-7.71-.56-1.83-.44-3.99-1.71-5.42-1.53-1.72-4.2-1.51-6.48-1.82-6.73-.9-11.43-7.16-14.05-13.42s-4.05-13.15-8.09-18.6c-4.04-5.45-12.05-8.92-17.69-5.15-1.41.94-2.6,2.38-2.8,4.06-.49,4.11,4.57,6.48,8.68,6.97s9.14,1,10.78,4.8c2.44,5.66-5.09,13.82-.12,17.47,2.41,1.76,6.82,1.13,7.58,4.01.68,2.6-2.77,4.3-5.45,4.31-7.79.02-14.86-4.87-19.87-10.83-2.13-2.54-4.08-5.37-6.96-7.02-2.87-1.65-7.07-1.63-9,1.07-.68.95-.99,2.1-1.6,3.09-2.32,3.84-7.92,4.06-12.16,2.57s-8.1-4.2-12.55-4.74c-4.46-.53-9.87,2.55-9.37,7.01.41,3.66,4.5,5.79,8.17,6.09,3.67.3,7.43-.53,11.03.26,4.49.99,8.74,4.46,13.17,3.24,3.9-1.07,7.05-5.63,10.91-4.44,4.2,1.29,3.72,7.51,6.37,11.01,2.83,3.74,8.47,3.52,13.04,2.45,4.56-1.07,9.61-2.56,13.71-.3,2.74,1.51,4.43,4.42,6.99,6.22,3.65,2.55,8.44,2.49,12.89,2.45,2.08-.02,4.24.02,6.3.36Z"/>
  <path class="cls-3" d="M133.57,119.79c1.39,7.32,10.93,10.6,16.77,9.26,4.89-1.12,5.18-5.01,11.64-6.51,4.26-.99,5.59.37,10.01-1.13,2.34-.79,6.34-2.14,7.76-5.51.35-.83.68-2.1-2.25-11.39-2.03-6.43-2.64-7.26-3.63-7.76-2.67-1.35-6.77.3-9.14,2.75-3.72,3.85-2.07,8.53-4.88,9.64-1.76.7-2.83-.98-9.14-2.75-2.78-.78-4.16-1.17-5.38-1.13-5.51.2-13.16,7.19-11.77,14.52Z"/>
  <g>
    <path class="cls-1" d="M154.25,94.51c-1.08.78-1.54,2.51-.66,3.57.88,1.06,2.7.96,3.66-.05.89-.93,1.01-2.58.05-3.47-.85-.79-2.21-.65-3.05-.05Z"/>
    <path class="cls-1" d="M151.83,86.16c-1.41.58-1.97,2.74-1.13,3.66.64.7,2.02.63,2.91,0,.82-.58,1.5-1.85.94-2.86-.52-.94-1.84-1.16-2.72-.8Z"/>
    <path class="cls-1" d="M153.1,77.29c-.46.67-.51,1.65-.05,2.35.75,1.12,2.73,1.29,3.66.19.67-.79.69-2.08,0-2.86-.93-1.05-2.85-.79-3.61.33Z"/>
    <path class="cls-1" d="M158.45,70.02c-.84.8-.62,2.26.09,3.05.88.98,2.66,1.13,3.43.19.7-.86.33-2.35-.56-3.1-.77-.65-2.14-.93-2.96-.14Z"/>
    <path class="cls-1" d="M163.28,66.73c-1.04.46-1.44,2.28-.56,3.29.84.95,2.59.9,3.24-.05.52-.76.16-1.89-.42-2.53-.52-.57-1.48-1.05-2.25-.7Z"/>
    <path class="cls-1" d="M155.44,40.44c-1.16,1.24-.69,3.71.47,4.18.74.29,1.67-.25,2.16-.8,1.04-1.16,1.01-3.36-.09-3.99-.76-.43-1.91-.06-2.53.61Z"/>
    <path class="cls-1" d="M157.98,61.85c-.51.57-.44,1.43,0,1.92.62.7,1.92.6,2.39-.19.39-.64.15-1.61-.56-2.02-.57-.33-1.36-.25-1.83.28Z"/>
    <path class="cls-1" d="M146.48,26.41c-.43,1.13-.04,2.74.94,3.05.99.31,2.36-.78,2.53-2.07.15-1.09-.53-2.43-1.55-2.53-.89-.09-1.65.82-1.92,1.55Z"/>
    <path class="cls-1" d="M136.2,29.13c-.43.71-.16,1.61.31,2.1.8.82,2.42.73,2.94-.16.48-.82-.08-2.17-1.1-2.57-.69-.27-1.7-.13-2.16.63Z"/>
    <path class="cls-1" d="M124.43,47c-1.09.85-1,2.95-.16,3.41.62.34,1.7-.19,2.22-.94.53-.76.72-2.06,0-2.63-.58-.46-1.52-.27-2.07.16Z"/>
    <path class="cls-1" d="M125.09,53.38c-.3,1.06.4,2.35,1.41,2.47.79.09,1.52-.57,1.78-1.25.38-.98-.06-2.37-1.06-2.63-.88-.23-1.87.5-2.13,1.41Z"/>
    <path class="cls-1" d="M129.1,60.64c-.22.72.19,1.51.78,1.88.85.53,2.19.28,2.6-.66.35-.82-.14-1.86-.97-2.22-.92-.41-2.13.08-2.41,1Z"/>
    <path class="cls-1" d="M133.26,67.59c-.45.72-.33,1.71.09,2.35,1.08,1.64,4.45,1.55,5.1.31.47-.9-.37-2.61-1.72-3.25-1.11-.53-2.8-.47-3.47.59Z"/>
    <path class="cls-1" d="M129.57,74.51c-1.2.74-1.79,2.45-1.13,3.5.78,1.25,3.11,1.31,4.22.09.73-.8,1.06-2.27.25-3.25-.83-1.02-2.39-.93-3.35-.34Z"/>
    <path class="cls-1" d="M115.98,75.13c-.52.8-.57,2,.03,2.72,1.01,1.21,3.68.85,4.41-.69.39-.83.22-1.96-.47-2.63-1.07-1.03-3.14-.69-3.97.59Z"/>
    <path class="cls-1" d="M109.66,76.04c-1.46,1.25-1.43,4.01-.03,4.88,1.05.66,2.69.13,3.57-.88,1-1.16,1.23-3.23.03-4.22-1.02-.84-2.64-.57-3.57.22Z"/>
    <path class="cls-1" d="M110.63,68.84c-.65.96-.55,2.28.13,3,1.16,1.24,3.94.63,4.47-.97.32-.96-.18-2.26-1.25-2.85-1.15-.63-2.63-.26-3.35.81Z"/>
    <path class="cls-1" d="M101.25,55.57c-.6.79-.74,2.05-.13,2.79.89,1.08,3.19.83,3.97-.53.5-.86.4-2.18-.44-2.88-1.01-.84-2.65-.38-3.41.63Z"/>
    <path class="cls-1" d="M92.92,53.6c-.57,1.16-.19,2.53.63,3.32,1.23,1.2,3.51,1.11,4.47-.22,1.04-1.43.25-3.87-1.5-4.51-1.27-.46-2.94.06-3.6,1.41Z"/>
    <path class="cls-1" d="M100.78,46.75c-.63.86-.53,2.3.34,2.82.88.52,2.16-.1,2.63-1.03.37-.73.35-1.87-.41-2.41-.81-.57-2.01-.13-2.57.63Z"/>
    <path class="cls-1" d="M102.5,30.32c-1.04,1-.97,3.06.06,3.66.72.42,1.78.06,2.38-.53.98-.98,1.03-2.92.03-3.57-.72-.47-1.84-.17-2.47.44Z"/>
    <path class="cls-1" d="M96.65,20.78c-1.12,1.06-.92,3.04.03,4.04,1.44,1.5,4.6.79,5.19-.81.42-1.13-.47-2.66-1.66-3.35-.94-.55-2.54-.84-3.57.13Z"/>
    <path class="cls-1" d="M85.85,26.03c-.3.92-.04,2.01.66,2.66,1.21,1.13,3.63.84,4.38-.72.6-1.23.04-3.03-1.44-3.63-1.5-.61-3.15.33-3.6,1.69Z"/>
    <path class="cls-1" d="M80.09,23.47c-.74,1.11-.92,2.97.25,3.88,1.08.84,2.74.41,3.6-.47,1.31-1.35,1-4.02-.41-4.73-1.09-.55-2.69.18-3.44,1.31Z"/>
    <path class="cls-1" d="M87.82,18.84c-.87,1.1-.52,2.81.63,3.57,1.26.83,3.1.27,3.66-1.06.45-1.06-.03-2.38-1.03-3-1.04-.65-2.49-.47-3.25.5Z"/>
    <path class="cls-1" d="M50.87,31.82c-1.03,1.44-.73,3.48.56,4.51,1.58,1.25,4.16.57,5.04-1.22.66-1.35.29-3.2-1.06-4.13-1.45-1-3.51-.58-4.54.84Z"/>
    <path class="cls-1" d="M61.22,24c.05.85.93,1.46,1.53,1.69,1.61.62,3.88-.37,4.01-1.56.11-1.05-1.41-2.38-2.94-2.32-1.27.06-2.66,1.07-2.6,2.19Z"/>
    <path class="cls-1" d="M71.24,18.74c-.35.79-.18,1.93.66,2.44.89.54,2.06.08,2.6-.72.57-.85.46-2.13-.31-2.69-.92-.67-2.46-.12-2.94.97Z"/>
    <path class="cls-1" d="M123.68,84.05c-1,1.07-.89,2.83-.03,3.82,1.3,1.5,4.22,1.11,5.04-.5.51-1,.13-2.33-.63-3.13-1.09-1.15-3.22-1.44-4.38-.19Z"/>
    <path class="cls-1" d="M131.91,97.6c-.89,1.32-.28,3.19.63,4.19,1.79,1.98,5.73,1.74,6.63.03.78-1.46-.6-4.16-2.72-5.04-1.33-.55-3.55-.64-4.54.81Z"/>
    <path class="cls-1" d="M122.46,116.03c-.85,1.25-.91,3.32.28,4.16,1.26.89,3.51.12,4.22-1.5.69-1.57-.16-3.69-1.63-4.07-1.15-.3-2.32.58-2.88,1.41Z"/>
    <path class="cls-1" d="M184.8,136.72c.39.89,1.42,1.86,2.28,1.6.89-.27,1.14-1.7,1.03-2.6-.17-1.41-1.35-2.85-2.25-2.69-.97.17-1.71,2.23-1.06,3.69Z"/>
    <path class="cls-1" d="M122.24,122.67c-.38.78.06,1.8.72,2.32.88.69,2.41.7,3-.22.52-.81.12-2.02-.66-2.6-.97-.71-2.59-.48-3.07.5Z"/>
    <path class="cls-1" d="M114.73,113.78c-.83.89-.71,2.55.31,3.16.92.55,2.26.09,2.78-.91.43-.82.3-2.01-.56-2.6-.83-.56-1.94-.29-2.53.34Z"/>
    <path class="cls-1" d="M99.27,114.09c-.43.73-.19,1.74.34,2.32,1.04,1.11,3.39.77,3.88-.38.33-.78-.23-1.89-1.03-2.41-1-.65-2.61-.53-3.19.47Z"/>
    <path class="cls-1" d="M102.15,100.29c-.64.97-.23,2.84,1.16,3.54,1.27.64,2.92.09,3.47-1.06.34-.7.24-1.56-.16-2.16-.93-1.4-3.64-1.58-4.47-.31Z"/>
    <path class="cls-1" d="M103.56,106.64c-.81.6-.69,2.21.22,2.69.61.33,1.57.13,2-.59.36-.61.23-1.39-.25-1.88-.55-.56-1.45-.61-1.97-.22Z"/>
    <path class="cls-1" d="M90.61,97.29c-.74.9-.55,2.29.38,2.94,1.01.7,2.46.23,2.97-.81.38-.78.21-1.82-.5-2.41-.83-.69-2.14-.57-2.85.28Z"/>
    <path class="cls-1" d="M80.15,87.46c-.88.9-.39,2.92.85,3.47.6.27,1.38.2,1.94-.22.83-.61,1.04-1.84.56-2.69-.67-1.2-2.55-1.38-3.35-.56Z"/>
    <path class="cls-1" d="M82.25,83.77c-.22.56-.13,1.24.28,1.66.71.74,2.21.49,2.63-.34.44-.87-.36-2.29-1.41-2.35-.62-.03-1.25.4-1.5,1.03Z"/>
    <path class="cls-1" d="M63.41,64.21c-.39.77,0,1.72.63,2.16.9.63,2.33.24,2.69-.63.39-.94-.54-2.3-1.66-2.41-.6-.06-1.34.23-1.66.88Z"/>
    <path class="cls-1" d="M67.67,61.65c-.41.61-.28,1.49.13,2,.92,1.18,3.49.8,3.88-.19.28-.72-.53-1.93-1.6-2.32-.71-.26-1.88-.28-2.41.5Z"/>
    <path class="cls-1" d="M67.89,66.46c-.24.63.21,1.43.84,1.75.69.35,1.72.19,2.07-.53.3-.64-.06-1.43-.59-1.78-.77-.51-2.02-.22-2.32.56Z"/>
    <path class="cls-1" d="M72.86,66.06c-.43.95.16,2.08.94,2.6.93.63,2.41.59,3.04-.31.68-.97.11-2.57-1.03-3.13-1-.49-2.47-.2-2.94.85Z"/>
    <path class="cls-1" d="M88.7,105.08c-.85,1.05-.6,2.59.25,3.47.98,1.03,2.77,1.19,3.79.19,1.09-1.09.83-3.08-.41-4.01-1.05-.79-2.73-.76-3.63.34Z"/>
    <path class="cls-1" d="M65.35,105.02c-1.19,1.19-.74,3.72.72,4.91,1.71,1.4,4.71.87,5.41-.69.54-1.2-.38-2.74-1.22-3.54-1.27-1.19-3.69-1.91-4.91-.69Z"/>
    <path class="cls-1" d="M74.96,104.02c-.81.87-.83,2.33.06,3.16.94.88,2.48.66,3.25-.28.69-.83.72-2.16-.06-2.97-.87-.9-2.41-.82-3.25.09Z"/>
    <path class="cls-1" d="M59.94,102.54c-.7.67-.74,1.91-.03,2.5.74.63,1.97.27,2.5-.5.37-.53.48-1.37.03-1.94-.56-.72-1.8-.74-2.5-.06Z"/>
    <path class="cls-1" d="M61.13,95.54c-.62.72-.46,1.82.25,2.38.64.5,1.61.47,2.19-.13.63-.64.6-1.72-.06-2.35-.66-.63-1.77-.61-2.38.09Z"/>
    <path class="cls-1" d="M48.21,85.87c-.76.6-.8,2-.22,2.72,1.05,1.31,4.14.44,4.38-.56.17-.71-1.08-1.56-1.28-1.69-.25-.17-1.88-1.26-2.88-.47Z"/>
    <path class="cls-1" d="M52.59,90.62c-.29.67.17,1.5.88,1.72.71.22,1.54-.21,1.69-.91.12-.57-.25-1.14-.72-1.38-.62-.32-1.55-.13-1.85.56Z"/>
    <path class="cls-1" d="M43.95,94.85c-.55.71-.53,1.87.19,2.53.81.74,2.13.52,2.78-.28.53-.65.6-1.66.09-2.32-.7-.91-2.33-.89-3.07.06Z"/>
    <path class="cls-1" d="M44.39,89.65c-.33.82.12,1.75.72,2.19,1.13.82,3.14.14,3.41-.97.21-.88-.68-2.06-1.81-2.28-.82-.16-1.95.14-2.32,1.06Z"/>
    <path class="cls-1" d="M32.37,95.22c-.54.54-.55,1.54-.13,2.16.76,1.11,2.9.96,3.41.03.29-.53.01-1.26-.28-1.66-.67-.92-2.24-1.3-3-.53Z"/>
    <path class="cls-1" d="M37.38,93.81c-.39.56-.33,1.42.19,1.91.67.64,1.86.43,2.35-.31.33-.5.31-1.22-.06-1.69-.58-.72-1.92-.7-2.47.09Z"/>
    <path class="cls-1" d="M14.32,91.62c-.66.91-.38,2.31.31,3.07,1.39,1.53,4.74.77,5.19-.59.32-.95-.72-2.28-1.85-2.85-1.05-.53-2.85-.74-3.66.38Z"/>
    <path class="cls-1" d="M67.95,167.07c-.78.73-.94,2.21-.19,2.79.58.44,1.55.24,2.1-.28.84-.8.73-2.45-.09-2.91-.56-.31-1.36-.02-1.81.41Z"/>
    <path class="cls-1" d="M72.61,166.35c-.04.1-.34.8,0,1.28.5.72,2.26.68,2.72-.25.37-.73-.09-1.95-.97-2.16-.77-.18-1.49.5-1.75,1.13Z"/>
    <path class="cls-1" d="M85.19,164.6c-.52.59-.68,1.63-.13,2.16.59.56,1.73.29,2.28-.38.48-.57.63-1.57.09-2.1-.58-.57-1.69-.31-2.25.31Z"/>
    <path class="cls-1" d="M93.58,159.97c-.21.65.07,1.46.66,1.88.83.6,2.15.33,2.66-.59.4-.72.23-1.67-.34-2.16-.9-.77-2.62-.24-2.97.88Z"/>
    <path class="cls-1" d="M98.55,157.49c-.25.67-.14,1.52.38,2,.94.87,3.04.32,3.38-.94.24-.86-.34-2.09-1.47-2.35-1-.23-1.96.41-2.28,1.28Z"/>
    <path class="cls-1" d="M72.24,138.03c-.6.48-.73,1.45-.19,2.03.53.57,1.47.53,2,0,.49-.49.59-1.35.09-1.91-.5-.56-1.37-.56-1.91-.13Z"/>
    <path class="cls-1" d="M77.4,142.13c-.47.67-.15,1.81.59,2.38.68.52,1.84.64,2.44-.06.54-.63.37-1.63-.09-2.19-.73-.89-2.37-.95-2.94-.13Z"/>
    <path class="cls-1" d="M103.53,149.17c-.78.88-.41,2.39.41,3.16,1.08,1.02,3.12.89,3.76-.19.6-1.01-.18-2.65-1.38-3.25-.79-.4-2.08-.52-2.78.28Z"/>
    <path class="cls-1" d="M109.91,146.79c-.47.71-.26,1.75.28,2.32,1.03,1.08,3.37.58,3.76-.5.26-.72-.37-1.68-1.1-2.13-.89-.55-2.34-.59-2.94.31Z"/>
    <path class="cls-1" d="M112.39,136.15c-.8.56-.78,2.13.09,2.85.64.53,1.78.62,2.38-.06.61-.71.28-1.83-.31-2.41-.56-.55-1.54-.81-2.16-.38Z"/>
    <path class="cls-1" d="M115.55,142.57c-.41.84-.08,1.95.78,2.35.78.36,1.71.02,2.16-.66.51-.78.34-1.93-.47-2.44-.85-.54-2.03-.14-2.47.75Z"/>
    <path class="cls-1" d="M123.31,130.58c-.8,1.1-.08,3.07,1.22,3.85,1.63.98,4.14.08,4.47-1.28.27-1.1-.9-2.35-1.97-2.88-1.09-.54-2.95-.76-3.72.31Z"/>
    <path class="cls-1" d="M142.02,132.84c-.5.68-.53,1.68-.09,2.32.92,1.32,3.9.95,4.41-.31.32-.8-.31-2.01-1.28-2.53-.96-.51-2.35-.41-3.04.53Z"/>
    <path class="cls-1" d="M130.15,128.5c-.66.78-.7,2.03,0,2.79.88.94,2.57.75,3.25-.25.75-1.1.06-2.85-1.16-3.22-.75-.23-1.6.1-2.1.69Z"/>
    <path class="cls-1" d="M121.37,155.05c-.3.58-.29,1.48.22,1.85.6.43,1.66-.03,2.1-.75.36-.59.4-1.53-.09-1.91-.59-.46-1.79-.01-2.22.81Z"/>
    <path class="cls-1" d="M128.44,148.2c-.14.55.05,1.19.5,1.53.72.55,2.01.27,2.38-.63.33-.8-.16-1.86-1.06-2.07-.81-.19-1.62.4-1.81,1.16Z"/>
    <path class="cls-1" d="M131.79,145.29c-.03.1-.3.99.16,1.47.69.73,2.87.32,3.25-.97.23-.77-.2-1.8-.97-2.1-.99-.38-2.14.6-2.44,1.6Z"/>
    <path class="cls-1" d="M153.47,130.83c-.46.64-.48,1.6,0,2.16.8.93,2.86.57,3.35-.59.25-.61.06-1.41-.44-1.88-.79-.75-2.26-.6-2.91.31Z"/>
    <path class="cls-1" d="M159.73,134.29c-.43.59-.49,1.46-.09,2,.75,1.03,3.09.73,3.54-.41.26-.66-.12-1.61-.84-2.07-.84-.53-2.02-.33-2.6.47Z"/>
    <path class="cls-1" d="M177.97,127.08c-.31.47-.46,1.21-.09,1.72.52.72,1.93.74,2.53-.06.55-.72.33-1.96-.47-2.35-.69-.34-1.57.08-1.97.69Z"/>
    <path class="cls-1" d="M162.27,129.27c-.24.64-.48,1.9.19,2.53.93.89,3.38.35,3.88-1.13.47-1.4-.94-3.26-2.22-3.19-1.17.06-1.81,1.69-1.85,1.78Z"/>
    <path class="cls-1" d="M165.36,138.03c-.74.74-.42,2.21.47,2.82.58.4,1.5.5,2.1,0,.76-.63.7-1.97-.03-2.69-.68-.68-1.9-.76-2.53-.13Z"/>
    <path class="cls-1" d="M170.21,147.14c-.61.86.15,2.46,1.22,3.19.89.61,2.33.86,2.85.25.71-.83-.18-3.38-1.88-3.91-.71-.22-1.75-.15-2.19.47Z"/>
    <path class="cls-1" d="M170.28,153.46c-.88.49-1.02,2.31-.06,3.07.6.47,1.63.55,2.22-.03.69-.68.42-1.92-.22-2.57-.49-.49-1.35-.8-1.94-.47Z"/>
    <path class="cls-1" d="M173.63,155.65c-.79.72-.98,2.13-.13,2.97.88.87,2.37.66,3.04-.22.79-1.04.19-2.72-.94-3.16-.67-.26-1.46-.06-1.97.41Z"/>
    <path class="cls-1" d="M169.62,163.22c-1.14.72-1.03,3.14,0,3.66.62.31,1.55-.06,2.03-.66.71-.86.62-2.34-.25-2.94-.51-.36-1.27-.39-1.78-.06Z"/>
    <path class="cls-1" d="M172.97,162.31c-.32.45-.33,1.11.03,1.53.5.58,1.49.51,1.91,0,.51-.63.09-1.87-.69-2.07-.45-.12-.97.14-1.25.53Z"/>
    <path class="cls-1" d="M167.15,169.7c-.55.76-.6,2.04.16,2.66.82.67,2.14.21,2.78-.56.56-.67.8-1.82.25-2.47-.69-.83-2.44-.65-3.19.38Z"/>
    <path class="cls-1" d="M151.75,195.33c-.58.78-.67,1.98-.03,2.75.84,1.02,2.69.98,3.57-.13.73-.92.68-2.46-.34-3.22-1.04-.77-2.5-.33-3.19.59Z"/>
    <path class="cls-1" d="M152.5,190.63c-.34.57-.41,1.48.16,1.97.63.55,1.72.31,2.19-.34.6-.82.15-2.19-.69-2.44-.61-.19-1.33.26-1.66.81Z"/>
    <path class="cls-1" d="M155.26,186.91c-.34.49-.46,1.31.03,1.78.53.52,1.47.36,1.94-.16.6-.66.42-1.88-.28-2.22-.55-.27-1.32.06-1.69.59Z"/>
    <path class="cls-1" d="M128.38,93.56c-.75.74-.64,2.03.09,2.69.89.79,2.45.41,2.94-.56.3-.6.17-1.35-.22-1.85-.62-.81-2.01-1.08-2.82-.28Z"/>
    <path class="cls-1" d="M147.87,98.41c-.53.59-.66,1.58-.09,2.22.61.69,1.73.63,2.38.03.69-.64.77-1.84.06-2.47-.67-.6-1.76-.42-2.35.22Z"/>
    <path class="cls-1" d="M167.11,90.79c-.49.86-.42,2.02.16,2.72,1.18,1.43,4.43.86,4.98-.69.36-1.03-.42-2.62-1.81-3.13-1.18-.43-2.67-.05-3.32,1.1Z"/>
    <path class="cls-1" d="M171.97,79.51c-.84.82-.82,2.3.13,3.07.96.78,2.46.47,3.07-.56.5-.85.31-2.02-.53-2.66-.82-.62-1.97-.51-2.66.16Z"/>
    <path class="cls-1" d="M175.78,73.97c-1,.74-1.36,2.19-.81,3.1.77,1.27,3.22,1.35,4.16.03.6-.84.61-2.27-.31-3.1-.89-.8-2.21-.64-3.04-.03Z"/>
    <path class="cls-1" d="M183.76,72.1c-.43.57-.54,1.43-.16,1.94.68.91,2.88.61,3.29-.5.24-.65-.12-1.65-.97-2.03-.8-.36-1.69-.02-2.16.59Z"/>
    <path class="cls-1" d="M191.52,63.62c-.71.84-.59,2.12,0,2.78,1.05,1.19,3.69.6,4.13-.72.28-.84-.33-1.97-1.25-2.47-.85-.46-2.14-.47-2.88.41Z"/>
    <path class="cls-1" d="M190.12,69.81c-.64.94-.3,2.19.47,2.79,1.07.82,2.89.29,3.32-.94.31-.88-.15-1.99-1.06-2.47-.89-.47-2.11-.28-2.72.63Z"/>
    <path class="cls-1" d="M198.13,62.43c-.98.67-.99,2.72.16,3.44.8.51,2.16.36,2.72-.59.56-.95,0-2.12-.75-2.66-.58-.41-1.51-.61-2.13-.19Z"/>
    <path class="cls-1" d="M207.26,58.83c-.73.87-.76,2.31.03,3.04.98.9,2.97.45,3.5-.84.47-1.12-.26-2.64-1.44-2.94-.81-.21-1.63.2-2.1.75Z"/>
    <path class="cls-1" d="M209.39,37.64c-.71.87-.68,2.22.03,2.94.99,1.01,3.12.6,3.69-.72.47-1.1-.2-2.65-1.44-3-.85-.24-1.76.14-2.28.78Z"/>
    <path class="cls-1" d="M209.52,44.68c-.5.82-.18,2,.69,2.38.87.38,1.89-.23,2.19-1.06.22-.62.07-1.42-.5-1.85-.72-.54-1.89-.28-2.38.53Z"/>
    <path class="cls-1" d="M214.68,31.6c-.9.87-.82,2.44.03,3.25,1.06,1.01,3.1.64,3.69-.63.47-1.01-.06-2.39-1.13-2.94-.8-.41-1.89-.36-2.6.31Z"/>
    <path class="cls-1" d="M221.03,28.01c-.42.65-.57,1.66-.09,2.25.86,1.07,3.61.65,4.1-.78.26-.76-.13-1.77-.88-2.25-1.03-.67-2.49-.2-3.13.78Z"/>
    <path class="cls-1" d="M221.03,33.89c-.3.68-.3,1.71.31,2.13.71.48,1.98-.04,2.41-.97.4-.86.08-2.1-.72-2.38-.77-.27-1.67.47-2,1.22Z"/>
    <path class="cls-1" d="M221.06,11.48c-.46.88-.04,1.99.66,2.5,1.15.85,3.18.15,3.47-1.03.21-.84-.47-1.84-1.35-2.22-.92-.4-2.27-.23-2.78.75Z"/>
    <path class="cls-1" d="M225.29,15.9c-.38.9.03,1.98.72,2.53,1.18.96,3.35.53,3.85-.75.37-.96-.25-2.23-1.25-2.75-1.15-.6-2.82-.2-3.32.97Z"/>
    <path class="cls-1" d="M228.17,23.81c-.88.87-.71,2.35.03,2.97,1,.83,3.03.11,3.38-1.19.18-.68-.11-1.48-.69-1.94-.78-.63-2-.56-2.72.16Z"/>
    <path class="cls-1" d="M240.34,37.24c-.96.95-.72,2.76.41,3.6,1.07.8,2.79.59,3.47-.53.6-.98.19-2.3-.63-3-.9-.78-2.4-.91-3.25-.06Z"/>
    <path class="cls-1" d="M247.19,42.28c-.64.76-.6,1.88-.13,2.53.93,1.28,3.67.94,4.19-.28.38-.88-.34-2.37-1.56-2.82-.73-.27-1.83-.24-2.5.56Z"/>
    <path class="cls-1" d="M247.98,48.03c-.77,1.16-.38,2.99.88,3.54.97.42,2.17-.04,2.75-.88.8-1.15.41-3.01-.85-3.57-.98-.43-2.21.04-2.78.91Z"/>
    <path class="cls-1" d="M253.2,46.19c-.4.86-.02,1.92.78,2.41.84.51,2,.32,2.57-.5.61-.89.29-2.18-.66-2.72-.95-.55-2.24-.16-2.69.81Z"/>
    <path class="cls-1" d="M253.01,51.79c-.85.76-.68,2.31.09,3.1,1.06,1.08,3.24.73,3.75-.38.41-.88-.27-2.15-1.22-2.72-.68-.41-1.87-.68-2.63,0Z"/>
    <path class="cls-1" d="M248.41,54.67c-.07.11-.73,1.23-.22,2,.55.82,2.2.87,2.97.03.89-.97.4-2.88-.56-3.22-.76-.28-1.74.45-2.19,1.19Z"/>
    <path class="cls-1" d="M253.2,58.36c-.73.88-.35,2.32.56,2.97.77.56,1.98.58,2.63-.09.83-.86.46-2.58-.63-3.22-.77-.46-1.95-.4-2.57.34Z"/>
    <path class="cls-1" d="M246.72,59.17c-1,.74-1.04,2.53-.03,3.44,1.01.92,2.8.71,3.44-.38.54-.91.1-2.16-.69-2.82-.72-.6-1.92-.85-2.72-.25Z"/>
    <path class="cls-1" d="M248.82,65.34c-.41.74-.25,1.78.5,2.25.8.5,1.89.14,2.35-.66.44-.76.25-1.86-.56-2.32-.82-.46-1.86-.05-2.28.72Z"/>
    <path class="cls-1" d="M225.73,77.04c-.43.96-.39,2.27.38,3.04,1.22,1.21,3.98.72,4.69-1,.56-1.35-.2-3.31-1.78-3.76-1.37-.38-2.75.54-3.29,1.72Z"/>
    <path class="cls-1" d="M235.08,74.26c-.83,1.07-.74,2.67.22,3.6,1.16,1.12,3.21.88,4.13-.44.76-1.09.62-2.73-.47-3.63-1.17-.97-2.97-.7-3.88.47Z"/>
    <path class="cls-1" d="M195.31,87.27c-.49.93-.2,2.15.5,2.85,1.18,1.19,3.61.97,4.35-.44.51-.98.11-2.35-.78-3.07-1.23-.99-3.36-.68-4.07.66Z"/>
    <path class="cls-1" d="M203.45,86.68c-.54.7-.62,1.74-.16,2.38.85,1.16,3.44.84,3.97-.47.31-.75-.07-1.81-.85-2.35-.93-.65-2.28-.45-2.97.44Z"/>
    <path class="cls-1" d="M180.63,131.52c-.57.64-.44,1.79.25,2.19.65.38,1.55-.04,1.94-.66.25-.4.38-1.04.06-1.5-.45-.64-1.65-.71-2.25-.03Z"/>
    <path class="cls-1" d="M189.65,137.59c-.97.6-1.1,2.42-.13,3.29.99.88,2.79.48,3.25-.53.33-.72-.09-1.58-.47-2.03-.62-.74-1.84-1.23-2.66-.72Z"/>
    <path class="cls-1" d="M185.8,142.76c-.68.84-.31,2.22.5,2.88,1.01.82,2.76.58,3.29-.44.5-.97-.26-2.37-1.35-2.85-.72-.32-1.85-.33-2.44.41Z"/>
    <path class="cls-1" d="M189.96,148.79c-.89.65-.77,2.39.19,2.91.59.32,1.47.15,1.97-.44.53-.62.55-1.59-.03-2.22-.59-.63-1.56-.66-2.13-.25Z"/>
    <path class="cls-1" d="M189.68,154.74c-.52.95-.02,2.34.97,2.63.74.22,1.57-.23,1.94-.88.5-.88.2-2.21-.75-2.6-.8-.33-1.76.12-2.16.84Z"/>
    <path class="cls-1" d="M193.59,156.84c-.49.61-.44,1.58.19,2.13.68.6,1.72.43,2.19-.16.62-.77.15-2.16-.78-2.47-.55-.18-1.21.02-1.6.5Z"/>
    <path class="cls-1" d="M200.04,168.26c-.6.72-.3,1.89.34,2.5.76.72,2.09.77,2.66.13.69-.78.19-2.5-.94-3-.62-.28-1.56-.23-2.07.38Z"/>
    <path class="cls-1" d="M196.66,163.84c-.7.77-.45,2.15.41,2.79.92.68,2.41.4,2.88-.56.42-.85-.09-1.96-.91-2.44-.71-.42-1.78-.44-2.38.22Z"/>
    <path class="cls-1" d="M182.42,119.54c-.7.88-.71,2.29.03,2.94.93.81,2.9.28,3.41-1.03.35-.91,0-2.22-1-2.66-.91-.4-1.93.11-2.44.75Z"/>
    <path class="cls-1" d="M187.96,116.75c-.63.76-.46,1.9.28,2.5.76.62,1.94.51,2.53-.28.57-.75.41-1.85-.31-2.44-.73-.6-1.88-.54-2.5.22Z"/>
    <path class="cls-1" d="M192.59,118.91c-.33.56-.17,1.28.19,1.69.68.8,2.25.72,2.69-.06.38-.67-.1-1.86-1-2.19-.61-.23-1.49-.09-1.88.56Z"/>
    <path class="cls-1" d="M199.85,119.54c-.73.73-.39,2.36.53,3.13,1.18.99,3.32.59,3.72-.41.36-.87-.61-2.15-1.66-2.69-.65-.33-1.93-.7-2.6-.03Z"/>
    <path class="cls-1" d="M204.67,123.42c-.63.53-.55,1.78.16,2.41.56.5,1.57.63,2.13.06.48-.49.4-1.29.13-1.78-.47-.84-1.75-1.24-2.41-.69Z"/>
    <path class="cls-1" d="M207.7,120.91c-.6.64-.39,1.75.22,2.32.73.68,2.07.62,2.57-.16.45-.71.06-1.77-.66-2.25-.6-.4-1.57-.5-2.13.09Z"/>
    <path class="cls-1" d="M208.39,125.45c-.57.93.31,2.61,1.47,2.75.52.07,1.11-.17,1.41-.63.56-.87-.05-2.43-1.16-2.72-.61-.16-1.39.06-1.72.59Z"/>
    <path class="cls-1" d="M218.25,128.11c-.96.71-.85,2.36-.09,3.32.71.9,2.16,1.4,3.07.75.97-.7.89-2.4.09-3.38-.71-.87-2.16-1.36-3.07-.69Z"/>
    <path class="cls-1" d="M226.7,131.4c-.8.57-.84,2.07,0,2.82.82.72,2.27.54,2.75-.31.41-.71.02-1.68-.56-2.19-.57-.5-1.54-.77-2.19-.31Z"/>
    <path class="cls-1" d="M231.11,132.62c-.94.69-1.12,2.45-.09,3.29.9.73,2.44.51,3.04-.5.64-1.09-.12-2.56-1.19-2.97-.53-.21-1.23-.2-1.75.19Z"/>
    <path class="cls-1" d="M228.04,136.68c-.29.56.03,1.29.47,1.66.75.62,2.13.41,2.44-.31.25-.59-.22-1.45-.91-1.78-.66-.32-1.66-.22-2,.44Z"/>
    <path class="cls-1" d="M243.56,138.5c-.64.59-.84,1.69-.31,2.32.62.73,2.02.59,2.66-.22.48-.6.6-1.66-.03-2.25-.65-.62-1.72-.39-2.32.16Z"/>
    <path class="cls-1" d="M236.62,137.03c-.58.76-.24,2.01.56,2.53.96.64,2.47.16,2.79-.78.23-.67-.2-1.42-.69-1.81-.73-.59-2.05-.73-2.66.06Z"/>
    <path class="cls-1" d="M252.51,141.13c-.54.88-.04,2.08.69,2.66.98.79,2.7.73,3.29-.25.54-.91-.06-2.31-1.06-2.88-.9-.51-2.34-.47-2.91.47Z"/>
    <path class="cls-1" d="M263.65,140.69c-.46.74-.25,1.69.22,2.22.92,1.04,3.05.73,3.5-.28.42-.93-.54-2.57-1.85-2.75-.62-.09-1.45.13-1.88.81Z"/>
    <path class="cls-1" d="M270.63,138.34c-.47.76-.41,1.83.13,2.47,1.06,1.29,3.93.79,4.44-.59.31-.83-.26-1.93-1.06-2.47-1.1-.73-2.81-.53-3.5.59Z"/>
    <path class="cls-1" d="M183.29,100.51c-.56.64-.53,1.7.13,2.25.71.61,1.88.39,2.38-.41.44-.72.24-1.74-.5-2.19-.66-.4-1.52-.21-2,.34Z"/>
    <path class="cls-1" d="M188.68,101.23c-.46.67-.38,1.64.06,2.22.98,1.29,3.85.85,4.29-.28.3-.79-.51-2.06-1.63-2.5-.82-.32-2.11-.32-2.72.56Z"/>
    <path class="cls-1" d="M195.87,102.73c-.38.51-.3,1.31.22,1.72.4.32.97.33,1.38.09.62-.36.84-1.28.41-1.85-.47-.61-1.53-.6-2,.03Z"/>
    <path class="cls-1" d="M205.36,103.08c-.41.48-.23,1.33.22,1.75.69.66,2.09.37,2.35-.28.23-.59-.45-1.54-1.28-1.75-.07-.02-.86-.21-1.28.28Z"/>
    <path class="cls-1" d="M214.52,101.95c-.37.46-.47,1.24,0,1.72.48.49,1.29.38,1.75,0,.57-.47.73-1.42.22-1.94-.52-.53-1.5-.36-1.97.22Z"/>
    <path class="cls-1" d="M219.25,101.76c-.59.75-.58,1.9.03,2.5.82.82,2.57.5,3.1-.63.4-.84.07-2.07-.88-2.5-.81-.37-1.75,0-2.25.63Z"/>
    <path class="cls-1" d="M225.32,101.48c-.79.59-.84,1.87-.25,2.6.77.96,2.55.84,3.1-.09.46-.77.01-1.99-.84-2.5-.54-.32-1.38-.46-2,0Z"/>
    <path class="cls-1" d="M229.86,102.17c-.46.53-.22,1.6.38,2.13.93.82,2.72.3,2.94-.44.16-.54-.54-1.21-.97-1.5-.64-.42-1.82-.79-2.35-.19Z"/>
    <path class="cls-1" d="M179.32,96.32c-.3.64-.13,1.49.44,1.94.76.61,2.03.34,2.5-.53.37-.68.2-1.6-.41-2.07-.8-.62-2.11-.25-2.53.66Z"/>
  </g>
  <path class="cls-4" d="M130.66,120.24s-1.74-9.62,6.24-14.36"/>
  <path class="cls-4" d="M132.02,122.86s1.22,6.65,8.73,7.18"/>
  <path class="cls-4" d="M157.46,127.81s3.34-4.09,7.49-3.39"/>
  <path class="cls-4" d="M169.55,125.17s6.68-1.27,9.88-4.42"/>
  <path class="cls-4" d="M179.43,101.13s3.51,5.78,2.25,14.02"/>
  <path class="cls-4" d="M153.38,104.47s3.71,3.19,5.44,2.44,2.38-5.78,2.38-5.78"/>
  <path class="cls-4" d="M155.03,102.74s2.06,3.62,3.47,1.97c1.41-1.65,1.31-3.86,1.31-3.86"/>
  <path class="cls-4" d="M155.55,100.62s1.52,3.22,2.42,2.12.81-3.49.81-3.49"/>
  <path class="cls-4" d="M129.91,125.48s-2.48-5.23-.86-10.91"/>
  <path class="cls-4" d="M159.81,128.64s1.41-3.23,5.4-3.16"/>
  <path class="cls-4" d="M170.56,126.72s6.11-.2,9.72-3.86"/>
  <path class="cls-4" d="M183.65,105.27s2.02,5.21,0,9.88"/>
  <ellipse class="cls-1" cx="49.41" cy="44.04" rx="1.17" ry=".87"/>
  <circle class="cls-1" cx="45.33" cy="42.37" r=".94"/>
  <ellipse class="cls-1" cx="43.36" cy="38.98" rx="1.03" ry="1.34"/>
  <ellipse class="cls-1" cx="42.11" cy="31.62" rx=".77" ry=".94"/>
  <ellipse class="cls-1" cx="37.86" cy="34.79" rx="1.22" ry=".63"/>
  <circle class="cls-1" cx="38.49" cy="39.45" r=".86"/>
  <ellipse class="cls-1" cx="41.3" cy="43.82" rx=".81" ry="1.08"/>
  <ellipse class="cls-1" cx="45.26" cy="46.38" rx=".87" ry=".77"/>
  <ellipse class="cls-1" cx="48.82" cy="47.7" rx=".59" ry=".54"/>
  <ellipse class="cls-1" cx="52.63" cy="46.05" rx=".77" ry=".63"/>
  <circle class="cls-1" cx="41.07" cy="40.83" r=".9"/>
  <ellipse class="cls-1" cx="40.52" cy="37.32" rx=".78" ry=".68"/>
  <circle class="cls-1" cx="43.02" cy="35.21" r="1.05"/>
  <circle class="cls-1" cx="44.54" cy="29.91" r=".87"/>
  <circle class="cls-1" cx="45.27" cy="27.37" r=".6"/>
  <ellipse class="cls-1" cx="37.94" cy="30.45" rx=".88" ry=".69"/>
  <ellipse class="cls-1" cx="55.01" cy="42.43" rx=".77" ry=".69"/>
  <ellipse class="cls-1" cx="59.85" cy="38.76" rx=".53" ry=".67"/>
  <circle class="cls-1" cx="67.41" cy="56.19" r=".58"/>
  <ellipse class="cls-1" cx="62.74" cy="57.41" rx=".8" ry=".64"/>
  <ellipse class="cls-1" cx="58.7" cy="59.95" rx=".94" ry=".92"/>
  <circle class="cls-1" cx="61.3" cy="58.76" r=".72"/>
  <circle class="cls-1" cx="65.02" cy="56.88" r=".69"/>
  <circle class="cls-1" cx="57.99" cy="64.17" r=".84"/>
  <circle class="cls-1" cx="54.3" cy="62.42" r=".9"/>
  <circle class="cls-1" cx="57.09" cy="58.4" r=".64"/>
  <circle class="cls-1" cx="57.71" cy="68.01" r=".63"/>
  <ellipse class="cls-1" cx="60.93" cy="69.9" rx="1.08" ry=".82"/>
  <circle class="cls-1" cx="55.3" cy="65.76" r=".78"/>
  <ellipse class="cls-1" cx="60.61" cy="55.63" rx=".77" ry=".73"/>
  <ellipse class="cls-1" cx="69.99" cy="56.79" rx=".82" ry=".6"/>
  <ellipse class="cls-1" cx="64.67" cy="53.6" rx="1.41" ry=".91"/>
  <circle class="cls-1" cx="12.94" cy="83.14" r="1.16"/>
  <circle class="cls-1" cx="17.63" cy="83.14" r="1.16"/>
  <ellipse class="cls-1" cx="7.31" cy="91.54" rx="1.22" ry="1.63"/>
  <ellipse class="cls-1" cx="9.21" cy="84.1" rx="1.31" ry=".95"/>
  <ellipse class="cls-1" cx="7.24" cy="87.37" rx="1.16" ry="1.19"/>
  <ellipse class="cls-1" cx="22.36" cy="84.53" rx="1.44" ry="1.05"/>
  <ellipse class="cls-1" cx="27.77" cy="85.8" rx=".97" ry=".75"/>
  <ellipse class="cls-1" cx="9.28" cy="81.59" rx=".88" ry=".74"/>
  <ellipse class="cls-1" cx="14" cy="78.84" rx="1.06" ry="1.02"/>
  <circle class="cls-1" cx="17.05" cy="78.05" r=".79"/>
  <ellipse class="cls-1" cx="8.67" cy="77.35" rx="1.24" ry=".88"/>
  <circle class="cls-1" cx="5.24" cy="81.23" r=".75"/>
  <ellipse class="cls-1" cx="19.54" cy="80.12" rx=".75" ry=".52"/>
  <ellipse class="cls-1" cx="7.45" cy="97.23" rx="1.08" ry=".6"/>
  <circle class="cls-1" cx="1.4" cy="89.92" r=".9"/>
  <ellipse class="cls-1" cx="3.08" cy="86.48" rx="1.27" ry=".67"/>
  <ellipse class="cls-1" cx="2.24" cy="93.74" rx=".61" ry=".91"/>
  <ellipse class="cls-1" cx="2.52" cy="82.15" rx="1.36" ry=".99"/>
  <ellipse class="cls-1" cx="5.46" cy="83.58" rx=".63" ry=".95"/>
  <ellipse class="cls-1" cx="76.18" cy="132.84" rx=".59" ry="1.1"/>
  <circle class="cls-1" cx="71.89" cy="133.68" r=".84"/>
  <ellipse class="cls-1" cx="68.45" cy="135.31" rx="1.22" ry=".78"/>
  <ellipse class="cls-1" cx="69.89" cy="131.29" rx="1" ry=".67"/>
  <circle class="cls-1" cx="72.97" cy="128.93" r="1.07"/>
  <ellipse class="cls-1" cx="67.12" cy="139.09" rx="1.02" ry=".91"/>
  <ellipse class="cls-1" cx="65.35" cy="133.23" rx="1.03" ry=".83"/>
  <ellipse class="cls-1" cx="67.4" cy="129.24" rx="1.3" ry=".75"/>
  <ellipse class="cls-1" cx="68.65" cy="125.62" rx="1.24" ry=".67"/>
  <ellipse class="cls-1" cx="78.7" cy="136.48" rx=".89" ry=".77"/>
  <ellipse class="cls-1" cx="63.95" cy="160.09" rx="1.19" ry="1.13"/>
  <circle class="cls-1" cx="68.6" cy="161.02" r=".77"/>
  <ellipse class="cls-1" cx="62.65" cy="165.27" rx="1.11" ry=".83"/>
  <ellipse class="cls-1" cx="61.58" cy="168.96" rx=".83" ry="1.14"/>
  <circle class="cls-1" cx="62.01" cy="161.77" r=".75"/>
  <ellipse class="cls-1" cx="62.01" cy="157.12" rx="1.6" ry="1.13"/>
  <ellipse class="cls-1" cx="59.39" cy="162.7" rx=".7" ry=".9"/>
  <ellipse class="cls-1" cx="103.02" cy="137.26" rx=".66" ry=".77"/>
  <circle class="cls-1" cx="105.8" cy="140.68" r=".9"/>
  <ellipse class="cls-1" cx="103.13" cy="140.69" rx=".77" ry=".53"/>
  <ellipse class="cls-1" cx="104.7" cy="134.23" rx=".8" ry=".61"/>
  <ellipse class="cls-1" cx="106.73" cy="132.01" rx=".93" ry=".7"/>
  <circle class="cls-1" cx="118.43" cy="153.55" r=".94"/>
  <ellipse class="cls-1" cx="116.34" cy="156.37" rx=".96" ry="1.13"/>
  <ellipse class="cls-1" cx="116.34" cy="160.25" rx=".77" ry=".66"/>
  <ellipse class="cls-1" cx="120.45" cy="160.8" rx=".71" ry=".8"/>
  <ellipse class="cls-1" cx="123.98" cy="160.22" rx=".8" ry=".69"/>
  <ellipse class="cls-1" cx="126.44" cy="159.48" rx=".36" ry=".61"/>
  <ellipse class="cls-1" cx="118.35" cy="160.08" rx=".43" ry=".52"/>
  <ellipse class="cls-1" cx="121.6" cy="163.42" rx="1.15" ry=".67"/>
  <circle class="cls-1" cx="117.92" cy="162.48" r=".43"/>
  <ellipse class="cls-1" cx="114.59" cy="159.56" rx=".58" ry=".69"/>
  <circle class="cls-1" cx="114.01" cy="157.22" r=".41"/>
  <circle class="cls-1" cx="151.92" cy="20.98" r=".86"/>
  <ellipse class="cls-1" cx="155.93" cy="21.89" rx="1.36" ry="1.61"/>
  <ellipse class="cls-1" cx="156.96" cy="29.65" rx=".83" ry="1.02"/>
  <ellipse class="cls-1" cx="153.8" cy="31.21" rx="1.3" ry=".92"/>
  <ellipse class="cls-1" cx="159.26" cy="26.16" rx="1.19" ry=".88"/>
  <circle class="cls-1" cx="160.15" cy="23.2" r="1.36"/>
  <ellipse class="cls-1" cx="161.3" cy="29.14" rx="1.44" ry=".95"/>
  <circle class="cls-1" cx="164.39" cy="26.25" r="1.1"/>
  <ellipse class="cls-1" cx="153.46" cy="34.8" rx=".95" ry="1.16"/>
  <circle class="cls-1" cx="158.06" cy="32.75" r=".77"/>
  <ellipse class="cls-1" cx="163.97" cy="35.23" rx="1.52" ry="1.41"/>
  <ellipse class="cls-1" cx="164.28" cy="32.11" rx=".77" ry=".72"/>
  <ellipse class="cls-1" cx="168.42" cy="31.06" rx="1.42" ry="1.42"/>
  <circle class="cls-1" cx="167.85" cy="37" r="1.05"/>
  <ellipse class="cls-1" cx="169.28" cy="28.01" rx=".87" ry=".97"/>
  <circle class="cls-1" cx="166.99" cy="33.83" r=".55"/>
  <ellipse class="cls-1" cx="160.73" cy="32.48" rx=".74" ry=".56"/>
  <ellipse class="cls-1" cx="150.23" cy="36.66" rx=".64" ry=".89"/>
  <ellipse class="cls-1" cx="156.96" cy="34.95" rx=".93" ry=".59"/>
  <circle class="cls-1" cx="165.58" cy="39.49" r=".53"/>
  <ellipse class="cls-1" cx="163.85" cy="41.45" rx=".55" ry=".72"/>
  <circle class="cls-1" cx="168.22" cy="64.02" r=".72"/>
  <ellipse class="cls-1" cx="171.4" cy="67.45" rx=".99" ry=".83"/>
  <circle class="cls-1" cx="170.29" cy="69.67" r=".73"/>
  <circle class="cls-1" cx="169.61" cy="65.41" r=".67"/>
  <ellipse class="cls-1" cx="172.01" cy="64.31" rx=".99" ry=".82"/>
  <ellipse class="cls-1" cx="174.04" cy="67.64" rx=".65" ry=".59"/>
  <ellipse class="cls-1" cx="215.33" cy="13.68" rx=".98" ry="1.23"/>
  <ellipse class="cls-1" cx="214.56" cy="9.65" rx="1.29" ry=".88"/>
  <ellipse class="cls-1" cx="217.63" cy="6.34" rx="1.32" ry="1.15"/>
  <circle class="cls-1" cx="214.72" cy="6.5" r=".98"/>
  <ellipse class="cls-1" cx="215.57" cy="3.81" rx="1.31" ry=".82"/>
  <circle class="cls-1" cx="226.66" cy="6.09" r=".9"/>
  <ellipse class="cls-1" cx="225.1" cy="4.11" rx=".8" ry=".75"/>
  <ellipse class="cls-1" cx="220.69" cy="5.48" rx=".4" ry=".61"/>
  <ellipse class="cls-1" cx="220.58" cy="2.6" rx=".81" ry=".62"/>
  <circle class="cls-1" cx="217.7" cy="2.48" r=".5"/>
  <ellipse class="cls-1" cx="212.08" cy="3.25" rx=".49" ry=".65"/>
  <ellipse class="cls-1" cx="211.72" cy="5.87" rx=".59" ry=".8"/>
  <circle class="cls-1" cx="211.67" cy="8.66" r=".53"/>
  <circle class="cls-1" cx="211.38" cy="11.47" r=".53"/>
  <ellipse class="cls-1" cx="214.65" cy="1.04" rx=".68" ry=".54"/>
  <ellipse class="cls-1" cx="220.08" cy="1.11" rx=".92" ry=".47"/>
  <circle class="cls-1" cx="207.41" cy="7.93" r=".74"/>
  <ellipse class="cls-1" cx="209.34" cy="5.77" rx=".76" ry=".57"/>
  <ellipse class="cls-1" cx="230.3" cy="7.67" rx=".69" ry=".57"/>
  <circle class="cls-1" cx="222.52" cy="4.44" r=".63"/>
  <circle class="cls-1" cx="239.76" cy="31.69" r=".83"/>
  <circle class="cls-1" cx="242.74" cy="32.3" r=".61"/>
  <ellipse class="cls-1" cx="245.85" cy="33" rx="1" ry=".86"/>
  <circle class="cls-1" cx="243.36" cy="30.41" r=".62"/>
  <circle class="cls-1" cx="238.85" cy="33.9" r=".6"/>
  <ellipse class="cls-1" cx="234.15" cy="35.2" rx="1.1" ry=".79"/>
  <ellipse class="cls-1" cx="236.45" cy="33.86" rx=".8" ry=".69"/>
  <circle class="cls-1" cx="236.6" cy="31.27" r=".86"/>
  <circle class="cls-1" cx="235.24" cy="37.35" r=".69"/>
  <circle class="cls-1" cx="234.74" cy="40.08" r=".91"/>
  <circle class="cls-1" cx="237.77" cy="42.21" r=".65"/>
  <ellipse class="cls-1" cx="232.96" cy="37.61" rx=".88" ry=".53"/>
  <circle class="cls-1" cx="231.61" cy="41.31" r=".47"/>
  <circle class="cls-1" cx="234" cy="41.54" r=".55"/>
  <circle class="cls-1" cx="238.94" cy="29.26" r=".53"/>
  <ellipse class="cls-1" cx="241.35" cy="28.5" rx=".41" ry=".56"/>
  <ellipse class="cls-1" cx="245.95" cy="30.25" rx=".67" ry=".61"/>
  <circle class="cls-1" cx="234.01" cy="31.96" r=".69"/>
  <ellipse class="cls-1" cx="226.44" cy="96.47" rx=".63" ry=".82"/>
  <circle class="cls-1" cx="230.15" cy="98.15" r=".68"/>
  <ellipse class="cls-1" cx="233.91" cy="99.72" rx=".71" ry=".89"/>
  <circle class="cls-1" cx="236.33" cy="102.41" r=".55"/>
  <circle class="cls-1" cx="232.78" cy="97.27" r=".52"/>
  <ellipse class="cls-1" cx="229.57" cy="95.79" rx=".59" ry=".5"/>
  <circle class="cls-1" cx="236.96" cy="98.41" r=".78"/>
  <ellipse class="cls-1" cx="235.61" cy="107.9" rx=".72" ry=".56"/>
  <circle class="cls-1" cx="236.91" cy="106.1" r=".45"/>
  <circle class="cls-1" cx="231.91" cy="107.96" r=".5"/>
  <circle class="cls-1" cx="233.75" cy="108.22" r=".45"/>
  <ellipse class="cls-1" cx="237.59" cy="104.92" rx=".63" ry=".53"/>
  <ellipse class="cls-1" cx="239.34" cy="103.09" rx=".81" ry=".52"/>
  <ellipse class="cls-1" cx="240.97" cy="101.47" rx=".81" ry=".7"/>
  <ellipse class="cls-1" cx="240.4" cy="105.77" rx=".53" ry=".84"/>
  <circle class="cls-1" cx="238.42" cy="108.01" r=".67"/>
  <ellipse class="cls-1" cx="229.28" cy="109.13" rx=".49" ry=".67"/>
  <ellipse class="cls-1" cx="233.71" cy="110.45" rx=".93" ry=".64"/>
  <ellipse class="cls-1" cx="236.57" cy="110.13" rx=".8" ry=".58"/>
  <ellipse class="cls-1" cx="237.81" cy="101.01" rx=".6" ry=".4"/>
  <ellipse class="cls-1" cx="274.59" cy="130.49" rx=".89" ry="1"/>
  <ellipse class="cls-1" cx="279.72" cy="131.92" rx=".77" ry="1.01"/>
  <ellipse class="cls-1" cx="273.7" cy="133.45" rx=".89" ry=".74"/>
  <ellipse class="cls-1" cx="277.13" cy="133.27" rx=".83" ry="1.19"/>
  <ellipse class="cls-1" cx="278.5" cy="129.72" rx=".95" ry=".58"/>
  <ellipse class="cls-1" cx="281.02" cy="136.15" rx=".44" ry=".66"/>
  <ellipse class="cls-1" cx="281.65" cy="133.7" rx="1" ry=".77"/>
  <ellipse class="cls-1" cx="284.03" cy="130.96" rx="1.05" ry=".99"/>
  <circle class="cls-1" cx="281.8" cy="138.59" r=".77"/>
  <ellipse class="cls-1" cx="284.21" cy="137.14" rx=".84" ry=".99"/>
  <ellipse class="cls-1" cx="280.4" cy="142.7" rx=".63" ry=".85"/>
  <ellipse class="cls-1" cx="284.2" cy="141.08" rx=".83" ry=".92"/>
  <circle class="cls-1" cx="287.51" cy="139.77" r=".99"/>
  <circle class="cls-1" cx="194.27" cy="173.34" r=".79"/>
  <circle class="cls-1" cx="197.09" cy="174.76" r=".84"/>
  <circle class="cls-1" cx="196.12" cy="177.81" r=".84"/>
  <ellipse class="cls-1" cx="200.4" cy="177.98" rx=".79" ry=".7"/>
  <ellipse class="cls-1" cx="208.64" cy="168.26" rx=".46" ry=".54"/>
  <ellipse class="cls-1" cx="211" cy="173.02" rx=".77" ry=".92"/>
  <circle class="cls-1" cx="209.98" cy="177.09" r=".88"/>
  <ellipse class="cls-1" cx="207.89" cy="179.04" rx=".46" ry=".57"/>
  <ellipse class="cls-1" cx="205.25" cy="178.94" rx=".82" ry=".96"/>
  <ellipse class="cls-1" cx="202.36" cy="179.52" rx=".73" ry=".59"/>
  <ellipse class="cls-1" cx="200.36" cy="175.41" rx=".92" ry=".81"/>
  <ellipse class="cls-1" cx="196.12" cy="179.74" rx=".54" ry=".76"/>
  <ellipse class="cls-1" cx="200.69" cy="180.52" rx=".59" ry=".79"/>
  <ellipse class="cls-1" cx="206.07" cy="181.19" rx=".63" ry=".54"/>
  <circle class="cls-1" cx="212.21" cy="177.61" r=".76"/>
  <circle class="cls-1" cx="210.83" cy="180.23" r=".61"/>
  <circle class="cls-1" cx="198.49" cy="180.59" r=".69"/>
  <ellipse class="cls-1" cx="146.2" cy="188.71" rx=".87" ry="1.1"/>
  <ellipse class="cls-1" cx="154.28" cy="208.85" rx=".6" ry=".65"/>
  <ellipse class="cls-1" cx="143.29" cy="191.2" rx=".98" ry=".86"/>
  <ellipse class="cls-1" cx="146.4" cy="191.48" rx=".67" ry=".88"/>
  <ellipse class="cls-1" cx="144.51" cy="194.64" rx=".94" ry="1.1"/>
  <ellipse class="cls-1" cx="142.23" cy="195.14" rx=".56" ry=".81"/>
  <ellipse class="cls-1" cx="147.61" cy="194.27" rx=".55" ry=".67"/>
  <ellipse class="cls-1" cx="143.53" cy="198.01" rx=".55" ry=".81"/>
  <ellipse class="cls-1" cx="145.65" cy="197.92" rx=".55" ry=".73"/>
  <circle class="cls-1" cx="143.66" cy="200.81" r=".68"/>
  <ellipse class="cls-1" cx="146.81" cy="200.95" rx=".87" ry=".82"/>
  <ellipse class="cls-1" cx="146.06" cy="203.49" rx=".61" ry=".73"/>
  <ellipse class="cls-1" cx="149.45" cy="203.85" rx=".69" ry=".62"/>
  <ellipse class="cls-1" cx="159.62" cy="199.9" rx=".49" ry=".59"/>
  <ellipse class="cls-1" cx="158.39" cy="202.23" rx=".55" ry="1"/>
  <ellipse class="cls-1" cx="157.13" cy="204.04" rx=".46" ry=".81"/>
  <ellipse class="cls-1" cx="155.14" cy="205.47" rx=".47" ry="1"/>
  <ellipse class="cls-1" cx="152.35" cy="205.77" rx=".66" ry=".79"/>
  <ellipse class="cls-1" cx="149.34" cy="206.83" rx=".8" ry=".48"/>
  <circle class="cls-1" cx="145.76" cy="206.54" r=".77"/>
  <circle class="cls-1" cx="143.08" cy="203.16" r=".59"/>
  <circle class="cls-1" cx="142.42" cy="205.6" r=".75"/>
  <ellipse class="cls-1" cx="144.21" cy="205.43" rx=".65" ry=".45"/>
</svg>