<?xml version="1.0" encoding="UTF-8"?>
<svg id="Layer_1" data-name="Layer 1" xmlns="http://www.w3.org/2000/svg" version="1.1" viewBox="0 0 280 232.8">
  <defs>
    <style>
      .cls-1 {
        fill: #000;
        stroke-width: 0px;
      }
    </style>
  </defs>
  <path class="cls-1" d="M271.7,13.5c2.5,1.5,4.6,3.5,6.1,6,1.5,2.5,2.2,5.3,2.2,8.3,0,3.1-.7,5.8-2.2,8.4-1.5,2.5-3.5,4.5-6.1,6-2.6,1.5-5.4,2.2-8.4,2.2s-5.9-.7-8.4-2.2c-2.6-1.5-4.6-3.5-6.1-6-1.5-2.5-2.2-5.3-2.2-8.4,0-3,.7-5.7,2.2-8.3,1.5-2.5,3.5-4.5,6.1-6,2.5-1.5,5.3-2.2,8.4-2.2,3,0,5.8.7,8.4,2.2ZM270.1,39.4c2.1-1.2,3.7-2.8,4.9-4.9,1.2-2.1,1.8-4.3,1.8-6.8,0-2.4-.6-4.7-1.8-6.7-1.2-2-2.8-3.6-4.9-4.8-2.1-1.2-4.3-1.8-6.8-1.8-2.5,0-4.8.6-6.8,1.8-2.1,1.2-3.7,2.8-4.9,4.8-1.2,2-1.8,4.3-1.8,6.7,0,2.5.6,4.8,1.8,6.8,1.2,2.1,2.8,3.7,4.9,4.9,2.1,1.2,4.3,1.8,6.8,1.8s4.8-.6,6.8-1.8ZM268,27.2c-.4.7-.9,1.2-1.6,1.4-.2.2-.3.3-.3.5l2.2,5.3v.3c0,.5-.2.7-.7.7h-1.1c-.5,0-.8-.2-.9-.7l-2.1-5.4c0-.2-.2-.3-.3-.3h-1.4c-.2,0-.3.1-.3.3v5.2c0,.6-.3.8-.8.8h-.9c-.6,0-.8-.3-.8-.8v-13.5c0-.6.3-.8.8-.8h4.5c1.3,0,2.4.4,3.2,1.3.8.8,1.2,1.9,1.2,3.2,0,.9-.2,1.7-.6,2.4ZM261.5,22.9v3.8c0,.2.1.3.3.3h2c.6,0,1.1-.2,1.5-.6.4-.4.6-.9.6-1.6,0-.7-.2-1.3-.6-1.7s-.9-.6-1.5-.6h-2c-.2,0-.3.1-.3.3Z"/>
  <path class="cls-1" d="M36.8,20.3h-15.1c-.4,0-.6-.2-.6-.6V1.6c0-1.1-.5-1.6-1.6-1.6h-7.8c-1.1,0-1.6.5-1.6,1.6v18.1c0,.4-.2.6-.6.6H1.6c-1.1,0-1.6.5-1.6,1.6v5.7c0,1.1.5,1.6,1.6,1.6h7.9c.4,0,.6.2.6.6v51c0,7.6,1.8,12.8,5.4,15.6,3.6,2.8,8.8,4.2,15.7,4.2l4.9-.2c1.1,0,1.6-.5,1.6-1.6v-6.7c0-1.1-.5-1.6-1.6-1.6h-2.7c-4.3,0-7.5-1-9.4-2.9-2-2-2.9-5.4-2.9-10.4V29.8c0-.4.2-.6.6-.6h15.1c1.1,0,1.6-.5,1.6-1.6v-5.7c0-1.1-.5-1.6-1.6-1.6Z"/>
  <path class="cls-1" d="M142.9,92.6c.2-.2.4-.3.6-.3s.2.2.2.5v6.2c0,1.1.5,1.6,1.6,1.6h8.1c1.1,0,1.6-.5,1.6-1.6V21.9c0-1.1-.5-1.6-1.6-1.6h-8.1c-1.1,0-1.6.5-1.6,1.6v51.5c0,5.6-1.5,10.1-4.4,13.4-3,3.3-7,5-12.2,5s-8.8-1.6-11.6-4.7c-2.7-3.1-4.1-7.5-4.1-13.1V21.9c0-1.1-.5-1.6-1.6-1.6h-8.1c-1.1,0-1.6.5-1.6,1.6v55c0,8,2.3,14.2,6.8,18.4,4.5,4.2,10.4,6.3,17.6,6.3s14.7-3,18.4-9Z"/>
  <path class="cls-1" d="M226.9,82.8c.1-.4,0-.8,0-1.2-.2-.4-.5-.6-1-.7l-7.3-1.4c-1-.2-1.6.2-1.9,1.1-1.3,3.5-3.4,6.3-6.3,8.3-2.9,2.1-6.4,3.1-10.4,3.1s-8.9-1.4-12-4.2c-3.1-2.8-4.9-6.5-5.5-11-.2-4-.3-7.7-.3-10.9s.2-.6.6-.6h43.8c1.1,0,1.6-.5,1.6-1.6,0-9.3-.2-15.7-.5-19.2-.6-7.6-3.5-13.7-8.6-18.4-5.1-4.6-11.7-7-19.8-7s-13.9,2.2-18.9,6.5c-5,4.3-8,10-8.8,17.1-.4,3.4-.6,7.8-.6,13.2v5c0,2.4,0,5.4.2,9,.1,3.6.4,6.7.8,9.4,1.2,7,4.2,12.5,9,16.6,4.9,4.1,11.1,6.1,18.9,6.1s12.5-1.7,17.3-5.1c4.8-3.4,8-8,9.8-14ZM182.5,44.1c.5-4.5,2.3-8.2,5.3-11,3-2.8,6.9-4.2,11.7-4.2s8.5,1.4,11.5,4.3c3,2.9,4.8,6.6,5.3,11.1.4,4.2.6,7.9.6,10.9s-.2.6-.6.6h-33.4c-.4,0-.6-.2-.6-.6,0-3,.1-6.7.3-11.1Z"/>
  <path class="cls-1" d="M81.9,150.2c-8.6,0-14.9,3.1-19,9.2-.2.2-.4.3-.6.2-.2-.1-.2-.3-.2-.5v-63.6s0,0,0,0v-43.5c0-5.6,1.5-10.4,4.6-14.3,3.1-3.9,6.9-5.9,11.6-6l1.9-.2c2,0,3.9.4,5.5,1.1,1.2.4,1.8.1,1.9-.9l1.9-8.2c.2-1,0-1.6-.8-1.9-2.2-1.3-4.9-1.9-8.1-1.9s-7.7,1.1-10.7,3.4c-3,2.3-5.4,5.4-7.2,9.4-.1.2-.2.3-.4.3s-.2-.2-.2-.5v-10.3c0-1.1-.5-1.6-1.6-1.6h-8.1c-1.1,0-1.6.5-1.6,1.6v77s0,0,0,0v130.9c0,1.1.5,1.6,1.6,1.6h8.1c1.1,0,1.6-.5,1.6-1.6v-51.5c0-5.6,1.5-10.1,4.5-13.4,3-3.3,7-5,12-5s8.9,1.6,11.7,4.9c2.9,3.3,4.3,7.7,4.3,13.2v51.8c0,1.1.5,1.6,1.6,1.6h8.1c1.1,0,1.6-.5,1.6-1.6v-53.4c0-8.1-2.1-14.6-6.4-19.3-4.3-4.7-10.1-7.1-17.5-7.1Z"/>
  <path class="cls-1" d="M149.7,150.1c-7.4,0-13.6,1.9-18.6,5.6-5,3.8-7.9,8.7-8.6,14.8-.1.4,0,.8.2,1.1.3.3.7.5,1.2.5l8.7.5c1.1,0,1.6-.5,1.7-1.4.5-3.4,2.2-6.1,4.9-8.2,2.7-2.1,6.2-3.1,10.3-3.1s9.3,1.6,12,4.7c2.7,3.1,4,7.4,4,12.8v6c0,.4-.2.6-.6.6h-14.7c-9.4,0-16.8,2.2-22.3,6.6-5.4,4.4-8.2,10.8-8.2,19.3s2.4,14,7.1,17.6c4.7,3.6,10.4,5.4,17,5.4s8.5-.7,12-2.2,6.6-3.7,8.9-6.7c.2-.2.4-.3.6-.2.2.1.2.3.2.5v5.7c0,1.1.5,1.6,1.6,1.6h8.1c1.1,0,1.6-.5,1.6-1.6v-53.3c0-8-2.4-14.5-7.2-19.3-4.8-4.9-11.4-7.3-19.9-7.3ZM165.5,206.5c0,5.2-1.9,9.2-5.8,12.1-3.9,2.9-8.4,4.4-13.7,4.4s-8-1.1-10.8-3.4c-2.7-2.3-4.1-5.7-4.1-10.4s1.8-9.2,5.4-12c3.6-2.8,8.4-4.2,14.4-4.2h14c.4,0,.6.2.6.6v12.8Z"/>
  <path class="cls-1" d="M258,152.4c-2.2-1.3-4.9-1.9-8.1-1.9s-7.7,1.1-10.7,3.4c-3,2.3-5.4,5.4-7.2,9.4-.1.2-.2.3-.4.3s-.2-.2-.2-.5v-10.3c0-1.1-.5-1.6-1.6-1.6h-8.1c-1.1,0-1.6.5-1.6,1.6v77c0,1.1.5,1.6,1.6,1.6h8.1c1.1,0,1.6-.5,1.6-1.6v-47.1c0-5.6,1.5-10.4,4.6-14.3,3.1-3.9,6.9-5.9,11.6-6l1.9-.2c2,0,3.9.4,5.5,1.1,1.2.4,1.8.1,1.9-1l1.9-8.2c.2-1,0-1.6-.8-1.9Z"/>
  <path class="cls-1" d="M194.4,151.3h8.1c.9,0,1.6.7,1.6,1.6v77c0,.9-.7,1.6-1.6,1.6h-8.1c-.9,0-1.6-.7-1.6-1.6v-77c0-.9.7-1.6,1.6-1.6Z"/>
  <path class="cls-1" d="M198.4,121.8c-2.6,0-4.8.8-6.4,2.5-1.6,1.6-2.5,3.8-2.5,6.4s.8,4.7,2.5,6.3c1.6,1.7,3.8,2.5,6.4,2.5s4.7-.8,6.3-2.5c1.7-1.7,2.5-3.8,2.5-6.3s-.8-4.8-2.5-6.4c-1.7-1.6-3.8-2.5-6.3-2.5Z"/>
</svg>